<svg width="253" height="65" viewBox="0 0 253 65" fill="none" xmlns="http://www.w3.org/2000/svg">
<path opacity="0.8" d="M0.00800037 64H-0.992V65H0.00800037V64ZM0.00800037 0.639997V-0.360003H-0.992V0.639997H0.00800037ZM30.824 0.639997L30.8322 -0.360003H30.824V0.639997ZM48.104 5.152L47.4826 5.93554L47.491 5.94208L48.104 5.152ZM50.504 27.04L51.2754 27.6764L51.283 27.667L50.504 27.04ZM40.808 31.936L40.6483 30.9488L39.808 31.0848V31.936H40.808ZM40.808 32.032H39.808V32.909L40.6775 33.0235L40.808 32.032ZM51.656 37.12L50.898 37.7722L50.9061 37.7817L50.9145 37.7909L51.656 37.12ZM49.544 59.584L50.1525 60.3776L50.1607 60.3712L49.544 59.584ZM15.944 52.384H14.944V53.384H15.944V52.384ZM36.2 50.56L36.8369 51.331L36.2 50.56ZM36.2 40.192L35.5631 40.963L35.5733 40.9714L35.5837 40.9795L36.2 40.192ZM15.944 38.368V37.368H14.944V38.368H15.944ZM15.944 26.56H14.944V27.56H15.944V26.56ZM15.944 12.736V11.736H14.944V12.736H15.944ZM1.008 64V0.639997H-0.992V64H1.008ZM0.00800037 1.64H30.824V-0.360003H0.00800037V1.64ZM30.8158 1.63996C38.5337 1.70322 44.0265 3.19444 47.4826 5.93549L48.7254 4.3685C44.7575 1.22155 38.7303 -0.295231 30.8322 -0.359968L30.8158 1.63996ZM47.491 5.94208C50.9153 8.59887 52.672 12.4733 52.672 17.728H54.672C54.672 11.9746 52.7167 7.46513 48.717 4.36191L47.491 5.94208ZM52.672 17.728C52.672 21.0996 51.6844 23.9785 49.725 26.413L51.283 27.667C53.5476 24.8535 54.672 21.5244 54.672 17.728H52.672ZM49.7326 26.4036C47.8199 28.7221 44.8405 30.2707 40.6483 30.9488L40.9677 32.9232C45.4795 32.1933 48.9641 30.4779 51.2754 27.6764L49.7326 26.4036ZM39.808 31.936V32.032H41.808V31.936H39.808ZM40.6775 33.0235C45.3844 33.6428 48.7394 35.2636 50.898 37.7722L52.414 36.4678C49.8366 33.4724 45.9596 31.7012 40.9385 31.0405L40.6775 33.0235ZM50.9145 37.7909C53.1696 40.2835 54.304 43.3039 54.304 46.912H56.304C56.304 42.8401 55.0064 39.3325 52.3975 36.4491L50.9145 37.7909ZM54.304 46.912C54.304 52.085 52.4952 56.0019 48.9273 58.7968L50.1607 60.3712C54.2728 57.1501 56.304 52.619 56.304 46.912H54.304ZM48.9356 58.7904C45.3462 61.5422 39.8443 63 32.264 63V65C40.0437 65 46.0618 63.5138 50.1524 60.3776L48.9356 58.7904ZM32.264 63H0.00800037V65H32.264V63ZM15.944 53.384H29.48V51.384H15.944V53.384ZM29.48 53.384C32.5943 53.384 35.1079 52.7592 36.8369 51.331L35.5631 49.789C34.3481 50.7928 32.3817 51.384 29.48 51.384V53.384ZM36.8369 51.331C38.5866 49.8856 39.408 47.8143 39.408 45.28H37.408C37.408 47.3537 36.7574 48.8024 35.5631 49.789L36.8369 51.331ZM39.408 45.28C39.408 42.8005 38.5795 40.7844 36.8163 39.4045L35.5837 40.9795C36.7645 41.9036 37.408 43.2794 37.408 45.28H39.408ZM36.8369 39.421C35.1079 37.9928 32.5943 37.368 29.48 37.368V39.368C32.3817 39.368 34.3481 39.9592 35.5631 40.963L36.8369 39.421ZM29.48 37.368H15.944V39.368H29.48V37.368ZM14.944 38.368V52.384H16.944V38.368H14.944ZM15.944 27.56H27.944V25.56H15.944V27.56ZM27.944 27.56C30.9911 27.56 33.4606 26.9685 35.1843 25.6195C36.9546 24.234 37.776 22.1804 37.776 19.648H35.776C35.776 21.7236 35.1254 23.126 33.9517 24.0445C32.7314 24.9995 30.7849 25.56 27.944 25.56V27.56ZM37.776 19.648C37.776 17.1156 36.9546 15.062 35.1843 13.6765C33.4606 12.3275 30.9911 11.736 27.944 11.736V13.736C30.7849 13.736 32.7314 14.2965 33.9517 15.2515C35.1254 16.17 35.776 17.5724 35.776 19.648H37.776ZM27.944 11.736H15.944V13.736H27.944V11.736ZM14.944 12.736V26.56H16.944V12.736H14.944ZM72.641 61.984L72.182 62.8724L72.188 62.8755L72.641 61.984ZM63.713 53.44L64.5822 52.9455L63.713 53.44ZM63.713 26.56L64.5822 27.0545L63.713 26.56ZM72.545 18.016L72.086 17.1275L72.0799 17.1308L72.545 18.016ZM98.561 18.016L98.07 18.8871L98.0793 18.8924L98.0888 18.8975L98.561 18.016ZM106.721 26.08L105.84 26.5531L105.844 26.56L106.721 26.08ZM109.121 44.128V45.128H109.968L110.107 44.2924L109.121 44.128ZM71.105 44.128H70.105V45.128H71.105V44.128ZM71.105 35.392V34.392H70.105V35.392H71.105ZM101.921 35.392L102.278 36.3259L101.921 34.392V35.392ZM94.145 38.368H93.145V39.8214L94.5024 39.3019L94.145 38.368ZM92.033 29.536L91.197 30.0847L91.2029 30.0937L91.209 30.1025L92.033 29.536ZM80.417 27.904L79.8707 27.0664L79.8621 27.072L79.8537 27.0778L80.417 27.904ZM77.153 32.416L76.2167 32.0649L76.2118 32.0778L76.2073 32.0909L77.153 32.416ZM77.345 47.968L76.4227 48.3548L76.4274 48.3656L77.345 47.968ZM80.897 52.192L80.3931 53.0558L80.4068 53.0638L80.4207 53.0713L80.897 52.192ZM92.225 52L91.6787 51.1624L91.6701 51.168L91.6617 51.1738L92.225 52ZM95.489 47.968L95.8031 47.0186L94.9156 46.725L94.5629 47.5907L95.489 47.968ZM108.545 52.288L109.496 52.5976L109.804 51.6513L108.859 51.3386L108.545 52.288ZM103.841 59.296L104.49 60.0568L104.492 60.0553L103.841 59.296ZM95.969 63.52L95.6707 62.5655L95.665 62.5673L95.969 63.52ZM86.465 63.96C81.2773 63.96 76.8309 62.9916 73.094 61.0925L72.188 62.8755C76.2591 64.9445 81.0287 65.96 86.465 65.96V63.96ZM73.1 61.0956C69.4298 59.1993 66.5972 56.4871 64.5822 52.9455L62.8438 53.9345C65.0528 57.8169 68.1722 60.8007 72.182 62.8724L73.1 61.0956ZM64.5822 52.9455C62.5735 49.4151 61.545 45.114 61.545 40H59.545C59.545 45.382 60.6285 50.0409 62.8438 53.9345L64.5822 52.9455ZM61.545 40C61.545 34.886 62.5735 30.5849 64.5822 27.0545L62.8438 26.0655C60.6285 29.9591 59.545 34.618 59.545 40H61.545ZM64.5822 27.0545C66.5997 23.5085 69.4036 20.7962 73.0101 18.9012L72.0799 17.1308C68.1344 19.2038 65.0503 22.1875 62.8438 26.0655L64.5822 27.0545ZM73.004 18.9044C76.6833 17.0034 80.9062 16.04 85.697 16.04V14.04C80.6318 14.04 76.0866 15.0606 72.086 17.1276L73.004 18.9044ZM85.697 16.04C90.6236 16.04 94.733 17.0063 98.07 18.8871L99.052 17.1448C95.349 15.0577 90.8824 14.04 85.697 14.04V16.04ZM98.0888 18.8975C101.506 20.7281 104.081 23.2771 105.84 26.5531L107.602 25.6069C105.649 21.9709 102.784 19.1439 99.0332 17.1345L98.0888 18.8975ZM105.844 26.56C107.608 29.785 108.505 33.5197 108.505 37.792H110.505C110.505 33.2323 109.546 29.159 107.598 25.6L105.844 26.56ZM108.505 37.792C108.505 38.9255 108.474 40.059 108.411 41.1925L110.407 41.3035C110.472 40.133 110.505 38.9625 110.505 37.792H108.505ZM108.411 41.1925C108.348 42.3236 108.254 43.2443 108.135 43.9636L110.107 44.2924C110.244 43.4757 110.342 42.4764 110.407 41.3035L108.411 41.1925ZM109.121 43.128H71.105V45.128H109.121V43.128ZM72.105 44.128V35.392H70.105V44.128H72.105ZM71.105 36.392H101.921V34.392H71.105V36.392ZM101.564 34.4581L93.7876 37.4341L94.5024 39.3019L102.278 36.3259L101.564 34.4581ZM95.145 38.368C95.145 34.4283 94.4265 31.2524 92.857 28.9695L91.209 30.1025C92.4555 31.9156 93.145 34.6277 93.145 38.368H95.145ZM92.869 28.9873C91.3054 26.6047 88.8453 25.464 85.697 25.464V27.464C88.3087 27.464 90.0725 28.3713 91.197 30.0847L92.869 28.9873ZM85.697 25.464C83.4878 25.464 81.5306 25.9838 79.8707 27.0664L80.9633 28.7416C82.2473 27.9042 83.8102 27.464 85.697 27.464V25.464ZM79.8537 27.0778C78.2327 28.1829 77.0366 29.8785 76.2167 32.0649L78.0893 32.7671C78.8054 30.8575 79.7853 29.545 80.9803 28.7302L79.8537 27.0778ZM76.2073 32.0909C75.4546 34.2807 75.097 37.0251 75.097 40.288H77.097C77.097 37.1509 77.4434 34.6473 78.0987 32.7411L76.2073 32.0909ZM75.097 40.288C75.097 43.5011 75.5216 46.2057 76.4228 48.3547L78.2672 47.5813C77.5044 45.7623 77.097 43.3469 77.097 40.288H75.097ZM76.4274 48.3656C77.3287 50.4454 78.6421 52.0344 80.3931 53.0558L81.4009 51.3282C80.0799 50.5576 79.0253 49.3306 78.2626 47.5704L76.4274 48.3656ZM80.4207 53.0713C82.1347 53.9997 84.1629 54.44 86.465 54.44V52.44C84.4151 52.44 82.7313 52.0483 81.3733 51.3127L80.4207 53.0713ZM86.465 54.44C89.0157 54.44 91.1573 53.9383 92.7883 52.8262L91.6617 51.1738C90.4767 51.9817 88.7783 52.44 86.465 52.44V54.44ZM92.7713 52.8376C94.4246 51.7594 95.6393 50.2495 96.4151 48.3453L94.5629 47.5907C93.9307 49.1425 92.9694 50.3206 91.6787 51.1624L92.7713 52.8376ZM95.1749 48.9174L108.231 53.2374L108.859 51.3386L95.8031 47.0186L95.1749 48.9174ZM107.594 51.9784C106.756 54.5523 105.294 56.7338 103.19 58.5367L104.492 60.0553C106.868 58.0182 108.542 55.5277 109.496 52.5976L107.594 51.9784ZM103.192 58.5352C101.131 60.2933 98.6301 61.6407 95.6707 62.5655L96.2673 64.4745C99.4519 63.4793 102.199 62.0107 104.49 60.0568L103.192 58.5352ZM95.665 62.5673C92.7605 63.4943 89.6954 63.96 86.465 63.96V65.96C89.8906 65.96 93.1615 65.4657 96.273 64.4727L95.665 62.5673ZM142.059 28.288L141.317 28.9589L141.334 28.9774L141.352 28.9951L142.059 28.288ZM131.595 27.904L132.166 28.7249L132.173 28.72L131.595 27.904ZM128.523 33.472L128.293 34.4452L129.287 34.6799L129.501 33.6815L128.523 33.472ZM114.699 30.208L113.717 30.0171L113.534 30.9604L114.469 31.1812L114.699 30.208ZM121.803 19.168L122.385 19.9808L121.803 19.168ZM149.931 17.152L149.535 18.0702L149.545 18.0748L149.556 18.0792L149.931 17.152ZM157.515 23.296L156.668 23.8278L156.675 23.8393L156.683 23.8507L157.515 23.296ZM166.347 54.208L167.341 54.3105L167.505 52.7227L166.005 53.2682L166.347 54.208ZM165.387 63.52L165.81 64.4262L166.323 64.1865L166.381 63.6226L165.387 63.52ZM151.755 63.712L151.357 64.6296L151.37 64.6352L151.383 64.6405L151.755 63.712ZM147.243 60.064L146.406 60.6113L146.411 60.6188L146.416 60.6263L147.243 60.064ZM145.611 53.248L145.265 52.3097L144.611 52.5507V53.248H145.611ZM147.435 52.576H148.435V51.1419L147.089 51.6377L147.435 52.576ZM144.939 59.488L144.194 58.8205L144.188 58.8277L144.181 58.8351L144.939 59.488ZM138.603 63.616L138.28 62.6696L138.272 62.6721L138.603 63.616ZM121.995 63.424L122.383 62.5024L121.995 63.424ZM116.331 59.008L115.49 59.5501L115.501 59.566L115.512 59.5815L116.331 59.008ZM117.483 43.168L116.746 42.4923L116.745 42.4932L117.483 43.168ZM127.371 38.368L127.567 39.3486L127.573 39.3474L127.371 38.368ZM145.515 34.624L146.515 34.6351L146.528 33.3937L145.313 33.6446L145.515 34.624ZM145.419 43.264L145.623 44.243L146.41 44.079L146.419 43.2751L145.419 43.264ZM136.203 45.184L136.399 46.1646L136.407 46.163L136.203 45.184ZM131.883 46.912L132.501 47.6983L132.507 47.6929L131.883 46.912ZM132.075 53.344L132.641 52.52L132.075 53.344ZM138.795 53.92L138.496 52.9655L138.487 52.9683L138.479 52.9713L138.795 53.92ZM141.483 52.48L142.123 53.2482L142.141 53.2331L142.158 53.2172L141.483 52.48ZM143.307 49.888L144.223 50.2888L143.307 49.888ZM144.979 33.568C144.979 31.1295 144.276 29.0909 142.766 27.5809L141.352 28.9951C142.402 30.0451 142.979 31.5265 142.979 33.568H144.979ZM142.8 27.6171C141.363 26.0283 139.41 25.272 137.067 25.272V27.272C138.947 27.272 140.323 27.8597 141.317 28.9589L142.8 27.6171ZM137.067 25.272C134.774 25.272 132.742 25.8659 131.017 27.088L132.173 28.72C133.52 27.7661 135.135 27.272 137.067 27.272V25.272ZM131.024 27.0831C129.256 28.3126 128.147 30.4547 127.545 33.2625L129.501 33.6815C130.051 31.1133 130.989 29.5434 132.166 28.7249L131.024 27.0831ZM128.753 32.4988L114.929 29.2348L114.469 31.1812L128.293 34.4452L128.753 32.4988ZM115.68 30.3989C116.527 26.0433 118.751 22.5851 122.385 19.9808L121.22 18.3552C117.174 21.2549 114.662 25.1567 113.717 30.0171L115.68 30.3989ZM122.385 19.9808C125.992 17.396 131.165 16.04 138.027 16.04V14.04C130.937 14.04 125.294 15.4359 121.22 18.3552L122.385 19.9808ZM138.027 16.04C142.603 16.04 146.428 16.7303 149.535 18.0702L150.327 16.2338C146.905 14.7577 142.794 14.04 138.027 14.04V16.04ZM149.556 18.0792C152.711 19.3531 155.063 21.2726 156.668 23.8278L158.362 22.7642C156.51 19.8154 153.807 17.6389 150.305 16.2248L149.556 18.0792ZM156.683 23.8507C158.342 26.3403 159.203 29.464 159.203 33.28H161.203C161.203 29.16 160.271 25.6277 158.347 22.7413L156.683 23.8507ZM159.203 33.28V50.848H161.203V33.28H159.203ZM159.203 50.848C159.203 52.225 159.509 53.4446 160.299 54.3239C161.106 55.2238 162.259 55.592 163.563 55.592V53.592C162.627 53.592 162.099 53.3362 161.787 52.9881C161.456 52.6194 161.203 51.9669 161.203 50.848H159.203ZM163.563 55.592C164.775 55.592 165.833 55.4591 166.688 55.1478L166.005 53.2682C165.453 53.4689 164.654 53.592 163.563 53.592V55.592ZM165.352 54.1055L164.392 63.4174L166.381 63.6226L167.341 54.3105L165.352 54.1055ZM164.964 62.6138C163.21 63.4325 161.027 63.864 158.379 63.864V65.864C161.235 65.864 163.724 65.3995 165.81 64.4262L164.964 62.6138ZM158.379 63.864C155.984 63.864 153.906 63.4956 152.126 62.7835L151.383 64.6405C153.443 65.4644 155.781 65.864 158.379 65.864V63.864ZM152.152 62.7944C150.391 62.0314 149.042 60.9322 148.07 59.5017L146.416 60.6263C147.619 62.3958 149.278 63.7286 151.357 64.6296L152.152 62.7944ZM148.08 59.5168C147.122 58.0525 146.611 56.1752 146.611 53.824H144.611C144.611 56.4648 145.187 58.7475 146.406 60.6113L148.08 59.5168ZM146.611 53.824V53.248H144.611V53.824H146.611ZM145.956 54.1863L147.78 53.5143L147.089 51.6377L145.265 52.3097L145.956 54.1863ZM146.435 52.576C146.435 55.1093 145.676 57.1675 144.194 58.8205L145.683 60.1555C147.529 58.0965 148.435 55.5467 148.435 52.576H146.435ZM144.181 58.8351C142.712 60.5394 140.758 61.8234 138.28 62.6696L138.926 64.5623C141.696 63.6166 143.965 62.1486 145.696 60.1409L144.181 58.8351ZM138.272 62.6721C135.823 63.5296 133.247 63.96 130.539 63.96V65.96C133.463 65.96 136.263 65.4944 138.933 64.5599L138.272 62.6721ZM130.539 63.96C127.377 63.96 124.667 63.464 122.383 62.5024L121.607 64.3456C124.187 65.432 127.172 65.96 130.539 65.96V63.96ZM122.383 62.5024C120.102 61.542 118.373 60.1813 117.15 58.4345L115.512 59.5815C116.977 61.6747 119.024 63.258 121.607 64.3456L122.383 62.5024ZM117.171 58.4659C116.016 56.6758 115.411 54.4422 115.411 51.712H113.411C113.411 54.7418 114.085 57.3722 115.49 59.5501L117.171 58.4659ZM115.411 51.712C115.411 48.4686 116.365 45.8727 118.221 43.8428L116.745 42.4932C114.505 44.9433 113.411 48.0434 113.411 51.712H115.411ZM118.22 43.8437C120.136 41.7535 123.203 40.2214 127.567 39.3486L127.175 37.3874C122.579 38.3066 119.054 39.9745 116.746 42.4923L118.22 43.8437ZM127.573 39.3474L145.717 35.6034L145.313 33.6446L127.169 37.3886L127.573 39.3474ZM144.515 34.6129L144.419 43.2529L146.419 43.2751L146.515 34.6351L144.515 34.6129ZM145.215 42.285L135.999 44.205L136.407 46.163L145.623 44.243L145.215 42.285ZM136.007 44.2034C134.013 44.6021 132.396 45.2211 131.258 46.1311L132.507 47.6929C133.29 47.0669 134.552 46.5339 136.399 46.1646L136.007 44.2034ZM131.265 46.1257C130.06 47.0722 129.539 48.4945 129.539 50.176H131.539C131.539 48.9135 131.913 48.1598 132.501 47.6983L131.265 46.1257ZM129.539 50.176C129.539 51.8624 130.173 53.2504 131.508 54.168L132.641 52.52C131.928 52.0296 131.539 51.3056 131.539 50.176H129.539ZM131.508 54.168C132.721 55.0015 134.14 55.4 135.723 55.4V53.4C134.489 53.4 133.477 53.0945 132.641 52.52L131.508 54.168ZM135.723 55.4C136.91 55.4 138.042 55.2251 139.111 54.8687L138.479 52.9713C137.628 53.2549 136.711 53.4 135.723 53.4V55.4ZM139.093 54.8745C140.233 54.5183 141.247 53.9781 142.123 53.2482L140.843 51.7118C140.182 52.2619 139.405 52.6817 138.496 52.9655L139.093 54.8745ZM142.158 53.2172C143.036 52.4123 143.723 51.431 144.223 50.2888L142.391 49.4872C141.994 50.393 141.465 51.1397 140.807 51.7428L142.158 53.2172ZM144.223 50.2888C144.739 49.1102 144.979 47.7513 144.979 46.24H142.979C142.979 47.5447 142.771 48.6178 142.391 49.4872L144.223 50.2888ZM144.979 46.24V33.568H142.979V46.24H144.979ZM189.537 0.735996H190.537V-0.577988L189.271 -0.227846L189.537 0.735996ZM191.169 51.904L190.484 52.6322L190.506 52.6529L190.529 52.6722L191.169 51.904ZM199.809 52.864L200.092 53.8234L200.109 53.8183L200.126 53.8127L199.809 52.864ZM202.882 51.232L203.867 51.063L203.584 49.4087L202.264 50.4457L202.882 51.232ZM204.609 61.312L205.194 62.1235L205.701 61.7586L205.595 61.143L204.609 61.312ZM198.561 64L198.816 64.9671L198.561 64ZM181.569 63.424L181.206 64.3556L181.214 64.3585L181.569 63.424ZM175.425 58.528L174.579 59.0602L174.584 59.0687L174.59 59.0772L175.425 58.528ZM173.217 49.6H172.217V49.6086L172.218 49.6172L173.217 49.6ZM173.217 5.248L172.951 4.28415L172.217 4.48695V5.248H173.217ZM203.841 16H204.841V15H203.841V16ZM203.841 27.616V28.616H204.841V27.616H203.841ZM164.961 27.616H163.961V28.616H164.961V27.616ZM164.961 16V15H163.961V16H164.961ZM188.537 0.735996V46.912H190.537V0.735996H188.537ZM188.537 46.912C188.537 49.3443 189.109 51.3376 190.484 52.6322L191.855 51.1758C191.054 50.4224 190.537 49.0877 190.537 46.912H188.537ZM190.529 52.6722C191.912 53.8245 193.732 54.344 195.873 54.344V52.344C194.047 52.344 192.731 51.9035 191.81 51.1358L190.529 52.6722ZM195.873 54.344C197.474 54.344 198.886 54.1779 200.092 53.8234L199.527 51.9046C198.557 52.1901 197.345 52.344 195.873 52.344V54.344ZM200.126 53.8127C201.38 53.3947 202.507 52.7979 203.499 52.0183L202.264 50.4457C201.464 51.0741 200.543 51.5653 199.493 51.9153L200.126 53.8127ZM201.896 51.401L203.624 61.481L205.595 61.143L203.867 51.063L201.896 51.401ZM204.025 60.5005C202.548 61.5641 200.652 62.4159 198.307 63.0329L198.816 64.9671C201.335 64.3041 203.471 63.3639 205.194 62.1235L204.025 60.5005ZM198.307 63.0329C195.96 63.6507 193.549 63.96 191.073 63.96V65.96C193.718 65.96 196.299 65.6293 198.816 64.9671L198.307 63.0329ZM191.073 63.96C187.516 63.96 184.474 63.4603 181.925 62.4895L181.214 64.3585C184.041 65.4357 187.335 65.96 191.073 65.96V63.96ZM181.933 62.4924C179.492 61.5398 177.613 60.0363 176.261 57.9788L174.59 59.0772C176.182 61.4997 178.399 63.2602 181.206 64.3556L181.933 62.4924ZM176.272 57.9958C174.993 55.9605 174.279 53.1825 174.217 49.5828L172.218 49.6172C172.284 53.4415 173.042 56.6155 174.579 59.0602L176.272 57.9958ZM174.217 49.6V5.248H172.217V49.6H174.217ZM173.484 6.21184L189.804 1.69984L189.271 -0.227846L172.951 4.28415L173.484 6.21184ZM202.841 16V27.616H204.841V16H202.841ZM203.841 26.616H164.961V28.616H203.841V26.616ZM165.961 27.616V16H163.961V27.616H165.961ZM164.961 17H203.841V15H164.961V17ZM216.66 62.656L216.296 63.5875L216.305 63.5909L216.313 63.5941L216.66 62.656ZM206.484 55.84L205.722 55.1919L205.151 55.8632L205.745 56.5143L206.484 55.84ZM214.164 46.816L214.952 46.2004L214.197 45.2341L213.402 46.1679L214.164 46.816ZM220.5 52L220.027 52.8812L220.04 52.888L220.053 52.8944L220.5 52ZM234.324 53.152L234.734 54.0639H234.734L234.324 53.152ZM235.284 48.352L234.615 49.0953L234.636 49.1147L234.659 49.1329L235.284 48.352ZM231.444 46.912L231.248 47.8926L231.444 46.912ZM224.724 45.568L224.526 46.5482L224.528 46.5486L224.724 45.568ZM211.86 40.192L211.162 40.9082L211.171 40.9173L211.181 40.9261L211.86 40.192ZM210.516 23.2L211.344 23.7599L211.351 23.7496L210.516 23.2ZM217.908 17.344L218.312 18.2585L218.32 18.2553L218.327 18.252L217.908 17.344ZM252.372 23.296L253.122 23.9568L253.68 23.3231L253.149 22.6668L252.372 23.296ZM244.596 32.128L243.815 32.7527L244.559 33.6829L245.346 32.7888L244.596 32.128ZM238.644 27.616L238.235 28.5288L238.644 27.616ZM227.412 26.464L227.654 27.4341L227.674 27.4292L227.694 27.4234L227.412 26.464ZM225.108 27.616L225.815 28.3231L225.108 27.616ZM225.492 31.744L224.852 32.5122L224.886 32.5408L224.923 32.5662L225.492 31.744ZM230.004 33.28L229.802 34.2595L229.81 34.261L230.004 33.28ZM238.74 35.008L238.546 35.989L238.553 35.9905L238.561 35.9919L238.74 35.008ZM250.164 56.896L249.332 56.3413L250.164 56.896ZM242.676 62.848L243.065 63.769L243.073 63.7658L243.08 63.7625L242.676 62.848ZM230.1 63.96C225.408 63.96 221.046 63.2097 217.006 61.7179L216.313 63.5941C220.593 65.1743 225.191 65.96 230.1 65.96V63.96ZM217.024 61.7245C213.056 60.1746 209.796 57.9851 207.222 55.1657L205.745 56.5143C208.547 59.5829 212.072 61.9374 216.296 63.5875L217.024 61.7245ZM207.245 56.4881L214.925 47.4641L213.402 46.1679L205.722 55.1919L207.245 56.4881ZM213.376 47.4316C215.073 49.6039 217.298 51.417 220.027 52.8812L220.973 51.1188C218.453 49.767 216.455 48.1241 214.952 46.2004L213.376 47.4316ZM220.053 52.8944C222.891 54.3137 226.022 55.016 229.428 55.016V53.016C226.305 53.016 223.484 52.3743 220.947 51.1056L220.053 52.8944ZM229.428 55.016C231.499 55.016 233.283 54.7168 234.734 54.0639L233.913 52.2401C232.804 52.7392 231.325 53.016 229.428 53.016V55.016ZM234.734 54.0639C235.492 53.7229 236.13 53.2556 236.577 52.6292C237.031 51.994 237.244 51.2576 237.244 50.464H235.244C235.244 50.8864 235.136 51.206 234.95 51.4668C234.757 51.7364 234.436 52.0051 233.913 52.2401L234.734 54.0639ZM237.244 50.464C237.244 49.2966 236.81 48.2922 235.908 47.5711L234.659 49.1329C235.038 49.4358 235.244 49.8394 235.244 50.464H237.244ZM235.953 47.6087C235.501 47.2025 234.891 46.8848 234.195 46.6237C233.488 46.3586 232.632 46.1299 231.64 45.9314L231.248 47.8926C232.175 48.0781 232.919 48.2814 233.493 48.4963C234.076 48.7152 234.426 48.9255 234.615 49.0953L235.953 47.6087ZM231.64 45.9314L224.92 44.5874L224.528 46.5486L231.248 47.8926L231.64 45.9314ZM224.922 44.5878C218.967 43.3841 214.897 41.6388 212.539 39.4579L211.181 40.9261C213.943 43.4812 218.449 45.3199 224.526 46.5482L224.922 44.5878ZM212.558 39.4758C210.279 37.2555 209.116 34.3579 209.116 30.688H207.116C207.116 34.8261 208.449 38.2645 211.162 40.9082L212.558 39.4758ZM209.116 30.688C209.116 28.2814 209.846 25.9779 211.344 23.7599L209.687 22.6401C207.986 25.1581 207.116 27.8466 207.116 30.688H209.116ZM211.351 23.7496C212.822 21.514 215.116 19.6722 218.312 18.2585L217.503 16.4295C214.043 17.9598 211.41 20.022 209.68 22.6504L211.351 23.7496ZM218.327 18.252C221.481 16.7963 225.581 16.04 230.676 16.04V14.04C225.403 14.04 220.991 14.8197 217.489 16.436L218.327 18.252ZM230.676 16.04C235.445 16.04 239.609 16.7304 243.185 18.087L243.894 16.217C240.047 14.7576 235.635 14.04 230.676 14.04V16.04ZM243.185 18.087C246.757 19.4417 249.545 21.394 251.595 23.9252L253.149 22.6668C250.846 19.822 247.747 17.6783 243.894 16.217L243.185 18.087ZM251.621 22.6352L243.845 31.4672L245.346 32.7888L253.122 23.9568L251.621 22.6352ZM245.377 31.5033C243.733 29.4488 241.617 27.8506 239.052 26.7032L238.235 28.5288C240.534 29.5574 242.387 30.9672 243.815 32.7527L245.377 31.5033ZM239.052 26.7032C236.504 25.5632 233.933 24.984 231.348 24.984V26.984C233.626 26.984 235.919 27.4927 238.235 28.5288L239.052 26.7032ZM231.348 24.984C229.748 24.984 228.335 25.1501 227.13 25.5046L227.694 27.4234C228.664 27.1379 229.876 26.984 231.348 26.984V24.984ZM227.169 25.4939C226.045 25.7749 225.087 26.223 224.401 26.9089L225.815 28.3231C226.153 27.985 226.731 27.6651 227.654 27.4341L227.169 25.4939ZM224.401 26.9089C223.689 27.6207 223.34 28.5206 223.34 29.536H225.34C225.34 29.0154 225.503 28.6353 225.815 28.3231L224.401 26.9089ZM223.34 29.536C223.34 30.725 223.906 31.7245 224.852 32.5122L226.132 30.9758C225.541 30.4835 225.34 30.011 225.34 29.536H223.34ZM224.923 32.5662C225.934 33.2668 227.615 33.8091 229.802 34.2595L230.205 32.3005C228.041 31.8549 226.713 31.3732 226.061 30.9218L224.923 32.5662ZM229.81 34.261L238.546 35.989L238.934 34.027L230.198 32.299L229.81 34.261ZM238.561 35.9919C243.387 36.8693 246.693 38.4404 248.659 40.5806L250.132 39.2274C247.747 36.6316 243.949 34.9387 238.919 34.0241L238.561 35.9919ZM248.659 40.5806C250.659 42.7571 251.66 45.361 251.66 48.448H253.66C253.66 44.879 252.484 41.7869 250.132 39.2274L248.659 40.5806ZM251.66 48.448C251.66 51.396 250.881 54.0173 249.332 56.3413L250.996 57.4507C252.774 54.7827 253.66 51.772 253.66 48.448H251.66ZM249.332 56.3413C247.794 58.6484 245.463 60.5219 242.271 61.9335L243.08 63.7625C246.545 62.2301 249.206 60.1356 250.996 57.4507L249.332 56.3413ZM242.286 61.927C239.12 63.2665 235.072 63.96 230.1 63.96V65.96C235.24 65.96 239.575 65.2455 243.065 63.769L242.286 61.927Z" fill="url(#paint0_linear_241_478)"/>
<defs>
<linearGradient id="paint0_linear_241_478" x1="-7" y1="31" x2="256" y2="31" gradientUnits="userSpaceOnUse">
<stop stop-color="#E8B41C"/>
<stop offset="1" stop-color="#E84E1C" stop-opacity="0"/>
</linearGradient>
</defs>
</svg>
