<svg width="244" height="90" viewBox="0 0 244 90" fill="none" xmlns="http://www.w3.org/2000/svg">
<path opacity="0.5" d="M0.00800037 69H-0.992V70H0.00800037V69ZM0.00800037 5.64V4.64H-0.992V5.64H0.00800037ZM30.824 5.64L30.8322 4.64H30.824V5.64ZM48.104 10.152L47.4826 10.9355L47.491 10.9421L48.104 10.152ZM50.504 32.04L51.2754 32.6764L51.283 32.667L50.504 32.04ZM40.808 36.936L40.6483 35.9488L39.808 36.0848V36.936H40.808ZM40.808 37.032H39.808V37.909L40.6775 38.0235L40.808 37.032ZM51.656 42.12L50.898 42.7722L50.9061 42.7817L50.9145 42.7909L51.656 42.12ZM49.544 64.584L50.1525 65.3776L50.1607 65.3712L49.544 64.584ZM15.944 57.384H14.944V58.384H15.944V57.384ZM36.2 55.56L36.8369 56.331L36.2 55.56ZM36.2 45.192L35.5631 45.963L35.5733 45.9714L35.5837 45.9795L36.2 45.192ZM15.944 43.368V42.368H14.944V43.368H15.944ZM15.944 31.56H14.944V32.56H15.944V31.56ZM15.944 17.736V16.736H14.944V17.736H15.944ZM1.008 69V5.64H-0.992V69H1.008ZM0.00800037 6.64H30.824V4.64H0.00800037V6.64ZM30.8158 6.63996C38.5337 6.70322 44.0265 8.19444 47.4826 10.9355L48.7254 9.3685C44.7575 6.22155 38.7303 4.70477 30.8322 4.64003L30.8158 6.63996ZM47.491 10.9421C50.9153 13.5989 52.672 17.4733 52.672 22.728H54.672C54.672 16.9746 52.7167 12.4651 48.717 9.36191L47.491 10.9421ZM52.672 22.728C52.672 26.0996 51.6844 28.9785 49.725 31.413L51.283 32.667C53.5476 29.8535 54.672 26.5244 54.672 22.728H52.672ZM49.7326 31.4036C47.8199 33.7221 44.8405 35.2707 40.6483 35.9488L40.9677 37.9232C45.4795 37.1933 48.9641 35.4779 51.2754 32.6764L49.7326 31.4036ZM39.808 36.936V37.032H41.808V36.936H39.808ZM40.6775 38.0235C45.3844 38.6428 48.7394 40.2636 50.898 42.7722L52.414 41.4678C49.8366 38.4724 45.9596 36.7012 40.9385 36.0405L40.6775 38.0235ZM50.9145 42.7909C53.1696 45.2835 54.304 48.3039 54.304 51.912H56.304C56.304 47.8401 55.0064 44.3325 52.3975 41.4491L50.9145 42.7909ZM54.304 51.912C54.304 57.085 52.4952 61.0019 48.9273 63.7968L50.1607 65.3712C54.2728 62.1501 56.304 57.619 56.304 51.912H54.304ZM48.9356 63.7904C45.3462 66.5422 39.8443 68 32.264 68V70C40.0437 70 46.0618 68.5138 50.1524 65.3776L48.9356 63.7904ZM32.264 68H0.00800037V70H32.264V68ZM15.944 58.384H29.48V56.384H15.944V58.384ZM29.48 58.384C32.5943 58.384 35.1079 57.7592 36.8369 56.331L35.5631 54.789C34.3481 55.7928 32.3817 56.384 29.48 56.384V58.384ZM36.8369 56.331C38.5866 54.8856 39.408 52.8143 39.408 50.28H37.408C37.408 52.3537 36.7574 53.8024 35.5631 54.789L36.8369 56.331ZM39.408 50.28C39.408 47.8005 38.5795 45.7844 36.8163 44.4045L35.5837 45.9795C36.7645 46.9036 37.408 48.2794 37.408 50.28H39.408ZM36.8369 44.421C35.1079 42.9928 32.5943 42.368 29.48 42.368V44.368C32.3817 44.368 34.3481 44.9592 35.5631 45.963L36.8369 44.421ZM29.48 42.368H15.944V44.368H29.48V42.368ZM14.944 43.368V57.384H16.944V43.368H14.944ZM15.944 32.56H27.944V30.56H15.944V32.56ZM27.944 32.56C30.9911 32.56 33.4606 31.9685 35.1843 30.6195C36.9546 29.234 37.776 27.1804 37.776 24.648H35.776C35.776 26.7236 35.1254 28.126 33.9517 29.0445C32.7314 29.9995 30.7849 30.56 27.944 30.56V32.56ZM37.776 24.648C37.776 22.1156 36.9546 20.062 35.1843 18.6765C33.4606 17.3275 30.9911 16.736 27.944 16.736V18.736C30.7849 18.736 32.7314 19.2965 33.9517 20.2515C35.1254 21.17 35.776 22.5724 35.776 24.648H37.776ZM27.944 16.736H15.944V18.736H27.944V16.736ZM14.944 17.736V31.56H16.944V17.736H14.944ZM79.169 0.647999H80.169V-0.352001H79.169V0.647999ZM80.225 57.192L79.4387 57.8098L80.225 57.192ZM86.177 58.344L85.9809 57.3634L86.177 58.344ZM88.481 57.768L89.4752 57.8752L89.6345 56.3984L88.2063 56.8065L88.481 57.768ZM87.425 67.56L87.9464 68.4133L88.3665 68.1566L88.4192 67.6672L87.425 67.56ZM82.913 69.288L82.6784 68.3159L82.913 69.288ZM66.305 66.408L65.5883 67.1054L66.305 66.408ZM62.849 0.647999V-0.352001H61.849V0.647999H62.849ZM78.169 0.647999V52.68H80.169V0.647999H78.169ZM78.169 52.68C78.169 54.8492 78.5199 56.6405 79.4387 57.8098L81.0113 56.5742C80.5221 55.9515 80.169 54.7348 80.169 52.68H78.169ZM79.4387 57.8098C80.4075 59.0428 81.9529 59.536 83.777 59.536V57.536C82.2731 57.536 81.4505 57.1332 81.0113 56.5742L79.4387 57.8098ZM83.777 59.536C84.7752 59.536 85.6461 59.47 86.3731 59.3246L85.9809 57.3634C85.4279 57.474 84.6988 57.536 83.777 57.536V59.536ZM86.3731 59.3246C87.0481 59.1896 87.8437 58.9901 88.7557 58.7295L88.2063 56.8065C87.3263 57.0579 86.5859 57.2424 85.9809 57.3634L86.3731 59.3246ZM87.4868 57.6608L86.4308 67.4528L88.4192 67.6672L89.4752 57.8752L87.4868 57.6608ZM86.9035 66.7067C85.8688 67.3391 84.4715 67.8831 82.6784 68.3159L83.1476 70.2601C85.0665 69.7969 86.6772 69.1889 87.9464 68.4133L86.9035 66.7067ZM82.6784 68.3159C80.8942 68.7466 79.149 68.96 77.441 68.96V70.96C79.317 70.96 81.2198 70.7254 83.1476 70.2601L82.6784 68.3159ZM77.441 68.96C72.4456 68.96 69.0558 67.8012 67.0217 65.7106L65.5883 67.1054C68.1622 69.7508 72.1964 70.96 77.441 70.96V68.96ZM67.0217 65.7106C64.9847 63.617 63.849 60.063 63.849 54.792H61.849C61.849 60.273 63.0173 64.463 65.5883 67.1054L67.0217 65.7106ZM63.849 54.792V0.647999H61.849V54.792H63.849ZM62.849 1.648H79.169V-0.352001H62.849V1.648ZM129.103 23.016L128.638 23.9012L128.647 23.9059L128.656 23.9104L129.103 23.016ZM138.031 31.56L137.158 32.0482L137.163 32.057L137.169 32.0657L138.031 31.56ZM138.031 58.536L137.165 58.0367L137.162 58.0415L138.031 58.536ZM129.103 67.08L129.557 67.9714L129.562 67.9684L129.103 67.08ZM102.703 67.08L102.244 67.9685L102.256 67.9744L102.703 67.08ZM93.6793 58.536L92.8065 59.0242L92.8114 59.033L92.8166 59.0417L93.6793 58.536ZM93.6793 31.56L92.8128 31.0607L92.8101 31.0655L93.6793 31.56ZM102.703 23.016L103.151 23.9105L103.162 23.9044L102.703 23.016ZM107.983 37.32L107.041 36.9856L107.983 37.32ZM107.983 52.68L107.041 53.0144L107.044 53.0243L107.983 52.68ZM111.055 57L110.474 57.8137L110.487 57.8231L110.501 57.8321L111.055 57ZM120.751 57L121.306 57.8321L121.319 57.8231L121.332 57.8137L120.751 57ZM123.823 52.68L124.762 53.0243L124.766 53.0144L123.823 52.68ZM123.823 37.32L124.766 36.9856L123.823 37.32ZM115.855 21.04C120.779 21.04 125.03 22.0054 128.638 23.9012L129.568 22.1308C125.625 20.0586 121.043 19.04 115.855 19.04V21.04ZM128.656 23.9104C132.315 25.74 135.144 28.4457 137.158 32.0482L138.904 31.0718C136.695 27.1223 133.571 24.132 129.55 22.1216L128.656 23.9104ZM137.169 32.0657C139.237 35.5939 140.295 39.8908 140.295 45H142.295C142.295 39.6132 141.178 34.9501 138.894 31.0543L137.169 32.0657ZM140.295 45C140.295 50.1085 139.237 54.4408 137.165 58.0367L138.898 59.0353C141.177 55.0792 142.295 50.3875 142.295 45H140.295ZM137.162 58.0415C135.147 61.5831 132.314 64.2953 128.644 66.1916L129.562 67.9684C133.572 65.8967 136.691 62.9129 138.9 59.0305L137.162 58.0415ZM128.65 66.1886C125.039 68.0247 120.784 68.96 115.855 68.96V70.96C121.039 70.96 125.615 69.9753 129.557 67.9714L128.65 66.1886ZM115.855 68.96C111.059 68.96 106.832 68.0265 103.15 66.1856L102.256 67.9744C106.254 69.9735 110.795 70.96 115.855 70.96V68.96ZM103.162 66.1916C99.4895 64.294 96.6218 61.5783 94.542 58.0303L92.8166 59.0417C95.0887 62.9177 98.237 65.898 102.244 67.9684L103.162 66.1916ZM94.552 58.0478C92.5395 54.4497 91.5113 50.1133 91.5113 45H89.5113C89.5113 50.3827 90.595 55.0703 92.8065 59.0242L94.552 58.0478ZM91.5113 45C91.5113 39.886 92.5397 35.5849 94.5484 32.0545L92.8101 31.0655C90.5948 34.9591 89.5113 39.618 89.5113 45H91.5113ZM94.5457 32.0593C96.6253 28.4505 99.4887 25.7413 103.15 23.9104L102.256 22.1216C98.2378 24.1307 95.0852 27.1175 92.8128 31.0607L94.5457 32.0593ZM103.162 23.9044C106.842 22.0034 111.064 21.04 115.855 21.04V19.04C110.79 19.04 106.245 20.0606 102.244 22.1276L103.162 23.9044ZM115.855 30.656C113.832 30.656 112.032 31.1468 110.501 32.1679L111.61 33.832C112.766 33.0612 114.166 32.656 115.855 32.656V30.656ZM110.501 32.1679C108.929 33.2155 107.795 34.8599 107.041 36.9856L108.926 37.6544C109.579 35.8121 110.493 34.5765 111.61 33.832L110.501 32.1679ZM107.041 36.9856C106.285 39.1159 105.927 41.8003 105.927 45H107.927C107.927 41.9277 108.274 39.4921 108.926 37.6544L107.041 36.9856ZM105.927 45C105.927 48.1997 106.285 50.8841 107.041 53.0144L108.926 52.3456C108.274 50.5079 107.927 48.0723 107.927 45H105.927ZM107.044 53.0243C107.801 55.0878 108.931 56.7116 110.474 57.8137L111.636 56.1863C110.492 55.3684 109.573 54.1122 108.922 52.3357L107.044 53.0243ZM110.501 57.8321C112.032 58.8532 113.832 59.344 115.855 59.344V57.344C114.166 57.344 112.766 56.9388 111.61 56.1679L110.501 57.8321ZM115.855 59.344C117.935 59.344 119.769 58.8568 121.306 57.8321L120.197 56.1679C119.046 56.9352 117.616 57.344 115.855 57.344V59.344ZM121.332 57.8137C122.876 56.7116 124.005 55.0878 124.762 53.0243L122.884 52.3357C122.233 54.1122 121.315 55.3684 120.17 56.1863L121.332 57.8137ZM124.766 53.0144C125.522 50.8841 125.879 48.1997 125.879 45H123.879C123.879 48.0723 123.533 50.5079 122.881 52.3456L124.766 53.0144ZM125.879 45C125.879 41.8003 125.522 39.1159 124.766 36.9856L122.881 37.6544C123.533 39.4921 123.879 41.9277 123.879 45H125.879ZM124.766 36.9856C124.011 34.8599 122.877 33.2155 121.306 32.1679L120.197 33.832C121.313 34.5765 122.227 35.8121 122.881 37.6544L124.766 36.9856ZM121.306 32.1679C119.769 31.1431 117.935 30.656 115.855 30.656V32.656C117.616 32.656 119.046 33.0648 120.197 33.832L121.306 32.1679ZM194.844 8.136L195.836 8.01411L195.753 7.33244L195.086 7.16586L194.844 8.136ZM196.188 19.08L195.872 20.0287L197.373 20.5292L197.18 18.9581L196.188 19.08ZM195.036 18.888L194.871 19.8744L194.953 19.888H195.036V18.888ZM187.548 20.904L186.841 20.1969L187.548 20.904ZM185.532 25.992L185.187 26.9309L186.532 27.4238V25.992H185.532ZM179.772 23.88H178.772V24.5784L179.427 24.8189L179.772 23.88ZM181.212 16.296L182.142 16.6632V16.6632L181.212 16.296ZM185.628 10.344L185.028 9.544L185.022 9.54859L185.016 9.55328L185.628 10.344ZM191.1 61.896L190.473 62.6752L190.482 62.6827L190.492 62.6899L191.1 61.896ZM192.348 81.768L193.118 82.4063L192.348 81.768ZM183.132 87.624L182.825 86.6723L182.815 86.6753L182.806 86.6785L183.132 87.624ZM150.396 86.376L149.903 87.246L150.396 86.376ZM147.9 71.016L147.292 70.2216L147.9 71.016ZM158.748 68.328L159.718 68.5705L160.037 67.295L158.722 67.3283L158.748 68.328ZM158.364 69.864L158.234 70.8555L159.118 70.9714L159.334 70.1065L158.364 69.864ZM149.628 66.408L148.945 67.1391L149.628 66.408ZM150.396 51.624L149.776 50.8391L150.396 51.624ZM160.092 48.456L160.515 47.5502L160.291 47.4454L160.044 47.4571L160.092 48.456ZM166.044 51.24V52.24L166.467 50.3342L166.044 51.24ZM164.508 51.24V50.24H164.482L164.457 50.2413L164.508 51.24ZM159.228 52.488L159.794 53.312L159.228 52.488ZM159.036 57.576L158.495 58.4172L158.517 58.4313L158.54 58.4442L159.036 57.576ZM176.892 78.408L176.707 77.4251L176.689 77.4285L176.671 77.4326L176.892 78.408ZM181.5 76.68L180.933 75.856L180.916 75.8676L180.9 75.88L181.5 76.68ZM181.98 71.88L182.613 71.106L182.591 71.088L182.568 71.0713L181.98 71.88ZM157.98 72.072L157.34 71.3038L157.323 71.3176L157.307 71.3321L157.98 72.072ZM160.188 77.832L160.545 76.8979L160.533 76.8933L160.521 76.889L160.188 77.832ZM182.364 21.96L182.016 22.8977L182.364 21.96ZM190.236 27.528L189.431 28.1212L189.44 28.1332L189.449 28.1449L190.236 27.528ZM190.236 45.192L189.441 44.5853L189.436 44.592L189.431 44.5988L190.236 45.192ZM182.364 50.76L182.696 51.7033L182.703 51.7006L182.711 51.6977L182.364 50.76ZM152.508 48.36L151.923 49.1711L151.929 49.1755L152.508 48.36ZM149.34 27.528L148.545 26.9213L148.542 26.9246L149.34 27.528ZM157.308 21.96L157.655 22.8977L157.308 21.96ZM164.7 31.176L164.029 30.4345L164.02 30.4426L164.011 30.451L164.7 31.176ZM164.7 41.448L164.011 42.173L164.02 42.1814L164.029 42.1895L164.7 41.448ZM174.972 41.448L175.643 42.1895L174.972 41.448ZM174.972 31.176L175.643 30.4345V30.4345L174.972 31.176ZM193.851 8.25789L195.195 19.2019L197.18 18.9581L195.836 8.01411L193.851 8.25789ZM196.504 18.1313C196.024 17.9712 195.533 17.888 195.036 17.888V19.888C195.307 19.888 195.584 19.9328 195.872 20.0287L196.504 18.1313ZM195.2 17.9016C194.763 17.8287 194.324 17.792 193.884 17.792V19.792C194.212 19.792 194.541 19.8193 194.871 19.8744L195.2 17.9016ZM193.884 17.792C190.914 17.792 188.502 18.5352 186.841 20.1969L188.255 21.6111C189.409 20.4568 191.222 19.792 193.884 19.792V17.792ZM186.841 20.1969C185.294 21.7439 184.532 23.7015 184.532 25.992H186.532C186.532 24.1865 187.114 22.7521 188.255 21.6111L186.841 20.1969ZM185.876 25.0531L180.116 22.9411L179.427 24.8189L185.187 26.9309L185.876 25.0531ZM180.772 23.88C180.772 21.3812 181.228 18.9778 182.142 16.6632L180.282 15.9288C179.275 18.4782 178.772 21.1308 178.772 23.88H180.772ZM182.142 16.6632C183.039 14.391 184.404 12.5559 186.24 11.1347L185.016 9.55328C182.883 11.2041 181.305 13.337 180.282 15.9288L182.142 16.6632ZM186.228 11.144C188.07 9.7622 190.408 9.04 193.308 9.04V7.04C190.064 7.04 187.281 7.85379 185.028 9.544L186.228 11.144ZM193.308 9.04C193.308 9.04 193.309 9.04 193.309 9.04C193.309 9.04 193.31 9.04 193.31 9.04C193.31 9.04 193.311 9.04 193.311 9.04C193.312 9.04 193.312 9.04 193.312 9.04C193.313 9.04 193.313 9.04 193.313 9.04C193.314 9.04 193.314 9.04 193.315 9.04C193.315 9.04 193.315 9.04 193.316 9.04C193.316 9.04 193.316 9.04 193.317 9.04C193.317 9.04 193.318 9.04 193.318 9.04C193.318 9.04 193.319 9.04 193.319 9.04C193.319 9.04 193.32 9.04 193.32 9.04C193.321 9.04 193.321 9.04 193.321 9.04C193.322 9.04 193.322 9.04 193.322 9.04C193.323 9.04 193.323 9.04 193.324 9.04C193.324 9.04 193.324 9.04 193.325 9.04C193.325 9.04 193.325 9.04 193.326 9.04C193.326 9.04 193.327 9.04 193.327 9.04C193.327 9.04 193.328 9.04 193.328 9.04C193.328 9.04 193.329 9.04 193.329 9.04C193.33 9.04 193.33 9.04 193.33 9.04C193.331 9.04 193.331 9.04 193.332 9.04C193.332 9.04 193.332 9.04 193.333 9.04C193.333 9.04 193.333 9.04 193.334 9.04C193.334 9.04 193.335 9.04 193.335 9.04C193.335 9.04 193.336 9.04 193.336 9.04C193.336 9.04 193.337 9.04 193.337 9.04C193.338 9.04 193.338 9.04 193.338 9.04C193.339 9.04 193.339 9.04 193.34 9.04C193.34 9.04 193.34 9.04 193.341 9.04C193.341 9.04 193.341 9.04 193.342 9.04C193.342 9.04 193.343 9.04 193.343 9.04C193.343 9.04 193.344 9.04 193.344 9.04C193.344 9.04 193.345 9.04 193.345 9.04C193.346 9.04 193.346 9.04 193.346 9.04C193.347 9.04 193.347 9.04 193.348 9.04C193.348 9.04 193.348 9.04 193.349 9.04C193.349 9.04 193.349 9.04 193.35 9.04C193.35 9.04 193.351 9.04 193.351 9.04C193.351 9.04 193.352 9.04 193.352 9.04C193.353 9.04 193.353 9.04 193.353 9.04C193.354 9.04 193.354 9.04 193.354 9.04C193.355 9.04 193.355 9.04 193.356 9.04C193.356 9.04 193.356 9.04 193.357 9.04C193.357 9.04 193.358 9.04 193.358 9.04C193.358 9.04 193.359 9.04 193.359 9.04C193.359 9.04 193.36 9.04 193.36 9.04C193.361 9.04 193.361 9.04 193.361 9.04C193.362 9.04 193.362 9.04 193.363 9.04C193.363 9.04 193.363 9.04 193.364 9.04C193.364 9.04 193.365 9.04 193.365 9.04C193.365 9.04 193.366 9.04 193.366 9.04C193.366 9.04 193.367 9.04 193.367 9.04C193.368 9.04 193.368 9.04 193.368 9.04C193.369 9.04 193.369 9.04 193.37 9.04C193.37 9.04 193.37 9.04 193.371 9.04C193.371 9.04 193.372 9.04 193.372 9.04C193.372 9.04 193.373 9.04 193.373 9.04C193.373 9.04 193.374 9.04 193.374 9.04C193.375 9.04 193.375 9.04 193.375 9.04C193.376 9.04 193.376 9.04 193.377 9.04C193.377 9.04 193.377 9.04 193.378 9.04C193.378 9.04 193.379 9.04 193.379 9.04C193.379 9.04 193.38 9.04 193.38 9.04C193.38 9.04 193.381 9.04 193.381 9.04C193.382 9.04 193.382 9.04 193.382 9.04C193.383 9.04 193.383 9.04 193.384 9.04C193.384 9.04 193.384 9.04 193.385 9.04C193.385 9.04 193.386 9.04 193.386 9.04C193.386 9.04 193.387 9.04 193.387 9.04C193.388 9.04 193.388 9.04 193.388 9.04C193.389 9.04 193.389 9.04 193.389 9.04C193.39 9.04 193.39 9.04 193.391 9.04C193.391 9.04 193.391 9.04 193.392 9.04C193.392 9.04 193.393 9.04 193.393 9.04C193.393 9.04 193.394 9.04 193.394 9.04C193.395 9.04 193.395 9.04 193.395 9.04C193.396 9.04 193.396 9.04 193.397 9.04C193.397 9.04 193.397 9.04 193.398 9.04C193.398 9.04 193.399 9.04 193.399 9.04C193.399 9.04 193.4 9.04 193.4 9.04C193.4 9.04 193.401 9.04 193.401 9.04C193.402 9.04 193.402 9.04 193.402 9.04C193.403 9.04 193.403 9.04 193.404 9.04C193.404 9.04 193.404 9.04 193.405 9.04C193.405 9.04 193.406 9.04 193.406 9.04C193.406 9.04 193.407 9.04 193.407 9.04C193.408 9.04 193.408 9.04 193.408 9.04C193.409 9.04 193.409 9.04 193.41 9.04C193.41 9.04 193.41 9.04 193.411 9.04C193.411 9.04 193.412 9.04 193.412 9.04C193.412 9.04 193.413 9.04 193.413 9.04C193.414 9.04 193.414 9.04 193.414 9.04C193.415 9.04 193.415 9.04 193.416 9.04C193.416 9.04 193.416 9.04 193.417 9.04C193.417 9.04 193.418 9.04 193.418 9.04C193.418 9.04 193.419 9.04 193.419 9.04C193.42 9.04 193.42 9.04 193.42 9.04C193.421 9.04 193.421 9.04 193.422 9.04C193.422 9.04 193.422 9.04 193.423 9.04C193.423 9.04 193.424 9.04 193.424 9.04C193.424 9.04 193.425 9.04 193.425 9.04C193.426 9.04 193.426 9.04 193.426 9.04C193.427 9.04 193.427 9.04 193.428 9.04C193.428 9.04 193.428 9.04 193.429 9.04C193.429 9.04 193.43 9.04 193.43 9.04C193.43 9.04 193.431 9.04 193.431 9.04C193.432 9.04 193.432 9.04 193.432 9.04C193.433 9.04 193.433 9.04 193.434 9.04C193.434 9.04 193.434 9.04 193.435 9.04C193.435 9.04 193.436 9.04 193.436 9.04C193.436 9.04 193.437 9.04 193.437 9.04C193.438 9.04 193.438 9.04 193.438 9.04C193.439 9.04 193.439 9.04 193.44 9.04C193.44 9.04 193.44 9.04 193.441 9.04C193.441 9.04 193.442 9.04 193.442 9.04C193.442 9.04 193.443 9.04 193.443 9.04C193.444 9.04 193.444 9.04 193.444 9.04C193.445 9.04 193.445 9.04 193.446 9.04C193.446 9.04 193.446 9.04 193.447 9.04C193.447 9.04 193.448 9.04 193.448 9.04C193.448 9.04 193.449 9.04 193.449 9.04C193.45 9.04 193.45 9.04 193.45 9.04C193.451 9.04 193.451 9.04 193.452 9.04C193.452 9.04 193.452 9.04 193.453 9.04C193.453 9.04 193.454 9.04 193.454 9.04C193.454 9.04 193.455 9.04 193.455 9.04C193.456 9.04 193.456 9.04 193.457 9.04C193.457 9.04 193.457 9.04 193.458 9.04C193.458 9.04 193.459 9.04 193.459 9.04C193.459 9.04 193.46 9.04 193.46 9.04C193.461 9.04 193.461 9.04 193.461 9.04C193.462 9.04 193.462 9.04 193.463 9.04C193.463 9.04 193.463 9.04 193.464 9.04C193.464 9.04 193.465 9.04 193.465 9.04C193.465 9.04 193.466 9.04 193.466 9.04C193.467 9.04 193.467 9.04 193.468 9.04C193.468 9.04 193.468 9.04 193.469 9.04C193.469 9.04 193.47 9.04 193.47 9.04C193.47 9.04 193.471 9.04 193.471 9.04C193.472 9.04 193.472 9.04 193.472 9.04C193.473 9.04 193.473 9.04 193.474 9.04C193.474 9.04 193.474 9.04 193.475 9.04C193.475 9.04 193.476 9.04 193.476 9.04C193.477 9.04 193.477 9.04 193.477 9.04C193.478 9.04 193.478 9.04 193.479 9.04C193.479 9.04 193.479 9.04 193.48 9.04C193.48 9.04 193.481 9.04 193.481 9.04C193.481 9.04 193.482 9.04 193.482 9.04C193.483 9.04 193.483 9.04 193.484 9.04C193.484 9.04 193.484 9.04 193.485 9.04C193.485 9.04 193.486 9.04 193.486 9.04C193.486 9.04 193.487 9.04 193.487 9.04C193.488 9.04 193.488 9.04 193.488 9.04C193.489 9.04 193.489 9.04 193.49 9.04C193.49 9.04 193.491 9.04 193.491 9.04C193.491 9.04 193.492 9.04 193.492 9.04C193.493 9.04 193.493 9.04 193.493 9.04C193.494 9.04 193.494 9.04 193.495 9.04C193.495 9.04 193.495 9.04 193.496 9.04C193.496 9.04 193.497 9.04 193.497 9.04C193.498 9.04 193.498 9.04 193.498 9.04C193.499 9.04 193.499 9.04 193.5 9.04C193.5 9.04 193.5 9.04 193.501 9.04C193.501 9.04 193.502 9.04 193.502 9.04C193.503 9.04 193.503 9.04 193.503 9.04C193.504 9.04 193.504 9.04 193.505 9.04C193.505 9.04 193.505 9.04 193.506 9.04C193.506 9.04 193.507 9.04 193.507 9.04C193.507 9.04 193.508 9.04 193.508 9.04C193.509 9.04 193.509 9.04 193.51 9.04C193.51 9.04 193.51 9.04 193.511 9.04C193.511 9.04 193.512 9.04 193.512 9.04C193.512 9.04 193.513 9.04 193.513 9.04C193.514 9.04 193.514 9.04 193.515 9.04C193.515 9.04 193.515 9.04 193.516 9.04C193.516 9.04 193.517 9.04 193.517 9.04C193.518 9.04 193.518 9.04 193.518 9.04C193.519 9.04 193.519 9.04 193.52 9.04C193.52 9.04 193.52 9.04 193.521 9.04C193.521 9.04 193.522 9.04 193.522 9.04C193.523 9.04 193.523 9.04 193.523 9.04C193.524 9.04 193.524 9.04 193.525 9.04C193.525 9.04 193.525 9.04 193.526 9.04C193.526 9.04 193.527 9.04 193.527 9.04C193.528 9.04 193.528 9.04 193.528 9.04C193.529 9.04 193.529 9.04 193.53 9.04C193.53 9.04 193.531 9.04 193.531 9.04C193.531 9.04 193.532 9.04 193.532 9.04C193.533 9.04 193.533 9.04 193.533 9.04C193.534 9.04 193.534 9.04 193.535 9.04C193.535 9.04 193.536 9.04 193.536 9.04C193.536 9.04 193.537 9.04 193.537 9.04C193.538 9.04 193.538 9.04 193.539 9.04C193.539 9.04 193.539 9.04 193.54 9.04C193.54 9.04 193.541 9.04 193.541 9.04C193.541 9.04 193.542 9.04 193.542 9.04C193.543 9.04 193.543 9.04 193.544 9.04C193.544 9.04 193.544 9.04 193.545 9.04C193.545 9.04 193.546 9.04 193.546 9.04C193.547 9.04 193.547 9.04 193.547 9.04C193.548 9.04 193.548 9.04 193.549 9.04C193.549 9.04 193.55 9.04 193.55 9.04C193.55 9.04 193.551 9.04 193.551 9.04C193.552 9.04 193.552 9.04 193.552 9.04C193.553 9.04 193.553 9.04 193.554 9.04C193.554 9.04 193.555 9.04 193.555 9.04C193.555 9.04 193.556 9.04 193.556 9.04C193.557 9.04 193.557 9.04 193.558 9.04C193.558 9.04 193.558 9.04 193.559 9.04C193.559 9.04 193.56 9.04 193.56 9.04C193.561 9.04 193.561 9.04 193.561 9.04C193.562 9.04 193.562 9.04 193.563 9.04C193.563 9.04 193.564 9.04 193.564 9.04C193.564 9.04 193.565 9.04 193.565 9.04C193.566 9.04 193.566 9.04 193.567 9.04C193.567 9.04 193.567 9.04 193.568 9.04C193.568 9.04 193.569 9.04 193.569 9.04C193.57 9.04 193.57 9.04 193.57 9.04C193.571 9.04 193.571 9.04 193.572 9.04C193.572 9.04 193.573 9.04 193.573 9.04C193.573 9.04 193.574 9.04 193.574 9.04C193.575 9.04 193.575 9.04 193.576 9.04C193.576 9.04 193.576 9.04 193.577 9.04C193.577 9.04 193.578 9.04 193.578 9.04C193.579 9.04 193.579 9.04 193.579 9.04C193.58 9.04 193.58 9.04 193.581 9.04C193.581 9.04 193.582 9.04 193.582 9.04C193.582 9.04 193.583 9.04 193.583 9.04C193.584 9.04 193.584 9.04 193.585 9.04C193.585 9.04 193.585 9.04 193.586 9.04C193.586 9.04 193.587 9.04 193.587 9.04C193.588 9.04 193.588 9.04 193.588 9.04C193.589 9.04 193.589 9.04 193.59 9.04C193.59 9.04 193.591 9.04 193.591 9.04C193.591 9.04 193.592 9.04 193.592 9.04C193.593 9.04 193.593 9.04 193.594 9.04C193.594 9.04 193.595 9.04 193.595 9.04C193.595 9.04 193.596 9.04 193.596 9.04C193.597 9.04 193.597 9.04 193.598 9.04C193.598 9.04 193.598 9.04 193.599 9.04C193.599 9.04 193.6 9.04 193.6 9.04C193.601 9.04 193.601 9.04 193.601 9.04C193.602 9.04 193.602 9.04 193.603 9.04C193.603 9.04 193.604 9.04 193.604 9.04C193.604 9.04 193.605 9.04 193.605 9.04C193.606 9.04 193.606 9.04 193.607 9.04C193.607 9.04 193.608 9.04 193.608 9.04C193.608 9.04 193.609 9.04 193.609 9.04C193.61 9.04 193.61 9.04 193.611 9.04C193.611 9.04 193.611 9.04 193.612 9.04C193.612 9.04 193.613 9.04 193.613 9.04C193.614 9.04 193.614 9.04 193.615 9.04C193.615 9.04 193.615 9.04 193.616 9.04C193.616 9.04 193.617 9.04 193.617 9.04C193.618 9.04 193.618 9.04 193.618 9.04C193.619 9.04 193.619 9.04 193.62 9.04C193.62 9.04 193.621 9.04 193.621 9.04C193.621 9.04 193.622 9.04 193.622 9.04C193.623 9.04 193.623 9.04 193.624 9.04C193.624 9.04 193.625 9.04 193.625 9.04C193.625 9.04 193.626 9.04 193.626 9.04C193.627 9.04 193.627 9.04 193.628 9.04C193.628 9.04 193.629 9.04 193.629 9.04C193.629 9.04 193.63 9.04 193.63 9.04C193.631 9.04 193.631 9.04 193.632 9.04C193.632 9.04 193.632 9.04 193.633 9.04C193.633 9.04 193.634 9.04 193.634 9.04C193.635 9.04 193.635 9.04 193.636 9.04C193.636 9.04 193.636 9.04 193.637 9.04C193.637 9.04 193.638 9.04 193.638 9.04C193.639 9.04 193.639 9.04 193.64 9.04C193.64 9.04 193.64 9.04 193.641 9.04C193.641 9.04 193.642 9.04 193.642 9.04C193.643 9.04 193.643 9.04 193.643 9.04C193.644 9.04 193.644 9.04 193.645 9.04C193.645 9.04 193.646 9.04 193.646 9.04C193.647 9.04 193.647 9.04 193.647 9.04C193.648 9.04 193.648 9.04 193.649 9.04C193.649 9.04 193.65 9.04 193.65 9.04C193.651 9.04 193.651 9.04 193.651 9.04C193.652 9.04 193.652 9.04 193.653 9.04C193.653 9.04 193.654 9.04 193.654 9.04C193.655 9.04 193.655 9.04 193.655 9.04C193.656 9.04 193.656 9.04 193.657 9.04C193.657 9.04 193.658 9.04 193.658 9.04C193.659 9.04 193.659 9.04 193.659 9.04C193.66 9.04 193.66 9.04 193.661 9.04C193.661 9.04 193.662 9.04 193.662 9.04C193.663 9.04 193.663 9.04 193.663 9.04C193.664 9.04 193.664 9.04 193.665 9.04C193.665 9.04 193.666 9.04 193.666 9.04C193.667 9.04 193.667 9.04 193.667 9.04C193.668 9.04 193.668 9.04 193.669 9.04C193.669 9.04 193.67 9.04 193.67 9.04C193.671 9.04 193.671 9.04 193.671 9.04C193.672 9.04 193.672 9.04 193.673 9.04C193.673 9.04 193.674 9.04 193.674 9.04C193.675 9.04 193.675 9.04 193.676 9.04C193.676 9.04 193.676 9.04 193.677 9.04C193.677 9.04 193.678 9.04 193.678 9.04C193.679 9.04 193.679 9.04 193.68 9.04C193.68 9.04 193.68 9.04 193.681 9.04C193.681 9.04 193.682 9.04 193.682 9.04C193.683 9.04 193.683 9.04 193.684 9.04C193.684 9.04 193.684 9.04 193.685 9.04C193.685 9.04 193.686 9.04 193.686 9.04C193.687 9.04 193.687 9.04 193.688 9.04C193.688 9.04 193.689 9.04 193.689 9.04C193.689 9.04 193.69 9.04 193.69 9.04C193.691 9.04 193.691 9.04 193.692 9.04C193.692 9.04 193.693 9.04 193.693 9.04C193.693 9.04 193.694 9.04 193.694 9.04C193.695 9.04 193.695 9.04 193.696 9.04C193.696 9.04 193.697 9.04 193.697 9.04C193.698 9.04 193.698 9.04 193.698 9.04C193.699 9.04 193.699 9.04 193.7 9.04C193.7 9.04 193.701 9.04 193.701 9.04C193.702 9.04 193.702 9.04 193.703 9.04C193.703 9.04 193.703 9.04 193.704 9.04C193.704 9.04 193.705 9.04 193.705 9.04C193.706 9.04 193.706 9.04 193.707 9.04C193.707 9.04 193.708 9.04 193.708 9.04C193.708 9.04 193.709 9.04 193.709 9.04C193.71 9.04 193.71 9.04 193.711 9.04C193.711 9.04 193.712 9.04 193.712 9.04C193.713 9.04 193.713 9.04 193.713 9.04C193.714 9.04 193.714 9.04 193.715 9.04C193.715 9.04 193.716 9.04 193.716 9.04C193.717 9.04 193.717 9.04 193.718 9.04C193.718 9.04 193.718 9.04 193.719 9.04C193.719 9.04 193.72 9.04 193.72 9.04C193.721 9.04 193.721 9.04 193.722 9.04C193.722 9.04 193.723 9.04 193.723 9.04C193.723 9.04 193.724 9.04 193.724 9.04C193.725 9.04 193.725 9.04 193.726 9.04C193.726 9.04 193.727 9.04 193.727 9.04C193.728 9.04 193.728 9.04 193.728 9.04C193.729 9.04 193.729 9.04 193.73 9.04C193.73 9.04 193.731 9.04 193.731 9.04C193.732 9.04 193.732 9.04 193.733 9.04C193.733 9.04 193.733 9.04 193.734 9.04C193.734 9.04 193.735 9.04 193.735 9.04C193.736 9.04 193.736 9.04 193.737 9.04C193.737 9.04 193.738 9.04 193.738 9.04C193.739 9.04 193.739 9.04 193.739 9.04C193.74 9.04 193.74 9.04 193.741 9.04C193.741 9.04 193.742 9.04 193.742 9.04C193.743 9.04 193.743 9.04 193.744 9.04C193.744 9.04 193.745 9.04 193.745 9.04C193.745 9.04 193.746 9.04 193.746 9.04C193.747 9.04 193.747 9.04 193.748 9.04C193.748 9.04 193.749 9.04 193.749 9.04C193.75 9.04 193.75 9.04 193.751 9.04C193.751 9.04 193.751 9.04 193.752 9.04C193.752 9.04 193.753 9.04 193.753 9.04C193.754 9.04 193.754 9.04 193.755 9.04C193.755 9.04 193.756 9.04 193.756 9.04C193.757 9.04 193.757 9.04 193.757 9.04C193.758 9.04 193.758 9.04 193.759 9.04C193.759 9.04 193.76 9.04 193.76 9.04C193.761 9.04 193.761 9.04 193.762 9.04C193.762 9.04 193.763 9.04 193.763 9.04C193.763 9.04 193.764 9.04 193.764 9.04C193.765 9.04 193.765 9.04 193.766 9.04C193.766 9.04 193.767 9.04 193.767 9.04C193.768 9.04 193.768 9.04 193.769 9.04C193.769 9.04 193.769 9.04 193.77 9.04C193.77 9.04 193.771 9.04 193.771 9.04C193.772 9.04 193.772 9.04 193.773 9.04C193.773 9.04 193.774 9.04 193.774 9.04C193.775 9.04 193.775 9.04 193.776 9.04C193.776 9.04 193.776 9.04 193.777 9.04C193.777 9.04 193.778 9.04 193.778 9.04C193.779 9.04 193.779 9.04 193.78 9.04C193.78 9.04 193.781 9.04 193.781 9.04C193.782 9.04 193.782 9.04 193.783 9.04C193.783 9.04 193.783 9.04 193.784 9.04C193.784 9.04 193.785 9.04 193.785 9.04C193.786 9.04 193.786 9.04 193.787 9.04C193.787 9.04 193.788 9.04 193.788 9.04C193.789 9.04 193.789 9.04 193.79 9.04C193.79 9.04 193.79 9.04 193.791 9.04C193.791 9.04 193.792 9.04 193.792 9.04C193.793 9.04 193.793 9.04 193.794 9.04C193.794 9.04 193.795 9.04 193.795 9.04C193.796 9.04 193.796 9.04 193.797 9.04C193.797 9.04 193.798 9.04 193.798 9.04C193.798 9.04 193.799 9.04 193.799 9.04C193.8 9.04 193.8 9.04 193.801 9.04C193.801 9.04 193.802 9.04 193.802 9.04C193.803 9.04 193.803 9.04 193.804 9.04C193.804 9.04 193.805 9.04 193.805 9.04C193.805 9.04 193.806 9.04 193.806 9.04C193.807 9.04 193.807 9.04 193.808 9.04C193.808 9.04 193.809 9.04 193.809 9.04C193.81 9.04 193.81 9.04 193.811 9.04C193.811 9.04 193.812 9.04 193.812 9.04C193.813 9.04 193.813 9.04 193.814 9.04C193.814 9.04 193.814 9.04 193.815 9.04C193.815 9.04 193.816 9.04 193.816 9.04C193.817 9.04 193.817 9.04 193.818 9.04C193.818 9.04 193.819 9.04 193.819 9.04C193.82 9.04 193.82 9.04 193.821 9.04C193.821 9.04 193.822 9.04 193.822 9.04C193.822 9.04 193.823 9.04 193.823 9.04C193.824 9.04 193.824 9.04 193.825 9.04C193.825 9.04 193.826 9.04 193.826 9.04C193.827 9.04 193.827 9.04 193.828 9.04C193.828 9.04 193.829 9.04 193.829 9.04C193.83 9.04 193.83 9.04 193.831 9.04C193.831 9.04 193.831 9.04 193.832 9.04C193.832 9.04 193.833 9.04 193.833 9.04C193.834 9.04 193.834 9.04 193.835 9.04C193.835 9.04 193.836 9.04 193.836 9.04C193.837 9.04 193.837 9.04 193.838 9.04C193.838 9.04 193.839 9.04 193.839 9.04C193.84 9.04 193.84 9.04 193.841 9.04C193.841 9.04 193.842 9.04 193.842 9.04C193.842 9.04 193.843 9.04 193.843 9.04C193.844 9.04 193.844 9.04 193.845 9.04C193.845 9.04 193.846 9.04 193.846 9.04C193.847 9.04 193.847 9.04 193.848 9.04C193.848 9.04 193.849 9.04 193.849 9.04C193.85 9.04 193.85 9.04 193.851 9.04C193.851 9.04 193.852 9.04 193.852 9.04C193.852 9.04 193.853 9.04 193.853 9.04C193.854 9.04 193.854 9.04 193.855 9.04C193.855 9.04 193.856 9.04 193.856 9.04C193.857 9.04 193.857 9.04 193.858 9.04C193.858 9.04 193.859 9.04 193.859 9.04C193.86 9.04 193.86 9.04 193.861 9.04C193.861 9.04 193.862 9.04 193.862 9.04C193.863 9.04 193.863 9.04 193.864 9.04C193.864 9.04 193.864 9.04 193.865 9.04C193.865 9.04 193.866 9.04 193.866 9.04C193.867 9.04 193.867 9.04 193.868 9.04C193.868 9.04 193.869 9.04 193.869 9.04C193.87 9.04 193.87 9.04 193.871 9.04C193.871 9.04 193.872 9.04 193.872 9.04C193.873 9.04 193.873 9.04 193.874 9.04C193.874 9.04 193.875 9.04 193.875 9.04C193.876 9.04 193.876 9.04 193.877 9.04C193.877 9.04 193.878 9.04 193.878 9.04C193.878 9.04 193.879 9.04 193.879 9.04C193.88 9.04 193.88 9.04 193.881 9.04C193.881 9.04 193.882 9.04 193.882 9.04C193.883 9.04 193.883 9.04 193.884 9.04C193.884 9.04 193.885 9.04 193.885 9.04C193.886 9.04 193.886 9.04 193.887 9.04C193.887 9.04 193.888 9.04 193.888 9.04C193.889 9.04 193.889 9.04 193.89 9.04C193.89 9.04 193.891 9.04 193.891 9.04C193.892 9.04 193.892 9.04 193.893 9.04C193.893 9.04 193.893 9.04 193.894 9.04C193.894 9.04 193.895 9.04 193.895 9.04C193.896 9.04 193.896 9.04 193.897 9.04C193.897 9.04 193.898 9.04 193.898 9.04C193.899 9.04 193.899 9.04 193.9 9.04C193.9 9.04 193.901 9.04 193.901 9.04C193.902 9.04 193.902 9.04 193.903 9.04C193.903 9.04 193.904 9.04 193.904 9.04C193.905 9.04 193.905 9.04 193.906 9.04C193.906 9.04 193.907 9.04 193.907 9.04C193.908 9.04 193.908 9.04 193.909 9.04C193.909 9.04 193.91 9.04 193.91 9.04C193.911 9.04 193.911 9.04 193.912 9.04C193.912 9.04 193.912 9.04 193.913 9.04C193.913 9.04 193.914 9.04 193.914 9.04C193.915 9.04 193.915 9.04 193.916 9.04C193.916 9.04 193.917 9.04 193.917 9.04C193.918 9.04 193.918 9.04 193.919 9.04C193.919 9.04 193.92 9.04 193.92 9.04C193.921 9.04 193.921 9.04 193.922 9.04C193.922 9.04 193.923 9.04 193.923 9.04C193.924 9.04 193.924 9.04 193.925 9.04C193.925 9.04 193.926 9.04 193.926 9.04C193.927 9.04 193.927 9.04 193.928 9.04C193.928 9.04 193.929 9.04 193.929 9.04C193.93 9.04 193.93 9.04 193.931 9.04C193.931 9.04 193.932 9.04 193.932 9.04C193.933 9.04 193.933 9.04 193.934 9.04C193.934 9.04 193.935 9.04 193.935 9.04C193.936 9.04 193.936 9.04 193.937 9.04C193.937 9.04 193.938 9.04 193.938 9.04C193.939 9.04 193.939 9.04 193.94 9.04C193.94 9.04 193.94 9.04 193.941 9.04C193.941 9.04 193.942 9.04 193.942 9.04C193.943 9.04 193.943 9.04 193.944 9.04C193.944 9.04 193.945 9.04 193.945 9.04C193.946 9.04 193.946 9.04 193.947 9.04C193.947 9.04 193.948 9.04 193.948 9.04C193.949 9.04 193.949 9.04 193.95 9.04C193.95 9.04 193.951 9.04 193.951 9.04C193.952 9.04 193.952 9.04 193.953 9.04C193.953 9.04 193.954 9.04 193.954 9.04C193.955 9.04 193.955 9.04 193.956 9.04C193.956 9.04 193.957 9.04 193.957 9.04C193.958 9.04 193.958 9.04 193.959 9.04C193.959 9.04 193.96 9.04 193.96 9.04C193.961 9.04 193.961 9.04 193.962 9.04C193.962 9.04 193.963 9.04 193.963 9.04C193.964 9.04 193.964 9.04 193.965 9.04C193.965 9.04 193.966 9.04 193.966 9.04C193.967 9.04 193.967 9.04 193.968 9.04C193.968 9.04 193.969 9.04 193.969 9.04C193.97 9.04 193.97 9.04 193.971 9.04C193.971 9.04 193.972 9.04 193.972 9.04C193.973 9.04 193.973 9.04 193.974 9.04C193.974 9.04 193.975 9.04 193.975 9.04C193.976 9.04 193.976 9.04 193.977 9.04C193.977 9.04 193.978 9.04 193.978 9.04C193.979 9.04 193.979 9.04 193.98 9.04V7.04C193.979 7.04 193.979 7.04 193.978 7.04C193.978 7.04 193.977 7.04 193.977 7.04C193.976 7.04 193.976 7.04 193.975 7.04C193.975 7.04 193.974 7.04 193.974 7.04C193.973 7.04 193.973 7.04 193.972 7.04C193.972 7.04 193.971 7.04 193.971 7.04C193.97 7.04 193.97 7.04 193.969 7.04C193.969 7.04 193.968 7.04 193.968 7.04C193.967 7.04 193.967 7.04 193.966 7.04C193.966 7.04 193.965 7.04 193.965 7.04C193.964 7.04 193.964 7.04 193.963 7.04C193.963 7.04 193.962 7.04 193.962 7.04C193.961 7.04 193.961 7.04 193.96 7.04C193.96 7.04 193.959 7.04 193.959 7.04C193.958 7.04 193.958 7.04 193.957 7.04C193.957 7.04 193.956 7.04 193.956 7.04C193.955 7.04 193.955 7.04 193.954 7.04C193.954 7.04 193.953 7.04 193.953 7.04C193.952 7.04 193.952 7.04 193.951 7.04C193.951 7.04 193.95 7.04 193.95 7.04C193.949 7.04 193.949 7.04 193.948 7.04C193.948 7.04 193.947 7.04 193.947 7.04C193.946 7.04 193.946 7.04 193.945 7.04C193.945 7.04 193.944 7.04 193.944 7.04C193.943 7.04 193.943 7.04 193.942 7.04C193.942 7.04 193.941 7.04 193.941 7.04C193.94 7.04 193.94 7.04 193.94 7.04C193.939 7.04 193.939 7.04 193.938 7.04C193.938 7.04 193.937 7.04 193.937 7.04C193.936 7.04 193.936 7.04 193.935 7.04C193.935 7.04 193.934 7.04 193.934 7.04C193.933 7.04 193.933 7.04 193.932 7.04C193.932 7.04 193.931 7.04 193.931 7.04C193.93 7.04 193.93 7.04 193.929 7.04C193.929 7.04 193.928 7.04 193.928 7.04C193.927 7.04 193.927 7.04 193.926 7.04C193.926 7.04 193.925 7.04 193.925 7.04C193.924 7.04 193.924 7.04 193.923 7.04C193.923 7.04 193.922 7.04 193.922 7.04C193.921 7.04 193.921 7.04 193.92 7.04C193.92 7.04 193.919 7.04 193.919 7.04C193.918 7.04 193.918 7.04 193.917 7.04C193.917 7.04 193.916 7.04 193.916 7.04C193.915 7.04 193.915 7.04 193.914 7.04C193.914 7.04 193.913 7.04 193.913 7.04C193.912 7.04 193.912 7.04 193.912 7.04C193.911 7.04 193.911 7.04 193.91 7.04C193.91 7.04 193.909 7.04 193.909 7.04C193.908 7.04 193.908 7.04 193.907 7.04C193.907 7.04 193.906 7.04 193.906 7.04C193.905 7.04 193.905 7.04 193.904 7.04C193.904 7.04 193.903 7.04 193.903 7.04C193.902 7.04 193.902 7.04 193.901 7.04C193.901 7.04 193.9 7.04 193.9 7.04C193.899 7.04 193.899 7.04 193.898 7.04C193.898 7.04 193.897 7.04 193.897 7.04C193.896 7.04 193.896 7.04 193.895 7.04C193.895 7.04 193.894 7.04 193.894 7.04C193.893 7.04 193.893 7.04 193.893 7.04C193.892 7.04 193.892 7.04 193.891 7.04C193.891 7.04 193.89 7.04 193.89 7.04C193.889 7.04 193.889 7.04 193.888 7.04C193.888 7.04 193.887 7.04 193.887 7.04C193.886 7.04 193.886 7.04 193.885 7.04C193.885 7.04 193.884 7.04 193.884 7.04C193.883 7.04 193.883 7.04 193.882 7.04C193.882 7.04 193.881 7.04 193.881 7.04C193.88 7.04 193.88 7.04 193.879 7.04C193.879 7.04 193.878 7.04 193.878 7.04C193.878 7.04 193.877 7.04 193.877 7.04C193.876 7.04 193.876 7.04 193.875 7.04C193.875 7.04 193.874 7.04 193.874 7.04C193.873 7.04 193.873 7.04 193.872 7.04C193.872 7.04 193.871 7.04 193.871 7.04C193.87 7.04 193.87 7.04 193.869 7.04C193.869 7.04 193.868 7.04 193.868 7.04C193.867 7.04 193.867 7.04 193.866 7.04C193.866 7.04 193.865 7.04 193.865 7.04C193.864 7.04 193.864 7.04 193.864 7.04C193.863 7.04 193.863 7.04 193.862 7.04C193.862 7.04 193.861 7.04 193.861 7.04C193.86 7.04 193.86 7.04 193.859 7.04C193.859 7.04 193.858 7.04 193.858 7.04C193.857 7.04 193.857 7.04 193.856 7.04C193.856 7.04 193.855 7.04 193.855 7.04C193.854 7.04 193.854 7.04 193.853 7.04C193.853 7.04 193.852 7.04 193.852 7.04C193.852 7.04 193.851 7.04 193.851 7.04C193.85 7.04 193.85 7.04 193.849 7.04C193.849 7.04 193.848 7.04 193.848 7.04C193.847 7.04 193.847 7.04 193.846 7.04C193.846 7.04 193.845 7.04 193.845 7.04C193.844 7.04 193.844 7.04 193.843 7.04C193.843 7.04 193.842 7.04 193.842 7.04C193.842 7.04 193.841 7.04 193.841 7.04C193.84 7.04 193.84 7.04 193.839 7.04C193.839 7.04 193.838 7.04 193.838 7.04C193.837 7.04 193.837 7.04 193.836 7.04C193.836 7.04 193.835 7.04 193.835 7.04C193.834 7.04 193.834 7.04 193.833 7.04C193.833 7.04 193.832 7.04 193.832 7.04C193.831 7.04 193.831 7.04 193.831 7.04C193.83 7.04 193.83 7.04 193.829 7.04C193.829 7.04 193.828 7.04 193.828 7.04C193.827 7.04 193.827 7.04 193.826 7.04C193.826 7.04 193.825 7.04 193.825 7.04C193.824 7.04 193.824 7.04 193.823 7.04C193.823 7.04 193.822 7.04 193.822 7.04C193.822 7.04 193.821 7.04 193.821 7.04C193.82 7.04 193.82 7.04 193.819 7.04C193.819 7.04 193.818 7.04 193.818 7.04C193.817 7.04 193.817 7.04 193.816 7.04C193.816 7.04 193.815 7.04 193.815 7.04C193.814 7.04 193.814 7.04 193.814 7.04C193.813 7.04 193.813 7.04 193.812 7.04C193.812 7.04 193.811 7.04 193.811 7.04C193.81 7.04 193.81 7.04 193.809 7.04C193.809 7.04 193.808 7.04 193.808 7.04C193.807 7.04 193.807 7.04 193.806 7.04C193.806 7.04 193.805 7.04 193.805 7.04C193.805 7.04 193.804 7.04 193.804 7.04C193.803 7.04 193.803 7.04 193.802 7.04C193.802 7.04 193.801 7.04 193.801 7.04C193.8 7.04 193.8 7.04 193.799 7.04C193.799 7.04 193.798 7.04 193.798 7.04C193.798 7.04 193.797 7.04 193.797 7.04C193.796 7.04 193.796 7.04 193.795 7.04C193.795 7.04 193.794 7.04 193.794 7.04C193.793 7.04 193.793 7.04 193.792 7.04C193.792 7.04 193.791 7.04 193.791 7.04C193.79 7.04 193.79 7.04 193.79 7.04C193.789 7.04 193.789 7.04 193.788 7.04C193.788 7.04 193.787 7.04 193.787 7.04C193.786 7.04 193.786 7.04 193.785 7.04C193.785 7.04 193.784 7.04 193.784 7.04C193.783 7.04 193.783 7.04 193.783 7.04C193.782 7.04 193.782 7.04 193.781 7.04C193.781 7.04 193.78 7.04 193.78 7.04C193.779 7.04 193.779 7.04 193.778 7.04C193.778 7.04 193.777 7.04 193.777 7.04C193.776 7.04 193.776 7.04 193.776 7.04C193.775 7.04 193.775 7.04 193.774 7.04C193.774 7.04 193.773 7.04 193.773 7.04C193.772 7.04 193.772 7.04 193.771 7.04C193.771 7.04 193.77 7.04 193.77 7.04C193.769 7.04 193.769 7.04 193.769 7.04C193.768 7.04 193.768 7.04 193.767 7.04C193.767 7.04 193.766 7.04 193.766 7.04C193.765 7.04 193.765 7.04 193.764 7.04C193.764 7.04 193.763 7.04 193.763 7.04C193.763 7.04 193.762 7.04 193.762 7.04C193.761 7.04 193.761 7.04 193.76 7.04C193.76 7.04 193.759 7.04 193.759 7.04C193.758 7.04 193.758 7.04 193.757 7.04C193.757 7.04 193.757 7.04 193.756 7.04C193.756 7.04 193.755 7.04 193.755 7.04C193.754 7.04 193.754 7.04 193.753 7.04C193.753 7.04 193.752 7.04 193.752 7.04C193.751 7.04 193.751 7.04 193.751 7.04C193.75 7.04 193.75 7.04 193.749 7.04C193.749 7.04 193.748 7.04 193.748 7.04C193.747 7.04 193.747 7.04 193.746 7.04C193.746 7.04 193.745 7.04 193.745 7.04C193.745 7.04 193.744 7.04 193.744 7.04C193.743 7.04 193.743 7.04 193.742 7.04C193.742 7.04 193.741 7.04 193.741 7.04C193.74 7.04 193.74 7.04 193.739 7.04C193.739 7.04 193.739 7.04 193.738 7.04C193.738 7.04 193.737 7.04 193.737 7.04C193.736 7.04 193.736 7.04 193.735 7.04C193.735 7.04 193.734 7.04 193.734 7.04C193.733 7.04 193.733 7.04 193.733 7.04C193.732 7.04 193.732 7.04 193.731 7.04C193.731 7.04 193.73 7.04 193.73 7.04C193.729 7.04 193.729 7.04 193.728 7.04C193.728 7.04 193.728 7.04 193.727 7.04C193.727 7.04 193.726 7.04 193.726 7.04C193.725 7.04 193.725 7.04 193.724 7.04C193.724 7.04 193.723 7.04 193.723 7.04C193.723 7.04 193.722 7.04 193.722 7.04C193.721 7.04 193.721 7.04 193.72 7.04C193.72 7.04 193.719 7.04 193.719 7.04C193.718 7.04 193.718 7.04 193.718 7.04C193.717 7.04 193.717 7.04 193.716 7.04C193.716 7.04 193.715 7.04 193.715 7.04C193.714 7.04 193.714 7.04 193.713 7.04C193.713 7.04 193.713 7.04 193.712 7.04C193.712 7.04 193.711 7.04 193.711 7.04C193.71 7.04 193.71 7.04 193.709 7.04C193.709 7.04 193.708 7.04 193.708 7.04C193.708 7.04 193.707 7.04 193.707 7.04C193.706 7.04 193.706 7.04 193.705 7.04C193.705 7.04 193.704 7.04 193.704 7.04C193.703 7.04 193.703 7.04 193.703 7.04C193.702 7.04 193.702 7.04 193.701 7.04C193.701 7.04 193.7 7.04 193.7 7.04C193.699 7.04 193.699 7.04 193.698 7.04C193.698 7.04 193.698 7.04 193.697 7.04C193.697 7.04 193.696 7.04 193.696 7.04C193.695 7.04 193.695 7.04 193.694 7.04C193.694 7.04 193.693 7.04 193.693 7.04C193.693 7.04 193.692 7.04 193.692 7.04C193.691 7.04 193.691 7.04 193.69 7.04C193.69 7.04 193.689 7.04 193.689 7.04C193.689 7.04 193.688 7.04 193.688 7.04C193.687 7.04 193.687 7.04 193.686 7.04C193.686 7.04 193.685 7.04 193.685 7.04C193.684 7.04 193.684 7.04 193.684 7.04C193.683 7.04 193.683 7.04 193.682 7.04C193.682 7.04 193.681 7.04 193.681 7.04C193.68 7.04 193.68 7.04 193.68 7.04C193.679 7.04 193.679 7.04 193.678 7.04C193.678 7.04 193.677 7.04 193.677 7.04C193.676 7.04 193.676 7.04 193.676 7.04C193.675 7.04 193.675 7.04 193.674 7.04C193.674 7.04 193.673 7.04 193.673 7.04C193.672 7.04 193.672 7.04 193.671 7.04C193.671 7.04 193.671 7.04 193.67 7.04C193.67 7.04 193.669 7.04 193.669 7.04C193.668 7.04 193.668 7.04 193.667 7.04C193.667 7.04 193.667 7.04 193.666 7.04C193.666 7.04 193.665 7.04 193.665 7.04C193.664 7.04 193.664 7.04 193.663 7.04C193.663 7.04 193.663 7.04 193.662 7.04C193.662 7.04 193.661 7.04 193.661 7.04C193.66 7.04 193.66 7.04 193.659 7.04C193.659 7.04 193.659 7.04 193.658 7.04C193.658 7.04 193.657 7.04 193.657 7.04C193.656 7.04 193.656 7.04 193.655 7.04C193.655 7.04 193.655 7.04 193.654 7.04C193.654 7.04 193.653 7.04 193.653 7.04C193.652 7.04 193.652 7.04 193.651 7.04C193.651 7.04 193.651 7.04 193.65 7.04C193.65 7.04 193.649 7.04 193.649 7.04C193.648 7.04 193.648 7.04 193.647 7.04C193.647 7.04 193.647 7.04 193.646 7.04C193.646 7.04 193.645 7.04 193.645 7.04C193.644 7.04 193.644 7.04 193.643 7.04C193.643 7.04 193.643 7.04 193.642 7.04C193.642 7.04 193.641 7.04 193.641 7.04C193.64 7.04 193.64 7.04 193.64 7.04C193.639 7.04 193.639 7.04 193.638 7.04C193.638 7.04 193.637 7.04 193.637 7.04C193.636 7.04 193.636 7.04 193.636 7.04C193.635 7.04 193.635 7.04 193.634 7.04C193.634 7.04 193.633 7.04 193.633 7.04C193.632 7.04 193.632 7.04 193.632 7.04C193.631 7.04 193.631 7.04 193.63 7.04C193.63 7.04 193.629 7.04 193.629 7.04C193.629 7.04 193.628 7.04 193.628 7.04C193.627 7.04 193.627 7.04 193.626 7.04C193.626 7.04 193.625 7.04 193.625 7.04C193.625 7.04 193.624 7.04 193.624 7.04C193.623 7.04 193.623 7.04 193.622 7.04C193.622 7.04 193.621 7.04 193.621 7.04C193.621 7.04 193.62 7.04 193.62 7.04C193.619 7.04 193.619 7.04 193.618 7.04C193.618 7.04 193.618 7.04 193.617 7.04C193.617 7.04 193.616 7.04 193.616 7.04C193.615 7.04 193.615 7.04 193.615 7.04C193.614 7.04 193.614 7.04 193.613 7.04C193.613 7.04 193.612 7.04 193.612 7.04C193.611 7.04 193.611 7.04 193.611 7.04C193.61 7.04 193.61 7.04 193.609 7.04C193.609 7.04 193.608 7.04 193.608 7.04C193.608 7.04 193.607 7.04 193.607 7.04C193.606 7.04 193.606 7.04 193.605 7.04C193.605 7.04 193.604 7.04 193.604 7.04C193.604 7.04 193.603 7.04 193.603 7.04C193.602 7.04 193.602 7.04 193.601 7.04C193.601 7.04 193.601 7.04 193.6 7.04C193.6 7.04 193.599 7.04 193.599 7.04C193.598 7.04 193.598 7.04 193.598 7.04C193.597 7.04 193.597 7.04 193.596 7.04C193.596 7.04 193.595 7.04 193.595 7.04C193.595 7.04 193.594 7.04 193.594 7.04C193.593 7.04 193.593 7.04 193.592 7.04C193.592 7.04 193.591 7.04 193.591 7.04C193.591 7.04 193.59 7.04 193.59 7.04C193.589 7.04 193.589 7.04 193.588 7.04C193.588 7.04 193.588 7.04 193.587 7.04C193.587 7.04 193.586 7.04 193.586 7.04C193.585 7.04 193.585 7.04 193.585 7.04C193.584 7.04 193.584 7.04 193.583 7.04C193.583 7.04 193.582 7.04 193.582 7.04C193.582 7.04 193.581 7.04 193.581 7.04C193.58 7.04 193.58 7.04 193.579 7.04C193.579 7.04 193.579 7.04 193.578 7.04C193.578 7.04 193.577 7.04 193.577 7.04C193.576 7.04 193.576 7.04 193.576 7.04C193.575 7.04 193.575 7.04 193.574 7.04C193.574 7.04 193.573 7.04 193.573 7.04C193.573 7.04 193.572 7.04 193.572 7.04C193.571 7.04 193.571 7.04 193.57 7.04C193.57 7.04 193.57 7.04 193.569 7.04C193.569 7.04 193.568 7.04 193.568 7.04C193.567 7.04 193.567 7.04 193.567 7.04C193.566 7.04 193.566 7.04 193.565 7.04C193.565 7.04 193.564 7.04 193.564 7.04C193.564 7.04 193.563 7.04 193.563 7.04C193.562 7.04 193.562 7.04 193.561 7.04C193.561 7.04 193.561 7.04 193.56 7.04C193.56 7.04 193.559 7.04 193.559 7.04C193.558 7.04 193.558 7.04 193.558 7.04C193.557 7.04 193.557 7.04 193.556 7.04C193.556 7.04 193.555 7.04 193.555 7.04C193.555 7.04 193.554 7.04 193.554 7.04C193.553 7.04 193.553 7.04 193.552 7.04C193.552 7.04 193.552 7.04 193.551 7.04C193.551 7.04 193.55 7.04 193.55 7.04C193.55 7.04 193.549 7.04 193.549 7.04C193.548 7.04 193.548 7.04 193.547 7.04C193.547 7.04 193.547 7.04 193.546 7.04C193.546 7.04 193.545 7.04 193.545 7.04C193.544 7.04 193.544 7.04 193.544 7.04C193.543 7.04 193.543 7.04 193.542 7.04C193.542 7.04 193.541 7.04 193.541 7.04C193.541 7.04 193.54 7.04 193.54 7.04C193.539 7.04 193.539 7.04 193.539 7.04C193.538 7.04 193.538 7.04 193.537 7.04C193.537 7.04 193.536 7.04 193.536 7.04C193.536 7.04 193.535 7.04 193.535 7.04C193.534 7.04 193.534 7.04 193.533 7.04C193.533 7.04 193.533 7.04 193.532 7.04C193.532 7.04 193.531 7.04 193.531 7.04C193.531 7.04 193.53 7.04 193.53 7.04C193.529 7.04 193.529 7.04 193.528 7.04C193.528 7.04 193.528 7.04 193.527 7.04C193.527 7.04 193.526 7.04 193.526 7.04C193.525 7.04 193.525 7.04 193.525 7.04C193.524 7.04 193.524 7.04 193.523 7.04C193.523 7.04 193.523 7.04 193.522 7.04C193.522 7.04 193.521 7.04 193.521 7.04C193.52 7.04 193.52 7.04 193.52 7.04C193.519 7.04 193.519 7.04 193.518 7.04C193.518 7.04 193.518 7.04 193.517 7.04C193.517 7.04 193.516 7.04 193.516 7.04C193.515 7.04 193.515 7.04 193.515 7.04C193.514 7.04 193.514 7.04 193.513 7.04C193.513 7.04 193.512 7.04 193.512 7.04C193.512 7.04 193.511 7.04 193.511 7.04C193.51 7.04 193.51 7.04 193.51 7.04C193.509 7.04 193.509 7.04 193.508 7.04C193.508 7.04 193.507 7.04 193.507 7.04C193.507 7.04 193.506 7.04 193.506 7.04C193.505 7.04 193.505 7.04 193.505 7.04C193.504 7.04 193.504 7.04 193.503 7.04C193.503 7.04 193.503 7.04 193.502 7.04C193.502 7.04 193.501 7.04 193.501 7.04C193.5 7.04 193.5 7.04 193.5 7.04C193.499 7.04 193.499 7.04 193.498 7.04C193.498 7.04 193.498 7.04 193.497 7.04C193.497 7.04 193.496 7.04 193.496 7.04C193.495 7.04 193.495 7.04 193.495 7.04C193.494 7.04 193.494 7.04 193.493 7.04C193.493 7.04 193.493 7.04 193.492 7.04C193.492 7.04 193.491 7.04 193.491 7.04C193.491 7.04 193.49 7.04 193.49 7.04C193.489 7.04 193.489 7.04 193.488 7.04C193.488 7.04 193.488 7.04 193.487 7.04C193.487 7.04 193.486 7.04 193.486 7.04C193.486 7.04 193.485 7.04 193.485 7.04C193.484 7.04 193.484 7.04 193.484 7.04C193.483 7.04 193.483 7.04 193.482 7.04C193.482 7.04 193.481 7.04 193.481 7.04C193.481 7.04 193.48 7.04 193.48 7.04C193.479 7.04 193.479 7.04 193.479 7.04C193.478 7.04 193.478 7.04 193.477 7.04C193.477 7.04 193.477 7.04 193.476 7.04C193.476 7.04 193.475 7.04 193.475 7.04C193.474 7.04 193.474 7.04 193.474 7.04C193.473 7.04 193.473 7.04 193.472 7.04C193.472 7.04 193.472 7.04 193.471 7.04C193.471 7.04 193.47 7.04 193.47 7.04C193.47 7.04 193.469 7.04 193.469 7.04C193.468 7.04 193.468 7.04 193.468 7.04C193.467 7.04 193.467 7.04 193.466 7.04C193.466 7.04 193.465 7.04 193.465 7.04C193.465 7.04 193.464 7.04 193.464 7.04C193.463 7.04 193.463 7.04 193.463 7.04C193.462 7.04 193.462 7.04 193.461 7.04C193.461 7.04 193.461 7.04 193.46 7.04C193.46 7.04 193.459 7.04 193.459 7.04C193.459 7.04 193.458 7.04 193.458 7.04C193.457 7.04 193.457 7.04 193.457 7.04C193.456 7.04 193.456 7.04 193.455 7.04C193.455 7.04 193.454 7.04 193.454 7.04C193.454 7.04 193.453 7.04 193.453 7.04C193.452 7.04 193.452 7.04 193.452 7.04C193.451 7.04 193.451 7.04 193.45 7.04C193.45 7.04 193.45 7.04 193.449 7.04C193.449 7.04 193.448 7.04 193.448 7.04C193.448 7.04 193.447 7.04 193.447 7.04C193.446 7.04 193.446 7.04 193.446 7.04C193.445 7.04 193.445 7.04 193.444 7.04C193.444 7.04 193.444 7.04 193.443 7.04C193.443 7.04 193.442 7.04 193.442 7.04C193.442 7.04 193.441 7.04 193.441 7.04C193.44 7.04 193.44 7.04 193.44 7.04C193.439 7.04 193.439 7.04 193.438 7.04C193.438 7.04 193.438 7.04 193.437 7.04C193.437 7.04 193.436 7.04 193.436 7.04C193.436 7.04 193.435 7.04 193.435 7.04C193.434 7.04 193.434 7.04 193.434 7.04C193.433 7.04 193.433 7.04 193.432 7.04C193.432 7.04 193.432 7.04 193.431 7.04C193.431 7.04 193.43 7.04 193.43 7.04C193.43 7.04 193.429 7.04 193.429 7.04C193.428 7.04 193.428 7.04 193.428 7.04C193.427 7.04 193.427 7.04 193.426 7.04C193.426 7.04 193.426 7.04 193.425 7.04C193.425 7.04 193.424 7.04 193.424 7.04C193.424 7.04 193.423 7.04 193.423 7.04C193.422 7.04 193.422 7.04 193.422 7.04C193.421 7.04 193.421 7.04 193.42 7.04C193.42 7.04 193.42 7.04 193.419 7.04C193.419 7.04 193.418 7.04 193.418 7.04C193.418 7.04 193.417 7.04 193.417 7.04C193.416 7.04 193.416 7.04 193.416 7.04C193.415 7.04 193.415 7.04 193.414 7.04C193.414 7.04 193.414 7.04 193.413 7.04C193.413 7.04 193.412 7.04 193.412 7.04C193.412 7.04 193.411 7.04 193.411 7.04C193.41 7.04 193.41 7.04 193.41 7.04C193.409 7.04 193.409 7.04 193.408 7.04C193.408 7.04 193.408 7.04 193.407 7.04C193.407 7.04 193.406 7.04 193.406 7.04C193.406 7.04 193.405 7.04 193.405 7.04C193.404 7.04 193.404 7.04 193.404 7.04C193.403 7.04 193.403 7.04 193.402 7.04C193.402 7.04 193.402 7.04 193.401 7.04C193.401 7.04 193.4 7.04 193.4 7.04C193.4 7.04 193.399 7.04 193.399 7.04C193.399 7.04 193.398 7.04 193.398 7.04C193.397 7.04 193.397 7.04 193.397 7.04C193.396 7.04 193.396 7.04 193.395 7.04C193.395 7.04 193.395 7.04 193.394 7.04C193.394 7.04 193.393 7.04 193.393 7.04C193.393 7.04 193.392 7.04 193.392 7.04C193.391 7.04 193.391 7.04 193.391 7.04C193.39 7.04 193.39 7.04 193.389 7.04C193.389 7.04 193.389 7.04 193.388 7.04C193.388 7.04 193.388 7.04 193.387 7.04C193.387 7.04 193.386 7.04 193.386 7.04C193.386 7.04 193.385 7.04 193.385 7.04C193.384 7.04 193.384 7.04 193.384 7.04C193.383 7.04 193.383 7.04 193.382 7.04C193.382 7.04 193.382 7.04 193.381 7.04C193.381 7.04 193.38 7.04 193.38 7.04C193.38 7.04 193.379 7.04 193.379 7.04C193.379 7.04 193.378 7.04 193.378 7.04C193.377 7.04 193.377 7.04 193.377 7.04C193.376 7.04 193.376 7.04 193.375 7.04C193.375 7.04 193.375 7.04 193.374 7.04C193.374 7.04 193.373 7.04 193.373 7.04C193.373 7.04 193.372 7.04 193.372 7.04C193.372 7.04 193.371 7.04 193.371 7.04C193.37 7.04 193.37 7.04 193.37 7.04C193.369 7.04 193.369 7.04 193.368 7.04C193.368 7.04 193.368 7.04 193.367 7.04C193.367 7.04 193.366 7.04 193.366 7.04C193.366 7.04 193.365 7.04 193.365 7.04C193.365 7.04 193.364 7.04 193.364 7.04C193.363 7.04 193.363 7.04 193.363 7.04C193.362 7.04 193.362 7.04 193.361 7.04C193.361 7.04 193.361 7.04 193.36 7.04C193.36 7.04 193.359 7.04 193.359 7.04C193.359 7.04 193.358 7.04 193.358 7.04C193.358 7.04 193.357 7.04 193.357 7.04C193.356 7.04 193.356 7.04 193.356 7.04C193.355 7.04 193.355 7.04 193.354 7.04C193.354 7.04 193.354 7.04 193.353 7.04C193.353 7.04 193.353 7.04 193.352 7.04C193.352 7.04 193.351 7.04 193.351 7.04C193.351 7.04 193.35 7.04 193.35 7.04C193.349 7.04 193.349 7.04 193.349 7.04C193.348 7.04 193.348 7.04 193.348 7.04C193.347 7.04 193.347 7.04 193.346 7.04C193.346 7.04 193.346 7.04 193.345 7.04C193.345 7.04 193.344 7.04 193.344 7.04C193.344 7.04 193.343 7.04 193.343 7.04C193.343 7.04 193.342 7.04 193.342 7.04C193.341 7.04 193.341 7.04 193.341 7.04C193.34 7.04 193.34 7.04 193.34 7.04C193.339 7.04 193.339 7.04 193.338 7.04C193.338 7.04 193.338 7.04 193.337 7.04C193.337 7.04 193.336 7.04 193.336 7.04C193.336 7.04 193.335 7.04 193.335 7.04C193.335 7.04 193.334 7.04 193.334 7.04C193.333 7.04 193.333 7.04 193.333 7.04C193.332 7.04 193.332 7.04 193.332 7.04C193.331 7.04 193.331 7.04 193.33 7.04C193.33 7.04 193.33 7.04 193.329 7.04C193.329 7.04 193.328 7.04 193.328 7.04C193.328 7.04 193.327 7.04 193.327 7.04C193.327 7.04 193.326 7.04 193.326 7.04C193.325 7.04 193.325 7.04 193.325 7.04C193.324 7.04 193.324 7.04 193.324 7.04C193.323 7.04 193.323 7.04 193.322 7.04C193.322 7.04 193.322 7.04 193.321 7.04C193.321 7.04 193.321 7.04 193.32 7.04C193.32 7.04 193.319 7.04 193.319 7.04C193.319 7.04 193.318 7.04 193.318 7.04C193.318 7.04 193.317 7.04 193.317 7.04C193.316 7.04 193.316 7.04 193.316 7.04C193.315 7.04 193.315 7.04 193.315 7.04C193.314 7.04 193.314 7.04 193.313 7.04C193.313 7.04 193.313 7.04 193.312 7.04C193.312 7.04 193.312 7.04 193.311 7.04C193.311 7.04 193.31 7.04 193.31 7.04C193.31 7.04 193.309 7.04 193.309 7.04C193.309 7.04 193.308 7.04 193.308 7.04V9.04ZM193.98 9.04C194.235 9.04 194.439 9.06564 194.601 9.10614L195.086 7.16586C194.736 7.07836 194.365 7.04 193.98 7.04V9.04ZM178.332 59.344C183.776 59.344 187.774 60.504 190.473 62.6752L191.727 61.1168C188.538 58.552 184.023 57.344 178.332 57.344V59.344ZM190.492 62.6899C193.214 64.7749 194.612 67.7867 194.612 71.88H196.612C196.612 67.2693 195.002 63.6251 191.708 61.1021L190.492 62.6899ZM194.612 71.88C194.612 75.6551 193.581 78.7138 191.578 81.1297L193.118 82.4063C195.466 79.5742 196.612 76.0409 196.612 71.88H194.612ZM191.578 81.1297C189.548 83.5777 186.652 85.4376 182.825 86.6723L183.439 88.5757C187.547 87.2504 190.796 85.2063 193.118 82.4063L191.578 81.1297ZM182.806 86.6785C179.033 87.9774 174.509 88.64 169.212 88.64V90.64C174.667 90.64 179.422 89.9586 183.457 88.5695L182.806 86.6785ZM169.212 88.64C160.543 88.64 154.492 87.5479 150.889 85.506L149.903 87.246C153.979 89.5561 160.473 90.64 169.212 90.64V88.64ZM150.889 85.506C147.292 83.4676 145.636 80.8216 145.636 77.544H143.636C143.636 81.6904 145.82 84.9324 149.903 87.246L150.889 85.506ZM145.636 77.544C145.636 75.1744 146.573 73.2894 148.507 71.8104L147.292 70.2216C144.874 72.0706 143.636 74.5376 143.636 77.544H145.636ZM148.507 71.8104C150.425 70.3441 153.773 69.4543 158.773 69.3277L158.722 67.3283C153.61 67.4577 149.727 68.3599 147.292 70.2216L148.507 71.8104ZM157.778 68.0855L157.394 69.6215L159.334 70.1065L159.718 68.5705L157.778 68.0855ZM158.494 68.8725C154.699 68.3748 152.019 67.2717 150.31 65.6769L148.945 67.1391C151.077 69.1283 154.221 70.3292 158.234 70.8555L158.494 68.8725ZM150.31 65.6769C148.627 64.1064 147.748 61.9581 147.748 59.112H145.748C145.748 62.4099 146.788 65.1256 148.945 67.1391L150.31 65.6769ZM147.748 59.112C147.748 56.3491 148.821 54.1412 151.015 52.4089L149.776 50.8391C147.106 52.9468 145.748 55.7309 145.748 59.112H147.748ZM151.015 52.4089C153.24 50.6523 156.253 49.6399 160.139 49.4549L160.044 47.4571C155.867 47.6561 152.415 48.7557 149.776 50.8391L151.015 52.4089ZM159.668 49.3618L165.62 52.1458L166.467 50.3342L160.515 47.5502L159.668 49.3618ZM166.044 50.24H164.508V52.24H166.044V50.24ZM164.457 50.2413C161.929 50.3709 159.927 50.7935 158.661 51.664L159.794 53.312C160.576 52.7745 162.095 52.3651 164.559 52.2387L164.457 50.2413ZM158.661 51.664C157.432 52.5092 156.692 53.654 156.692 55.08H158.692C158.692 54.458 158.976 53.8748 159.794 53.312L158.661 51.664ZM156.692 55.08C156.692 56.4994 157.305 57.6525 158.495 58.4172L159.577 56.7348C158.974 56.3475 158.692 55.8366 158.692 55.08H156.692ZM158.54 58.4442C159.661 59.0848 161.213 59.344 163.068 59.344V57.344C161.338 57.344 160.203 57.0912 159.532 56.7078L158.54 58.4442ZM163.068 59.344H178.332V57.344H163.068V59.344ZM169.308 80.08C172.42 80.08 175.029 79.8538 177.112 79.3834L176.671 77.4326C174.786 77.8582 172.339 78.08 169.308 78.08V80.08ZM177.076 79.3909C179.191 78.9943 180.899 78.3803 182.1 77.48L180.9 75.88C180.052 76.5157 178.688 77.0537 176.707 77.4251L177.076 79.3909ZM182.066 77.504C183.273 76.6747 184.036 75.5683 184.036 74.184H182.036C182.036 74.7197 181.775 75.2773 180.933 75.856L182.066 77.504ZM184.036 74.184C184.036 72.9432 183.564 71.8837 182.613 71.106L181.347 72.654C181.804 73.0283 182.036 73.5048 182.036 74.184H184.036ZM182.568 71.0713C181.584 70.356 180.014 70.112 178.14 70.112V72.112C179.978 72.112 180.967 72.38 181.392 72.6887L182.568 71.0713ZM178.14 70.112H160.956V72.112H178.14V70.112ZM160.956 70.112C159.558 70.112 158.324 70.4835 157.34 71.3038L158.62 72.8402C159.172 72.3805 159.921 72.112 160.956 72.112V70.112ZM157.307 71.3321C156.392 72.1635 155.924 73.2332 155.924 74.472H157.924C157.924 73.7908 158.159 73.2605 158.652 72.8119L157.307 71.3321ZM155.924 74.472C155.924 76.5927 157.543 77.9591 159.855 78.775L160.521 76.889C158.48 76.1689 157.924 75.2953 157.924 74.472H155.924ZM159.831 78.7661C162.172 79.6614 165.353 80.08 169.308 80.08V78.08C165.455 78.08 162.555 77.6666 160.545 76.8979L159.831 78.7661ZM169.884 21.04C174.665 21.04 178.701 21.6697 182.016 22.8977L182.711 21.0223C179.115 19.6903 174.831 19.04 169.884 19.04V21.04ZM182.016 22.8977C185.33 24.125 187.778 25.8778 189.431 28.1212L191.041 26.9348C189.11 24.3142 186.309 22.355 182.711 21.0223L182.016 22.8977ZM189.449 28.1449C191.144 30.308 192.02 33.024 192.02 36.36H194.02C194.02 32.656 193.039 29.484 191.023 26.9111L189.449 28.1449ZM192.02 36.36C192.02 39.6266 191.147 42.3499 189.441 44.5853L191.031 45.7987C193.037 43.1701 194.02 40.0054 194.02 36.36H192.02ZM189.431 44.5988C187.778 46.8422 185.33 48.595 182.016 49.8223L182.711 51.6977C186.309 50.365 189.11 48.4058 191.041 45.7852L189.431 44.5988ZM182.032 49.8167C178.711 50.9851 174.669 51.584 169.884 51.584V53.584C174.826 53.584 179.105 52.9669 182.696 51.7033L182.032 49.8167ZM169.884 51.584C162.366 51.584 156.814 50.19 153.086 47.5445L151.929 49.1755C156.137 52.162 162.169 53.584 169.884 53.584V51.584ZM153.093 47.549C149.472 44.9372 147.652 41.2516 147.652 36.36H145.652C145.652 41.8364 147.736 46.1508 151.923 49.171L153.093 47.549ZM147.652 36.36C147.652 33.0161 148.5 30.2952 150.137 28.1314L148.542 26.9246C146.596 29.4968 145.652 32.6639 145.652 36.36H147.652ZM150.135 28.1347C151.854 25.8815 154.34 24.1256 157.655 22.8977L156.96 21.0223C153.364 22.3544 150.537 24.3105 148.545 26.9213L150.135 28.1347ZM157.655 22.8977C160.969 21.6702 165.037 21.04 169.884 21.04V19.04C164.875 19.04 160.558 19.6898 156.96 21.0223L157.655 22.8977ZM169.884 28.352C167.567 28.352 165.587 29.025 164.029 30.4345L165.371 31.9175C166.501 30.895 167.976 30.352 169.884 30.352V28.352ZM164.011 30.451C162.482 31.9035 161.78 33.9239 161.78 36.36H163.78C163.78 34.3161 164.357 32.8804 165.388 31.901L164.011 30.451ZM161.78 36.36C161.78 38.7419 162.488 40.7259 164.011 42.173L165.388 40.723C164.352 39.7381 163.78 38.3301 163.78 36.36H161.78ZM164.029 42.1895C165.587 43.599 167.567 44.272 169.884 44.272V42.272C167.976 42.272 166.501 41.729 165.371 40.7065L164.029 42.1895ZM169.884 44.272C172.145 44.272 174.091 43.5937 175.643 42.1895L174.301 40.7065C173.165 41.7343 171.718 42.272 169.884 42.272V44.272ZM175.643 42.1895C177.238 40.7462 177.988 38.7569 177.988 36.36H175.988C175.988 38.3151 175.394 39.7178 174.301 40.7065L175.643 42.1895ZM177.988 36.36C177.988 33.9092 177.244 31.8834 175.643 30.4345L174.301 31.9175C175.387 32.9006 175.988 34.3307 175.988 36.36H177.988ZM175.643 30.4345C174.091 29.0303 172.145 28.352 169.884 28.352V30.352C171.718 30.352 173.165 30.8897 174.301 31.9175L175.643 30.4345ZM207.379 67.656L207.015 68.5875L207.023 68.5909L207.032 68.5941L207.379 67.656ZM197.202 60.84L196.441 60.1919L195.87 60.8632L196.464 61.5143L197.202 60.84ZM204.883 51.816L205.671 51.2004L204.916 50.2341L204.121 51.1679L204.883 51.816ZM211.219 57L210.746 57.8812L210.758 57.888L210.771 57.8944L211.219 57ZM225.043 58.152L225.453 59.0639H225.453L225.043 58.152ZM226.003 53.352L225.334 54.0953L225.355 54.1147L225.378 54.1329L226.003 53.352ZM222.163 51.912L221.966 52.8926L222.163 51.912ZM215.443 50.568L215.244 51.5482L215.246 51.5486L215.443 50.568ZM202.579 45.192L201.881 45.9082L201.89 45.9173L201.899 45.9261L202.579 45.192ZM201.235 28.2L202.063 28.7599L202.07 28.7496L201.235 28.2ZM208.627 22.344L209.031 23.2585L209.038 23.2553L209.046 23.252L208.627 22.344ZM243.091 28.296L243.841 28.9568L244.399 28.3231L243.868 27.6668L243.091 28.296ZM235.315 37.128L234.534 37.7527L235.278 38.6829L236.065 37.7888L235.315 37.128ZM229.363 32.616L228.954 33.5288L229.363 32.616ZM218.131 31.464L218.373 32.4341L218.393 32.4292L218.413 32.4234L218.131 31.464ZM215.827 32.616L216.534 33.3231L215.827 32.616ZM216.211 36.744L215.57 37.5122L215.605 37.5408L215.641 37.5662L216.211 36.744ZM220.723 38.28L220.521 39.2595L220.528 39.261L220.723 38.28ZM229.459 40.008L229.264 40.989L229.272 40.9905L229.28 40.9919L229.459 40.008ZM240.883 61.896L240.05 61.3413L240.883 61.896ZM233.395 67.848L233.784 68.769L233.792 68.7658L233.799 68.7625L233.395 67.848ZM220.819 68.96C216.127 68.96 211.765 68.2097 207.725 66.7179L207.032 68.5941C211.312 70.1743 215.91 70.96 220.819 70.96V68.96ZM207.742 66.7245C203.774 65.1746 200.515 62.9851 197.941 60.1657L196.464 61.5143C199.266 64.5829 202.791 66.9374 207.015 68.5875L207.742 66.7245ZM197.964 61.4881L205.644 52.4641L204.121 51.1679L196.441 60.1919L197.964 61.4881ZM204.094 52.4316C205.792 54.6039 208.017 56.417 210.746 57.8812L211.691 56.1188C209.172 54.767 207.173 53.1241 205.671 51.2004L204.094 52.4316ZM210.771 57.8944C213.61 59.3137 216.741 60.016 220.146 60.016V58.016C217.024 58.016 214.203 57.3743 211.666 56.1056L210.771 57.8944ZM220.146 60.016C222.218 60.016 224.002 59.7168 225.453 59.0639L224.632 57.2401C223.523 57.7392 222.043 58.016 220.146 58.016V60.016ZM225.453 59.0639C226.211 58.7229 226.849 58.2556 227.296 57.6292C227.75 56.994 227.963 56.2576 227.963 55.464H225.963C225.963 55.8864 225.855 56.206 225.669 56.4668C225.476 56.7364 225.154 57.0051 224.632 57.2401L225.453 59.0639ZM227.963 55.464C227.963 54.2966 227.529 53.2922 226.627 52.5711L225.378 54.1329C225.756 54.4358 225.963 54.8394 225.963 55.464H227.963ZM226.671 52.6087C226.22 52.2025 225.61 51.8848 224.914 51.6237C224.207 51.3586 223.351 51.1299 222.359 50.9314L221.966 52.8926C222.894 53.0781 223.638 53.2814 224.211 53.4963C224.795 53.7152 225.145 53.9255 225.334 54.0953L226.671 52.6087ZM222.359 50.9314L215.639 49.5874L215.246 51.5486L221.966 52.8926L222.359 50.9314ZM215.641 49.5878C209.686 48.3841 205.615 46.6388 203.258 44.4579L201.899 45.9261C204.662 48.4812 209.167 50.3199 215.244 51.5482L215.641 49.5878ZM203.276 44.4758C200.998 42.2555 199.835 39.3579 199.835 35.688H197.835C197.835 39.8261 199.167 43.2645 201.881 45.9082L203.276 44.4758ZM199.835 35.688C199.835 33.2814 200.564 30.9779 202.063 28.7599L200.406 27.6401C198.705 30.1581 197.835 32.8466 197.835 35.688H199.835ZM202.07 28.7496C203.541 26.514 205.835 24.6722 209.031 23.2585L208.222 21.4295C204.762 22.9598 202.128 25.022 200.399 27.6504L202.07 28.7496ZM209.046 23.252C212.2 21.7963 216.299 21.04 221.395 21.04V19.04C216.122 19.04 211.71 19.8197 208.207 21.436L209.046 23.252ZM221.395 21.04C226.164 21.04 230.327 21.7304 233.904 23.087L234.613 21.217C230.766 19.7576 226.353 19.04 221.395 19.04V21.04ZM233.904 23.087C237.475 24.4417 240.264 26.394 242.313 28.9252L243.868 27.6668C241.565 24.822 238.466 22.6783 234.613 21.217L233.904 23.087ZM242.34 27.6352L234.564 36.4672L236.065 37.7888L243.841 28.9568L242.34 27.6352ZM236.095 36.5033C234.452 34.4488 232.336 32.8506 229.771 31.7032L228.954 33.5288C231.253 34.5574 233.105 35.9672 234.534 37.7527L236.095 36.5033ZM229.771 31.7032C227.223 30.5632 224.652 29.984 222.067 29.984V31.984C224.345 31.984 226.638 32.4927 228.954 33.5288L229.771 31.7032ZM222.067 29.984C220.466 29.984 219.054 30.1501 217.848 30.5046L218.413 32.4234C219.383 32.1379 220.595 31.984 222.067 31.984V29.984ZM217.888 30.4939C216.764 30.7749 215.805 31.223 215.119 31.9089L216.534 33.3231C216.872 32.985 217.449 32.6651 218.373 32.4341L217.888 30.4939ZM215.119 31.9089C214.408 32.6207 214.059 33.5206 214.059 34.536H216.059C216.059 34.0154 216.221 33.6353 216.534 33.3231L215.119 31.9089ZM214.059 34.536C214.059 35.725 214.625 36.7245 215.57 37.5122L216.851 35.9758C216.26 35.4835 216.059 35.011 216.059 34.536H214.059ZM215.641 37.5662C216.653 38.2668 218.333 38.8091 220.521 39.2595L220.924 37.3005C218.76 36.8549 217.432 36.3732 216.78 35.9218L215.641 37.5662ZM220.528 39.261L229.264 40.989L229.653 39.027L220.917 37.299L220.528 39.261ZM229.28 40.9919C234.105 41.8693 237.411 43.4404 239.378 45.5806L240.851 44.2274C238.466 41.6316 234.668 39.9387 229.637 39.0241L229.28 40.9919ZM239.378 45.5806C241.378 47.7571 242.379 50.361 242.379 53.448H244.379C244.379 49.879 243.203 46.7869 240.851 44.2274L239.378 45.5806ZM242.379 53.448C242.379 56.396 241.6 59.0173 240.05 61.3413L241.715 62.4507C243.493 59.7827 244.379 56.772 244.379 53.448H242.379ZM240.05 61.3413C238.512 63.6484 236.181 65.5219 232.99 66.9335L233.799 68.7625C237.264 67.2301 239.925 65.1356 241.715 62.4507L240.05 61.3413ZM233.005 66.927C229.839 68.2665 225.79 68.96 220.819 68.96V70.96C225.959 70.96 230.294 70.2455 233.784 68.769L233.005 66.927Z" fill="url(#paint0_linear_262_123)"/>
<defs>
<linearGradient id="paint0_linear_262_123" x1="-7" y1="36" x2="246" y2="36" gradientUnits="userSpaceOnUse">
<stop stop-color="#E8B41C"/>
<stop offset="1" stop-color="#4CA6FF"/>
</linearGradient>
</defs>
</svg>
