<svg width="531" height="91" viewBox="0 0 531 91" fill="none" xmlns="http://www.w3.org/2000/svg">
<path opacity="0.5" d="M59.168 51.856L60.1321 52.1215L60.396 51.1633L59.4395 50.8935L59.168 51.856ZM53.312 62.8L54.0354 63.4905L54.0431 63.4823L53.312 62.8ZM43.712 69.04L44.038 69.9854L44.0452 69.9829L44.0524 69.9803L43.712 69.04ZM14.816 67.12L14.3263 67.9919L14.3355 67.997L14.816 67.12ZM4.064 55.888L4.9537 55.4314L4.064 55.888ZM4.064 20.752L4.9537 21.2086L4.064 20.752ZM14.816 9.616L15.2966 10.493L15.3057 10.4879L14.816 9.616ZM43.52 7.6L43.194 8.54537L43.2013 8.5479L43.2087 8.55031L43.52 7.6ZM52.928 13.264L53.6351 12.5569V12.5569L52.928 13.264ZM58.4 23.152L58.7746 24.0792L59.5964 23.7472L59.3655 22.8915L58.4 23.152ZM43.904 29.008L42.9286 29.2283L43.1877 30.3759L44.2786 29.9352L43.904 29.008ZM39.488 20.848L38.8922 21.6511L38.8982 21.6556L38.9044 21.66L39.488 20.848ZM24.032 20.848L23.4828 20.0122L23.4717 20.0197L24.032 20.848ZM18.944 27.472L18.0197 27.0902L18.0155 27.1006L18.944 27.472ZM18.848 49.168L17.91 49.5146L18.848 49.168ZM23.744 55.792L23.1836 56.6204L23.1948 56.6277L23.744 55.792ZM39.776 55.504L40.3949 56.2895L40.3979 56.2871L39.776 55.504ZM44.192 47.632L44.4635 46.6695L43.4414 46.3813L43.215 47.4188L44.192 47.632ZM58.2039 51.5905C57.0238 55.8762 55.1421 59.3736 52.5809 62.1177L54.0431 63.4823C56.8579 60.4664 58.8802 56.6678 60.1321 52.1215L58.2039 51.5905ZM52.5886 62.1095C50.0088 64.8122 46.9405 66.8075 43.3716 68.0997L44.0524 69.9803C47.9075 68.5845 51.2392 66.4198 54.0354 63.4905L52.5886 62.1095ZM43.386 68.0946C39.7925 69.3338 35.8085 69.96 31.424 69.96V71.96C35.9995 71.96 40.2075 71.3062 44.038 69.9854L43.386 68.0946ZM31.424 69.96C25.1583 69.96 19.7943 68.7075 15.2965 66.243L14.3355 67.997C19.1817 70.6525 24.8897 71.96 31.424 71.96V69.96ZM15.3057 66.2481C10.8086 63.7223 7.36197 60.1245 4.9537 55.4314L3.1743 56.3446C5.75803 61.3795 9.47943 65.2697 14.3263 67.9919L15.3057 66.2481ZM4.9537 55.4314C2.5462 50.7399 1.32 45.0484 1.32 38.32H-0.68C-0.68 45.2876 0.589802 51.3081 3.1743 56.3446L4.9537 55.4314ZM1.32 38.32C1.32 31.5916 2.5462 25.9001 4.9537 21.2086L3.1743 20.2954C0.589802 25.3319 -0.68 31.3524 -0.68 38.32H1.32ZM4.9537 21.2086C7.36095 16.5175 10.8047 12.9542 15.2965 10.493L14.3355 8.73902C9.48329 11.3977 5.75905 15.2585 3.1743 20.2954L4.9537 21.2086ZM15.3057 10.4879C19.803 7.96202 25.1321 6.68 31.328 6.68V4.68C24.8519 4.68 19.173 6.02197 14.3263 8.7441L15.3057 10.4879ZM31.328 6.68C35.6467 6.68 39.5991 7.30574 43.194 8.54537L43.846 6.65462C40.0169 5.33425 35.8413 4.68 31.328 4.68V6.68ZM43.2087 8.55031C46.7835 9.72137 49.7805 11.5307 52.2209 13.9711L53.6351 12.5569C50.9555 9.87726 47.6805 7.91062 43.8313 6.64969L43.2087 8.55031ZM52.2209 13.9711C54.6393 16.3895 56.385 19.5232 57.4345 23.4125L59.3655 22.8915C58.239 18.7168 56.3367 15.2585 53.6351 12.5569L52.2209 13.9711ZM58.0254 22.2248L43.5294 28.0808L44.2786 29.9352L58.7746 24.0792L58.0254 22.2248ZM44.8794 28.7877C43.9607 24.719 42.4089 21.7159 40.0716 20.036L38.9044 21.66C40.6631 22.9241 42.0553 25.361 42.9286 29.2283L44.8794 28.7877ZM40.0838 20.0449C37.8893 18.4167 35.1375 17.64 31.904 17.64V19.64C34.8145 19.64 37.1187 20.3353 38.8922 21.6511L40.0838 20.0449ZM31.904 17.64C28.7255 17.64 25.9054 18.4203 23.4828 20.0123L24.5812 21.6837C26.6386 20.3317 29.0665 19.64 31.904 19.64V17.64ZM23.4717 20.0197C21.1015 21.6231 19.2945 24.0039 18.0197 27.0902L19.8683 27.8538C21.0255 25.0521 22.6105 23.0169 24.5923 21.6763L23.4717 20.0197ZM18.0155 27.1006C16.8014 30.136 16.216 33.8883 16.216 38.32H18.216C18.216 34.0477 18.7826 30.568 19.8725 27.8434L18.0155 27.1006ZM16.216 38.32C16.216 42.6859 16.769 46.4272 17.91 49.5146L19.786 48.8214C18.751 46.0208 18.216 42.5301 18.216 38.32H16.216ZM17.91 49.5146C19.056 52.6156 20.803 55.0098 23.1837 56.6203L24.3043 54.9637C22.3331 53.6302 20.816 51.6084 19.786 48.8214L17.91 49.5146ZM23.1948 56.6277C25.6304 58.2282 28.5837 59 32 59V57C28.8883 57 26.3376 56.2998 24.2932 54.9563L23.1948 56.6277ZM32 59C35.2629 59 38.0818 58.1119 40.3949 56.2895L39.1571 54.7185C37.2462 56.2241 34.8811 57 32 57V59ZM40.3979 56.2871C42.8021 54.3779 44.3666 51.5227 45.169 47.8452L43.215 47.4188C42.4814 50.7813 41.1019 53.1741 39.1541 54.7209L40.3979 56.2871ZM43.9205 48.5945L58.8965 52.8185L59.4395 50.8935L44.4635 46.6695L43.9205 48.5945ZM101.856 24.016L101.391 24.9012L101.4 24.9059L101.409 24.9104L101.856 24.016ZM110.784 32.56L109.911 33.0482L109.916 33.057L109.921 33.0657L110.784 32.56ZM110.784 59.536L109.917 59.0367L109.915 59.0415L110.784 59.536ZM101.856 68.08L102.309 68.9714L102.315 68.9684L101.856 68.08ZM75.4557 68.08L74.9967 68.9685L75.0085 68.9744L75.4557 68.08ZM66.4318 59.536L65.559 60.0242L65.5639 60.033L65.5691 60.0417L66.4318 59.536ZM66.4318 32.56L65.5653 32.0607L65.5626 32.0655L66.4318 32.56ZM75.4557 24.016L75.903 24.9105L75.9148 24.9044L75.4557 24.016ZM80.7357 38.32L79.7933 37.9856L80.7357 38.32ZM80.7357 53.68L79.7933 54.0144L79.7969 54.0243L80.7357 53.68ZM83.8078 58L83.2265 58.8137L83.2396 58.8231L83.2531 58.8321L83.8078 58ZM93.5038 58L94.0585 58.8321L94.0719 58.8231L94.085 58.8137L93.5038 58ZM96.5758 53.68L97.5147 54.0243L97.5182 54.0144L96.5758 53.68ZM96.5758 38.32L97.5182 37.9856L96.5758 38.32ZM88.6078 22.04C93.5316 22.04 97.7824 23.0054 101.391 24.9012L102.321 23.1308C98.3771 21.0586 93.7959 20.04 88.6078 20.04V22.04ZM101.409 24.9104C105.068 26.74 107.896 29.4457 109.911 33.0482L111.657 32.0718C109.447 28.1223 106.324 25.132 102.303 23.1216L101.409 24.9104ZM109.921 33.0657C111.989 36.5939 113.048 40.8908 113.048 46H115.048C115.048 40.6132 113.93 35.9501 111.646 32.0543L109.921 33.0657ZM113.048 46C113.048 51.1085 111.99 55.4408 109.917 59.0367L111.65 60.0353C113.93 56.0792 115.048 51.3875 115.048 46H113.048ZM109.915 59.0415C107.9 62.5831 105.067 65.2953 101.397 67.1916L102.315 68.9684C106.325 66.8967 109.444 63.9129 111.653 60.0305L109.915 59.0415ZM101.403 67.1886C97.7916 69.0247 93.5365 69.96 88.6078 69.96V71.96C93.791 71.96 98.3679 70.9753 102.309 68.9714L101.403 67.1886ZM88.6078 69.96C83.812 69.96 79.5849 69.0265 75.903 67.1856L75.0085 68.9744C79.0066 70.9735 83.5475 71.96 88.6078 71.96V69.96ZM75.9148 67.1916C72.242 65.294 69.3743 62.5783 67.2944 59.0303L65.5691 60.0417C67.8412 63.9177 70.9895 66.898 74.9967 68.9684L75.9148 67.1916ZM67.3045 59.0478C65.292 55.4497 64.2637 51.1133 64.2637 46H62.2637C62.2637 51.3827 63.3475 56.0703 65.559 60.0242L67.3045 59.0478ZM64.2637 46C64.2637 40.886 65.2922 36.5849 67.3009 33.0545L65.5626 32.0655C63.3473 35.9591 62.2637 40.618 62.2637 46H64.2637ZM67.2982 33.0593C69.3778 29.4505 72.2412 26.7413 75.903 24.9104L75.0085 23.1216C70.9903 25.1307 67.8377 28.1175 65.5653 32.0607L67.2982 33.0593ZM75.9148 24.9044C79.5941 23.0034 83.8169 22.04 88.6078 22.04V20.04C83.5426 20.04 78.9974 21.0606 74.9967 23.1276L75.9148 24.9044ZM88.6078 31.656C86.5846 31.656 84.7848 32.1468 83.2531 33.1679L84.3624 34.832C85.5187 34.0612 86.9189 33.656 88.6078 33.656V31.656ZM83.2531 33.1679C81.6817 34.2155 80.5476 35.8599 79.7933 37.9856L81.6782 38.6544C82.3319 36.8121 83.2458 35.5765 84.3624 34.832L83.2531 33.1679ZM79.7933 37.9856C79.0374 40.1159 78.6798 42.8003 78.6798 46H80.6798C80.6798 42.9277 81.0261 40.4921 81.6782 38.6544L79.7933 37.9856ZM78.6798 46C78.6798 49.1997 79.0374 51.8841 79.7933 54.0144L81.6782 53.3456C81.0261 51.5079 80.6798 49.0723 80.6798 46H78.6798ZM79.7969 54.0243C80.5535 56.0878 81.6835 57.7116 83.2265 58.8137L84.389 57.1863C83.244 56.3684 82.326 55.1122 81.6746 53.3357L79.7969 54.0243ZM83.2531 58.8321C84.7848 59.8532 86.5846 60.344 88.6078 60.344V58.344C86.9189 58.344 85.5187 57.9388 84.3624 57.1679L83.2531 58.8321ZM88.6078 60.344C90.6873 60.344 92.5212 59.8568 94.0585 58.8321L92.9491 57.1679C91.7983 57.9352 90.3682 58.344 88.6078 58.344V60.344ZM94.085 58.8137C95.628 57.7116 96.758 56.0878 97.5146 54.0243L95.6369 53.3357C94.9855 55.1122 94.0675 56.3684 92.9225 57.1863L94.085 58.8137ZM97.5182 54.0144C98.2741 51.8841 98.6318 49.1997 98.6318 46H96.6318C96.6318 49.0723 96.2854 51.5079 95.6333 53.3456L97.5182 54.0144ZM98.6318 46C98.6318 42.8003 98.2741 40.1159 97.5182 37.9856L95.6333 38.6544C96.2854 40.4921 96.6318 42.9277 96.6318 46H98.6318ZM97.5182 37.9856C96.7639 35.8599 95.6298 34.2155 94.0585 33.1679L92.9491 34.832C94.0657 35.5765 94.9796 36.8121 95.6333 38.6544L97.5182 37.9856ZM94.0585 33.1679C92.5212 32.1431 90.6873 31.656 88.6078 31.656V33.656C90.3682 33.656 91.7983 34.0648 92.9491 34.832L94.0585 33.1679ZM121.789 70H120.789V71H121.789V70ZM121.789 22V21H120.789V22H121.789ZM136.381 22L137.379 21.9485L137.33 21H136.381V22ZM136.861 31.312L135.862 31.3635L137.771 31.7245L136.861 31.312ZM143.293 23.632L142.769 22.7796L142.761 22.7851L143.293 23.632ZM162.301 23.44L161.78 24.2938V24.2938L162.301 23.44ZM168.157 30.544L167.231 30.9219L168.078 32.998L169.056 30.9803L168.157 30.544ZM172.092 25.264L171.447 24.5006L171.439 24.5069L171.432 24.5133L172.092 25.264ZM177.757 22.096L178.073 23.0447L177.757 22.096ZM192.732 22.96L192.267 23.8449L192.276 23.8498L192.285 23.8544L192.732 22.96ZM198.493 28.624L197.616 29.1059L197.624 29.1191L197.631 29.132L198.493 28.624ZM200.701 70V71H201.701V70H200.701ZM184.381 70H183.381V71H184.381V70ZM182.557 35.344L181.831 36.0317L181.84 36.0415L181.849 36.0511L182.557 35.344ZM173.437 34.768L173.951 35.6256L173.963 35.6183L173.437 34.768ZM170.461 38.32L169.545 37.9173L170.461 38.32ZM169.405 70V71H170.405V70H169.405ZM153.085 70H152.085V71H153.085V70ZM151.26 35.344L151.968 34.6369L151.26 35.344ZM142.333 34.672L141.836 33.8038L141.827 33.809L141.818 33.8145L142.333 34.672ZM139.26 38.32L140.162 38.7527L140.165 38.7459L140.168 38.7391L139.26 38.32ZM138.109 70V71H139.109V70H138.109ZM122.789 70V22H120.789V70H122.789ZM121.789 23H136.381V21H121.789V23ZM135.382 22.0515L135.862 31.3635L137.859 31.2605L137.379 21.9485L135.382 22.0515ZM137.771 31.7245C139.239 28.4846 141.262 26.0878 143.824 24.4789L142.761 22.7851C139.819 24.6322 137.554 27.3554 135.95 30.8995L137.771 31.7245ZM143.816 24.4843C146.458 22.8628 149.505 22.04 152.989 22.04V20.04C149.176 20.04 145.759 20.9452 142.769 22.7797L143.816 24.4843ZM152.989 22.04C156.42 22.04 159.337 22.8043 161.78 24.2938L162.821 22.5862C160.016 20.8756 156.725 20.04 152.989 20.04V22.04ZM161.78 24.2938C164.203 25.7711 166.023 27.9625 167.231 30.9219L169.082 30.1661C167.73 26.8535 165.646 24.3089 162.821 22.5862L161.78 24.2938ZM169.056 30.9803C170.028 28.9758 171.263 27.3263 172.753 26.0147L171.432 24.5133C169.722 26.0177 168.333 27.8882 167.257 30.1077L169.056 30.9803ZM172.738 26.0274C174.303 24.7033 176.079 23.7093 178.073 23.0447L177.44 21.1473C175.21 21.8907 173.21 23.0087 171.447 24.5006L172.738 26.0274ZM178.073 23.0447C180.082 22.3749 182.151 22.04 184.285 22.04V20.04C181.938 20.04 179.655 20.4091 177.44 21.1473L178.073 23.0447ZM184.285 22.04C187.349 22.04 190 22.652 192.267 23.8449L193.198 22.0751C190.601 20.7079 187.62 20.04 184.285 20.04V22.04ZM192.285 23.8544C194.522 24.9728 196.298 26.7098 197.616 29.1059L199.369 28.1421C197.871 25.4182 195.807 23.3792 193.18 22.0656L192.285 23.8544ZM197.631 29.132C198.989 31.4342 199.701 34.3818 199.701 38.032H201.701C201.701 34.1302 200.94 30.8058 199.354 28.116L197.631 29.132ZM199.701 38.032V70H201.701V38.032H199.701ZM200.701 69H184.381V71H200.701V69ZM185.381 70V41.776H183.381V70H185.381ZM185.381 41.776C185.381 38.6299 184.769 36.1423 183.264 34.6369L181.849 36.0511C182.776 36.9777 183.381 38.7781 183.381 41.776H185.381ZM183.282 34.6563C181.907 33.2043 180.056 32.52 177.853 32.52V34.52C179.617 34.52 180.902 35.0517 181.831 36.0317L183.282 34.6563ZM177.853 32.52C176.069 32.52 174.414 32.9866 172.91 33.9177L173.963 35.6183C175.147 34.8854 176.436 34.52 177.853 34.52V32.52ZM172.922 33.9105C171.436 34.8023 170.318 36.1612 169.545 37.9173L171.376 38.7227C172.011 37.2788 172.877 36.2697 173.951 35.6255L172.922 33.9105ZM169.545 37.9173C168.768 39.6836 168.405 41.848 168.405 44.368H170.405C170.405 42.024 170.745 40.1564 171.376 38.7227L169.545 37.9173ZM168.405 44.368V70H170.405V44.368H168.405ZM169.405 69H153.085V71H169.405V69ZM154.085 70V41.776H152.085V70H154.085ZM154.085 41.776C154.085 38.6299 153.473 36.1423 151.968 34.6369L150.553 36.0511C151.48 36.9777 152.085 38.7781 152.085 41.776H154.085ZM151.968 34.6369C150.541 33.2107 148.708 32.52 146.557 32.52V34.52C148.245 34.52 149.548 35.0453 150.553 36.0511L151.968 34.6369ZM146.557 32.52C144.901 32.52 143.323 32.954 141.836 33.8038L142.829 35.5402C144.03 34.854 145.268 34.52 146.557 34.52V32.52ZM141.818 33.8145C140.33 34.7073 139.185 36.0965 138.353 37.9009L140.168 38.7391C140.872 37.2155 141.775 36.1727 142.847 35.5295L141.818 33.8145ZM138.359 37.8873C137.503 39.6712 137.109 41.948 137.109 44.656H139.109C139.109 42.116 139.482 40.1688 140.162 38.7527L138.359 37.8873ZM137.109 44.656V70H139.109V44.656H137.109ZM138.109 69H121.789V71H138.109V69ZM210.723 70H209.723V71H210.723V70ZM210.723 22V21H209.723V22H210.723ZM225.315 22L226.314 21.9485L226.265 21H225.315V22ZM225.795 31.312L224.797 31.3635L226.706 31.7245L225.795 31.312ZM232.227 23.632L231.704 22.7796L231.696 22.7851L232.227 23.632ZM251.235 23.44L250.715 24.2938V24.2938L251.235 23.44ZM257.091 30.544L256.166 30.9219L257.013 32.998L257.991 30.9803L257.091 30.544ZM261.027 25.264L260.382 24.5006L260.374 24.5069L260.367 24.5133L261.027 25.264ZM266.691 22.096L267.008 23.0447L266.691 22.096ZM281.667 22.96L281.202 23.8449L281.211 23.8498L281.22 23.8544L281.667 22.96ZM287.427 28.624L286.551 29.1059L286.559 29.1191L286.566 29.132L287.427 28.624ZM289.635 70V71H290.635V70H289.635ZM273.315 70H272.315V71H273.315V70ZM271.491 35.344L270.766 36.0317L270.775 36.0415L270.784 36.0511L271.491 35.344ZM262.371 34.768L262.886 35.6256L262.898 35.6183L262.371 34.768ZM259.396 38.32L258.48 37.9173L259.396 38.32ZM258.34 70V71H259.34V70H258.34ZM242.02 70H241.02V71H242.02V70ZM240.195 35.344L240.903 34.6369L240.195 35.344ZM231.267 34.672L230.771 33.8038L230.762 33.809L230.753 33.8145L231.267 34.672ZM228.195 38.32L229.097 38.7527L229.1 38.7459L229.103 38.7391L228.195 38.32ZM227.043 70V71H228.043V70H227.043ZM211.723 70V22H209.723V70H211.723ZM210.723 23H225.315V21H210.723V23ZM224.317 22.0515L224.797 31.3635L226.794 31.2605L226.314 21.9485L224.317 22.0515ZM226.706 31.7245C228.174 28.4846 230.197 26.0878 232.759 24.4789L231.696 22.7851C228.754 24.6322 226.489 27.3554 224.885 30.8995L226.706 31.7245ZM232.751 24.4843C235.393 22.8628 238.44 22.04 241.923 22.04V20.04C238.111 20.04 234.694 20.9452 231.704 22.7797L232.751 24.4843ZM241.923 22.04C245.355 22.04 248.272 22.8043 250.715 24.2938L251.756 22.5862C248.951 20.8756 245.66 20.04 241.923 20.04V22.04ZM250.715 24.2938C253.138 25.7711 254.958 27.9625 256.166 30.9219L258.017 30.1661C256.665 26.8535 254.581 24.3089 251.756 22.5862L250.715 24.2938ZM257.991 30.9803C258.963 28.9758 260.198 27.3263 261.688 26.0147L260.367 24.5133C258.657 26.0177 257.268 27.8882 256.192 30.1077L257.991 30.9803ZM261.673 26.0274C263.238 24.7033 265.014 23.7093 267.008 23.0447L266.375 21.1473C264.145 21.8907 262.145 23.0087 260.382 24.5006L261.673 26.0274ZM267.008 23.0447C269.017 22.3749 271.086 22.04 273.219 22.04V20.04C270.873 20.04 268.59 20.4091 266.375 21.1473L267.008 23.0447ZM273.219 22.04C276.284 22.04 278.935 22.652 281.202 23.8449L282.133 22.0751C279.536 20.7079 276.555 20.04 273.219 20.04V22.04ZM281.22 23.8544C283.457 24.9728 285.233 26.7098 286.551 29.1059L288.304 28.1421C286.806 25.4182 284.742 23.3792 282.115 22.0656L281.22 23.8544ZM286.566 29.132C287.924 31.4342 288.635 34.3818 288.635 38.032H290.635C290.635 34.1302 289.875 30.8058 288.289 28.116L286.566 29.132ZM288.635 38.032V70H290.635V38.032H288.635ZM289.635 69H273.315V71H289.635V69ZM274.315 70V41.776H272.315V70H274.315ZM274.315 41.776C274.315 38.6299 273.704 36.1423 272.199 34.6369L270.784 36.0511C271.711 36.9777 272.315 38.7781 272.315 41.776H274.315ZM272.217 34.6563C270.842 33.2043 268.991 32.52 266.788 32.52V34.52C268.552 34.52 269.837 35.0517 270.766 36.0317L272.217 34.6563ZM266.788 32.52C265.004 32.52 263.349 32.9866 261.845 33.9177L262.898 35.6183C264.082 34.8854 265.371 34.52 266.788 34.52V32.52ZM261.857 33.9105C260.371 34.8023 259.253 36.1612 258.48 37.9173L260.311 38.7227C260.946 37.2788 261.812 36.2697 262.886 35.6255L261.857 33.9105ZM258.48 37.9173C257.703 39.6836 257.34 41.848 257.34 44.368H259.34C259.34 42.024 259.68 40.1564 260.311 38.7227L258.48 37.9173ZM257.34 44.368V70H259.34V44.368H257.34ZM258.34 69H242.02V71H258.34V69ZM243.02 70V41.776H241.02V70H243.02ZM243.02 41.776C243.02 38.6299 242.408 36.1423 240.903 34.6369L239.488 36.0511C240.415 36.9777 241.02 38.7781 241.02 41.776H243.02ZM240.903 34.6369C239.476 33.2107 237.643 32.52 235.491 32.52V34.52C237.18 34.52 238.483 35.0453 239.488 36.0511L240.903 34.6369ZM235.491 32.52C233.836 32.52 232.258 32.954 230.771 33.8038L231.764 35.5402C232.965 34.854 234.203 34.52 235.491 34.52V32.52ZM230.753 33.8145C229.265 34.7073 228.12 36.0965 227.288 37.9009L229.103 38.7391C229.807 37.2155 230.71 36.1727 231.782 35.5295L230.753 33.8145ZM227.294 37.8873C226.438 39.6712 226.043 41.948 226.043 44.656H228.043C228.043 42.116 228.417 40.1688 229.097 38.7527L227.294 37.8873ZM226.043 44.656V70H228.043V44.656H226.043ZM227.043 69H210.723V71H227.043V69ZM307.242 69.328L306.814 70.2317L306.829 70.2384L306.843 70.2447L307.242 69.328ZM301.482 63.856L302.353 63.3647L301.482 63.856ZM299.37 22V21H298.37V22H299.37ZM315.69 22H316.69V21H315.69V22ZM317.514 56.656L318.222 55.9489L317.514 56.656ZM325.962 57.904L326.314 58.8403L326.339 58.8309L326.363 58.8202L325.962 57.904ZM328.65 55.984L329.385 56.6623L329.398 56.6488L329.41 56.6348L328.65 55.984ZM330.378 52.624L329.426 52.3208L329.421 52.335L329.417 52.3493L330.378 52.624ZM331.05 22V21H330.05V22H331.05ZM347.37 22H348.37V21H347.37V22ZM347.37 70V71H348.37V70H347.37ZM332.779 70L331.78 70.0531L331.83 71H332.779V70ZM332.298 60.976L333.297 60.9229L331.388 60.5635L332.298 60.976ZM325.866 68.56L326.369 69.4245L326.377 69.4202L326.384 69.4157L325.866 68.56ZM315.882 69.96C312.729 69.96 309.99 69.4346 307.642 68.4113L306.843 70.2447C309.487 71.3974 312.508 71.96 315.882 71.96V69.96ZM307.671 68.4243C305.438 67.3666 303.667 65.6931 302.353 63.3647L300.612 64.3473C302.114 67.0109 304.183 68.9854 306.814 70.2317L307.671 68.4243ZM302.353 63.3647C301.058 61.0674 300.37 57.9902 300.37 54.064H298.37C298.37 58.2018 299.091 61.6526 300.612 64.3473L302.353 63.3647ZM300.37 54.064V22H298.37V54.064H300.37ZM299.37 23H315.69V21H299.37V23ZM314.69 22V50.224H316.69V22H314.69ZM314.69 50.224C314.69 53.3701 315.302 55.8577 316.807 57.3631L318.222 55.9489C317.295 55.0223 316.69 53.2219 316.69 50.224H314.69ZM316.807 57.3631C318.263 58.8185 320.277 59.48 322.698 59.48V57.48C320.64 57.48 319.198 56.9255 318.222 55.9489L316.807 57.3631ZM322.698 59.48C323.964 59.48 325.171 59.2686 326.314 58.8403L325.611 56.9677C324.706 57.3074 323.737 57.48 322.698 57.48V59.48ZM326.363 58.8202C327.516 58.316 328.525 57.5944 329.385 56.6623L327.916 55.3057C327.24 56.0376 326.457 56.596 325.562 56.9878L326.363 58.8202ZM329.41 56.6348C330.287 55.6111 330.924 54.3559 331.34 52.8987L329.417 52.3493C329.065 53.5801 328.55 54.5648 327.891 55.3332L329.41 56.6348ZM331.331 52.9272C331.817 51.3998 332.05 49.6618 332.05 47.728H330.05C330.05 49.5062 329.836 51.0322 329.426 52.3208L331.331 52.9272ZM332.05 47.728V22H330.05V47.728H332.05ZM331.05 23H347.37V21H331.05V23ZM346.37 22V70H348.37V22H346.37ZM347.37 69H332.779V71H347.37V69ZM333.777 69.9469L333.297 60.9229L331.3 61.0291L331.78 70.0531L333.777 69.9469ZM331.388 60.5635C329.921 63.8013 327.902 66.1606 325.349 67.7043L326.384 69.4157C329.335 67.6314 331.604 64.9347 333.209 61.3885L331.388 60.5635ZM325.364 67.6955C322.796 69.1887 319.65 69.96 315.882 69.96V71.96C319.923 71.96 323.433 71.1313 326.369 69.4245L325.364 67.6955ZM357.656 70H356.656V71H357.656V70ZM357.656 22V21H356.656V22H357.656ZM372.248 22L373.247 21.9477L373.197 21H372.248V22ZM373.112 38.512L372.405 39.2191L374.247 41.061L374.111 38.4597L373.112 38.512ZM371.288 36.688L370.305 36.5059L370.209 37.0231L370.581 37.3951L371.288 36.688ZM374.648 28.048L373.837 27.4625L373.832 27.47L373.827 27.4776L374.648 28.048ZM380.792 22.864L381.22 23.7678L381.23 23.763L380.792 22.864ZM397.784 22.96L397.318 23.845L397.328 23.8498L397.784 22.96ZM405.752 70V71H406.752V70H405.752ZM389.432 70H388.432V71H389.432V70ZM387.512 35.44L386.805 36.1471L387.512 35.44ZM378.296 34.672L378.76 35.5578L378.776 35.5493L378.792 35.5402L378.296 34.672ZM373.976 70V71H374.976V70H373.976ZM358.656 70V22H356.656V70H358.656ZM357.656 23H372.248V21H357.656V23ZM371.249 22.0523L372.113 38.5643L374.111 38.4597L373.247 21.9477L371.249 22.0523ZM373.819 37.8049L371.995 35.9809L370.581 37.3951L372.405 39.2191L373.819 37.8049ZM372.271 36.8701C372.892 33.5193 373.968 30.7804 375.469 28.6184L373.827 27.4776C372.128 29.9236 370.964 32.9447 370.305 36.5059L372.271 36.8701ZM375.459 28.6335C377.03 26.4582 378.949 24.8435 381.22 23.7677L380.364 21.9603C377.771 23.1885 375.594 25.0298 373.837 27.4625L375.459 28.6335ZM381.23 23.763C383.576 22.6203 386.207 22.04 389.144 22.04V20.04C385.937 20.04 383 20.6757 380.354 21.965L381.23 23.763ZM389.144 22.04C392.344 22.04 395.057 22.6549 397.318 23.8449L398.25 22.0751C395.647 20.7051 392.6 20.04 389.144 20.04V22.04ZM397.328 23.8498C399.645 25.0384 401.455 26.786 402.769 29.1153L404.511 28.1327C403.009 25.47 400.915 23.4416 398.24 22.0702L397.328 23.8498ZM402.769 29.1153C404.07 31.4212 404.752 34.3752 404.752 38.032H406.752C406.752 34.1368 406.026 30.8188 404.511 28.1327L402.769 29.1153ZM404.752 38.032V70H406.752V38.032H404.752ZM405.752 69H389.432V71H405.752V69ZM390.432 70V42.352H388.432V70H390.432ZM390.432 42.352C390.432 38.9599 389.792 36.3061 388.219 34.7329L386.805 36.1471C387.792 37.1339 388.432 39.0881 388.432 42.352H390.432ZM388.219 34.7329C386.733 33.2464 384.837 32.52 382.616 32.52V34.52C384.363 34.52 385.731 35.0736 386.805 36.1471L388.219 34.7329ZM382.616 32.52C380.905 32.52 379.294 32.9501 377.8 33.8038L378.792 35.5402C379.986 34.8579 381.255 34.52 382.616 34.52V32.52ZM377.832 33.7862C376.266 34.6064 375.071 35.9352 374.226 37.6953L376.03 38.5607C376.721 37.1208 377.638 36.1456 378.76 35.5578L377.832 33.7862ZM374.226 37.6953C373.369 39.4818 372.976 41.7923 372.976 44.56H374.976C374.976 41.9517 375.351 39.9742 376.03 38.5607L374.226 37.6953ZM372.976 44.56V70H374.976V44.56H372.976ZM373.976 69H357.656V71H373.976V69ZM416.611 14.608L415.955 15.3626L415.972 15.3777L415.991 15.392L416.611 14.608ZM416.611 2.704L417.248 3.47497L417.251 3.47222L416.611 2.704ZM431.107 2.704L430.467 3.47222L430.477 3.48025L430.487 3.48804L431.107 2.704ZM431.107 14.608L431.728 15.392L431.738 15.3843L431.747 15.3762L431.107 14.608ZM432.067 22H433.067V21H432.067V22ZM432.067 70V71H433.067V70H432.067ZM415.747 70H414.747V71H415.747V70ZM415.747 22V21H414.747V22H415.747ZM423.907 15.432C420.662 15.432 418.505 14.8316 417.232 13.824L415.991 15.392C417.79 16.8164 420.497 17.432 423.907 17.432V15.432ZM417.267 13.8534C416.087 12.8273 415.403 11.1688 415.403 8.65599H413.403C413.403 11.5192 414.191 13.8287 415.955 15.3626L417.267 13.8534ZM415.403 8.65599C415.403 6.06595 416.094 4.42854 417.248 3.47496L415.974 1.93303C414.185 3.41146 413.403 5.74204 413.403 8.65599H415.403ZM417.251 3.47222C418.522 2.41346 420.67 1.784 423.907 1.784V-0.216002C420.489 -0.216002 417.773 0.43454 415.971 1.93578L417.251 3.47222ZM423.907 1.784C427.075 1.784 429.194 2.41122 430.467 3.47222L431.747 1.93578C429.949 0.436779 427.268 -0.216002 423.907 -0.216002V1.784ZM430.487 3.48804C431.697 4.44603 432.411 6.07927 432.411 8.65599H434.411C434.411 5.72873 433.59 3.39396 431.728 1.91995L430.487 3.48804ZM432.411 8.65599C432.411 11.1557 431.703 12.8097 430.467 13.8398L431.747 15.3762C433.583 13.8463 434.411 11.5323 434.411 8.65599H432.411ZM430.487 13.824C429.211 14.8337 427.083 15.432 423.907 15.432V17.432C427.259 17.432 429.931 16.8143 431.728 15.392L430.487 13.824ZM431.067 22V70H433.067V22H431.067ZM432.067 69H415.747V71H432.067V69ZM416.747 70V22H414.747V70H416.747ZM415.747 23H432.067V21H415.747V23ZM462.309 6.736H463.309V5.42201L462.042 5.77215L462.309 6.736ZM463.941 57.904L463.255 58.6322L463.277 58.6529L463.301 58.6722L463.941 57.904ZM472.581 58.864L472.863 59.8234L472.88 59.8183L472.897 59.8127L472.581 58.864ZM475.653 57.232L476.638 57.063L476.355 55.4087L475.035 56.4457L475.653 57.232ZM477.381 67.312L477.965 68.1235L478.472 67.7586L478.366 67.143L477.381 67.312ZM471.333 70L471.587 70.9671L471.333 70ZM454.341 69.424L453.977 70.3556L453.985 70.3585L454.341 69.424ZM448.197 64.528L447.35 65.0602L447.355 65.0687L447.361 65.0772L448.197 64.528ZM445.989 55.6H444.989V55.6086L444.989 55.6172L445.989 55.6ZM445.989 11.248L445.722 10.2842L444.989 10.487V11.248H445.989ZM476.613 22H477.613V21H476.613V22ZM476.613 33.616V34.616H477.613V33.616H476.613ZM437.733 33.616H436.733V34.616H437.733V33.616ZM437.733 22V21H436.733V22H437.733ZM461.309 6.736V52.912H463.309V6.736H461.309ZM461.309 52.912C461.309 55.3443 461.88 57.3376 463.255 58.6322L464.626 57.1758C463.826 56.4224 463.309 55.0877 463.309 52.912H461.309ZM463.301 58.6722C464.683 59.8245 466.503 60.344 468.645 60.344V58.344C466.818 58.344 465.502 57.9035 464.581 57.1358L463.301 58.6722ZM468.645 60.344C470.245 60.344 471.657 60.1779 472.863 59.8234L472.299 57.9046C471.328 58.1901 470.117 58.344 468.645 58.344V60.344ZM472.897 59.8127C474.151 59.3947 475.278 58.7979 476.271 58.0183L475.035 56.4457C474.235 57.0741 473.315 57.5653 472.265 57.9153L472.897 59.8127ZM474.667 57.401L476.395 67.481L478.366 67.143L476.638 57.063L474.667 57.401ZM476.796 66.5005C475.319 67.5641 473.423 68.4159 471.078 69.0329L471.587 70.9671C474.107 70.3041 476.242 69.3639 477.965 68.1235L476.796 66.5005ZM471.078 69.0329C468.731 69.6507 466.32 69.96 463.845 69.96V71.96C466.489 71.96 469.071 71.6293 471.587 70.9671L471.078 69.0329ZM463.845 69.96C460.287 69.96 457.245 69.4603 454.697 68.4895L453.985 70.3585C456.812 71.4357 460.106 71.96 463.845 71.96V69.96ZM454.704 68.4924C452.263 67.5398 450.385 66.0363 449.032 63.9788L447.361 65.0772C448.953 67.4997 451.17 69.2602 453.977 70.3556L454.704 68.4924ZM449.043 63.9958C447.764 61.9605 447.051 59.1825 446.989 55.5828L444.989 55.6172C445.055 59.4415 445.814 62.6155 447.35 65.0602L449.043 63.9958ZM446.989 55.6V11.248H444.989V55.6H446.989ZM446.255 12.2118L462.575 7.69984L462.042 5.77215L445.722 10.2842L446.255 12.2118ZM475.613 22V33.616H477.613V22H475.613ZM476.613 32.616H437.733V34.616H476.613V32.616ZM438.733 33.616V22H436.733V33.616H438.733ZM437.733 23H476.613V21H437.733V23ZM530.999 22L531.939 22.342L532.427 21H530.999V22ZM513.527 70L512.587 69.6579L512.584 69.6659L513.527 70ZM507.671 82.096L506.853 81.5214L507.671 82.096ZM482.423 89.776L482.174 90.7445L482.423 89.776ZM476.567 87.376L475.608 87.0925L475.391 87.8265L476.043 88.2277L476.567 87.376ZM479.831 76.336L480.417 75.5253L479.272 74.6989L478.872 76.0525L479.831 76.336ZM483.479 78.064L483.766 77.1062L483.744 77.0995L483.722 77.0939L483.479 78.064ZM492.887 77.68L492.421 76.7951L492.411 76.8004L492.401 76.8058L492.887 77.68ZM495.767 74.032L494.845 73.6453L494.84 73.6558L494.836 73.6664L495.767 74.032ZM497.015 71.056L497.937 71.4427L498.101 71.0527L497.935 70.6637L497.015 71.056ZM491.447 58L490.519 58.3714L490.523 58.3819L490.527 58.3923L491.447 58ZM477.047 22V21H475.57L476.119 22.3714L477.047 22ZM494.999 22L495.964 21.7392L495.765 21H494.999V22ZM502.391 49.36L503.366 49.1392L503.362 49.1191L503.356 49.0992L502.391 49.36ZM504.695 59.536L503.72 59.7568L505.664 59.7827L504.695 59.536ZM507.383 48.976L506.419 48.7117L506.416 48.7205L506.414 48.7293L507.383 48.976ZM514.775 22V21H514.012L513.811 21.7357L514.775 22ZM530.059 21.658L512.587 69.658L514.467 70.342L531.939 22.342L530.059 21.658ZM512.584 69.6659C510.81 74.6719 508.895 78.613 506.853 81.5214L508.489 82.6706C510.671 79.563 512.66 75.4401 514.47 70.3341L512.584 69.6659ZM506.853 81.5214C504.825 84.4088 502.458 86.4587 499.76 87.7178L500.606 89.5302C503.668 88.1013 506.293 85.7992 508.489 82.6706L506.853 81.5214ZM499.76 87.7178C497.043 88.9858 493.739 89.64 489.815 89.64V91.64C493.955 91.64 497.563 90.9502 500.606 89.5302L499.76 87.7178ZM489.815 89.64C487.198 89.64 484.819 89.3595 482.672 88.8075L482.174 90.7445C484.507 91.3445 487.056 91.64 489.815 91.64V89.64ZM482.672 88.8075C480.512 88.252 478.656 87.4872 477.091 86.5243L476.043 88.2277C477.806 89.3128 479.854 90.148 482.174 90.7445L482.672 88.8075ZM477.526 87.6595L480.79 76.6195L478.872 76.0525L475.608 87.0925L477.526 87.6595ZM479.246 77.1467C480.493 78.0474 481.824 78.681 483.236 79.0341L483.722 77.0939C482.574 76.807 481.473 76.2886 480.417 75.5253L479.246 77.1467ZM483.192 79.0218C484.598 79.4438 486.336 79.64 488.375 79.64V77.64C486.446 77.64 484.92 77.4522 483.766 77.1062L483.192 79.0218ZM488.375 79.64C490.335 79.64 492.024 79.3036 493.373 78.5542L492.401 76.8058C491.446 77.3364 490.127 77.64 488.375 77.64V79.64ZM493.353 78.5649C494.853 77.7756 495.941 76.324 496.698 74.3977L494.836 73.6664C494.185 75.324 493.353 76.3044 492.421 76.7951L493.353 78.5649ZM496.689 74.4187L497.937 71.4427L496.093 70.6693L494.845 73.6453L496.689 74.4187ZM497.935 70.6637L492.367 57.6077L490.527 58.3923L496.095 71.4483L497.935 70.6637ZM492.375 57.6286L477.975 21.6286L476.119 22.3714L490.519 58.3714L492.375 57.6286ZM477.047 23H494.999V21H477.047V23ZM494.034 22.2608L501.426 49.6208L503.356 49.0992L495.964 21.7392L494.034 22.2608ZM501.416 49.5808L503.72 59.7568L505.67 59.3152L503.366 49.1392L501.416 49.5808ZM505.664 59.7827L508.352 49.2227L506.414 48.7293L503.726 59.2893L505.664 59.7827ZM508.347 49.2403L515.739 22.2643L513.811 21.7357L506.419 48.7117L508.347 49.2403ZM514.775 23H530.999V21H514.775V23Z" fill="url(#paint0_linear_310_66)"/>
<defs>
<linearGradient id="paint0_linear_310_66" x1="-3.99999" y1="37" x2="1136" y2="37" gradientUnits="userSpaceOnUse">
<stop stop-color="#0074E6"/>
<stop offset="1" stop-color="#F1D379"/>
</linearGradient>
</defs>
</svg>
