<svg width="296" height="65" viewBox="0 0 296 65" fill="none" xmlns="http://www.w3.org/2000/svg">
<path opacity="0.8" d="M49.64 8.896L48.9163 9.58609L48.9205 9.59045L49.64 8.896ZM49.64 55.744L48.9204 55.0495L48.9163 55.0539L49.64 55.744ZM0.00800037 64H-0.992V65H0.00800037V64ZM0.00800037 0.639997V-0.360003H-0.992V0.639997H0.00800037ZM36.968 46.72L36.1736 46.1125L36.1718 46.1149L36.968 46.72ZM36.968 18.016L36.1661 18.6135L36.1727 18.6223L36.1795 18.631L36.968 18.016ZM16.52 13.12V12.12H15.52V13.12H16.52ZM16.52 51.52H15.52V52.52H16.52V51.52ZM26.888 1.64C36.6218 1.64 43.9098 4.33537 48.9163 9.58607L50.3637 8.20592C44.8742 2.44862 36.9942 -0.360003 26.888 -0.360003V1.64ZM48.9205 9.59045C54.0006 14.8542 56.608 22.3811 56.608 32.32H58.608C58.608 22.0349 55.9034 13.9458 50.3596 8.20155L48.9205 9.59045ZM56.608 32.32C56.608 42.2589 54.0006 49.7858 48.9205 55.0496L50.3596 56.4384C55.9034 50.6942 58.608 42.6051 58.608 32.32H56.608ZM48.9163 55.0539C43.9098 60.3046 36.6219 63 26.888 63V65C36.9942 65 44.8742 62.1914 50.3637 56.4341L48.9163 55.0539ZM26.888 63H0.00800037V65H26.888V63ZM1.008 64V0.639997H-0.992V64H1.008ZM0.00800037 1.64H26.888V-0.360003H0.00800037V1.64ZM25.256 52.52C30.8305 52.52 35.0834 50.8525 37.7642 47.3251L36.1718 46.1149C33.9886 48.9875 30.4335 50.52 25.256 50.52V52.52ZM37.7624 47.3274C40.4467 43.8171 41.712 38.7634 41.712 32.32H39.712C39.712 38.5486 38.4813 43.0949 36.1736 46.1125L37.7624 47.3274ZM41.712 32.32C41.712 25.8787 40.4476 20.8511 37.7565 17.401L36.1795 18.631C38.4804 21.5809 39.712 26.0893 39.712 32.32H41.712ZM37.7699 17.4185C35.0917 13.8241 30.8375 12.12 25.256 12.12V14.12C30.4265 14.12 33.9803 15.6798 36.1661 18.6135L37.7699 17.4185ZM25.256 12.12H16.52V14.12H25.256V12.12ZM15.52 13.12V51.52H17.52V13.12H15.52ZM16.52 52.52H25.256V50.52H16.52V52.52ZM66.1348 64H65.1348V65H66.1348V64ZM66.1348 16V15H65.1348V16H66.1348ZM80.5348 16L81.5327 15.9353L81.472 15H80.5348V16ZM81.2067 26.368L80.2088 26.4327L82.1537 26.6893L81.2067 26.368ZM86.5827 18.016L85.9506 17.2411L85.9405 17.2495L86.5827 18.016ZM98.8708 15.328L98.6459 16.3024L98.6535 16.3042L98.6612 16.3058L98.8708 15.328ZM100.983 16.096L101.975 16.2165L102.052 15.5851L101.513 15.248L100.983 16.096ZM99.3507 29.536L98.9794 30.4645L100.187 30.9474L100.343 29.6565L99.3507 29.536ZM96.8548 28.96L96.6586 29.9406L96.6945 29.9477L96.7307 29.9523L96.8548 28.96ZM83.8947 33.664L83.043 33.1399L83.0373 33.1495L83.8947 33.664ZM82.4548 64V65H83.4548V64H82.4548ZM67.1348 64V16H65.1348V64H67.1348ZM66.1348 17H80.5348V15H66.1348V17ZM79.5368 16.0647L80.2088 26.4327L82.2047 26.3033L81.5327 15.9353L79.5368 16.0647ZM82.1537 26.6893C83.3241 23.2398 85.026 20.6249 87.225 18.7825L85.9405 17.2495C83.4035 19.3751 81.5214 22.3282 80.2598 26.0467L82.1537 26.6893ZM87.2149 18.7909C89.4371 16.978 92.2732 16.04 95.7988 16.04V14.04C91.9003 14.04 88.5924 15.086 85.9506 17.2411L87.2149 18.7909ZM95.7988 16.04C96.9681 16.04 97.9114 16.1329 98.6459 16.3024L99.0956 14.3536C98.1661 14.1391 97.0614 14.04 95.7988 14.04V16.04ZM98.6612 16.3058C99.4963 16.4847 100.076 16.7088 100.453 16.944L101.513 15.248C100.865 14.8432 100.037 14.5552 99.0803 14.3502L98.6612 16.3058ZM99.99 15.9755L98.358 29.4155L100.343 29.6565L101.975 16.2165L99.99 15.9755ZM99.7221 28.6075C98.9739 28.3082 98.05 28.1016 96.9788 27.9677L96.7307 29.9523C97.7075 30.0744 98.4475 30.2518 98.9794 30.4645L99.7221 28.6075ZM97.0509 27.9794C96.005 27.7702 94.7506 27.672 93.3027 27.672V29.672C94.6709 29.672 95.7845 29.7657 96.6586 29.9406L97.0509 27.9794ZM93.3027 27.672C91.2326 27.672 89.2869 28.1219 87.4795 29.0256L88.374 30.8144C89.8946 30.0541 91.5329 29.672 93.3027 29.672V27.672ZM87.4795 29.0256C85.6403 29.9452 84.1596 31.3255 83.0431 33.1399L84.7464 34.1881C85.6779 32.6745 86.8852 31.5588 88.374 30.8144L87.4795 29.0256ZM83.0373 33.1495C81.9576 34.9489 81.4548 37.1901 81.4548 39.808H83.4548C83.4548 37.4339 83.9119 35.5791 84.7522 34.1785L83.0373 33.1495ZM81.4548 39.808V64H83.4548V39.808H81.4548ZM82.4548 63H66.1348V65H82.4548V63ZM113.529 63.328L113.101 64.2317L113.115 64.2384L113.129 64.2447L113.529 63.328ZM107.769 57.856L108.64 57.3647L107.769 57.856ZM105.657 16V15H104.657V16H105.657ZM121.977 16H122.977V15H121.977V16ZM123.801 50.656L124.508 49.9489L123.801 50.656ZM132.249 51.904L132.6 52.8403L132.625 52.8309L132.65 52.8202L132.249 51.904ZM134.937 49.984L135.672 50.6623L135.684 50.6488L135.696 50.6348L134.937 49.984ZM136.665 46.624L135.712 46.3208L135.707 46.335L135.703 46.3493L136.665 46.624ZM137.337 16V15H136.337V16H137.337ZM153.657 16H154.657V15H153.657V16ZM153.657 64V65H154.657V64H153.657ZM139.065 64L138.066 64.0531L138.117 65H139.065V64ZM138.585 54.976L139.583 54.9229L137.674 54.5635L138.585 54.976ZM132.153 62.56L132.655 63.4245L132.663 63.4202L132.67 63.4157L132.153 62.56ZM122.169 63.96C119.015 63.96 116.276 63.4346 113.928 62.4113L113.129 64.2447C115.774 65.3974 118.794 65.96 122.169 65.96V63.96ZM113.957 62.4243C111.724 61.3666 109.953 59.6931 108.64 57.3647L106.898 58.3473C108.4 61.0109 110.47 62.9854 113.101 64.2317L113.957 62.4243ZM108.64 57.3647C107.344 55.0674 106.657 51.9902 106.657 48.064H104.657C104.657 52.2018 105.378 55.6526 106.898 58.3473L108.64 57.3647ZM106.657 48.064V16H104.657V48.064H106.657ZM105.657 17H121.977V15H105.657V17ZM120.977 16V44.224H122.977V16H120.977ZM120.977 44.224C120.977 47.3701 121.588 49.8577 123.094 51.3631L124.508 49.9489C123.581 49.0223 122.977 47.2219 122.977 44.224H120.977ZM123.094 51.3631C124.549 52.8185 126.563 53.48 128.985 53.48V51.48C126.926 51.48 125.484 50.9255 124.508 49.9489L123.094 51.3631ZM128.985 53.48C130.25 53.48 131.458 53.2686 132.6 52.8403L131.898 50.9677C130.992 51.3074 130.023 51.48 128.985 51.48V53.48ZM132.65 52.8202C133.802 52.316 134.811 51.5944 135.672 50.6623L134.202 49.3057C133.526 50.0376 132.744 50.596 131.848 50.9878L132.65 52.8202ZM135.696 50.6348C136.573 49.6111 137.21 48.3559 137.626 46.8987L135.703 46.3493C135.352 47.5801 134.836 48.5648 134.177 49.3332L135.696 50.6348ZM137.618 46.9272C138.104 45.3998 138.337 43.6618 138.337 41.728H136.337C136.337 43.5062 136.122 45.0322 135.712 46.3208L137.618 46.9272ZM138.337 41.728V16H136.337V41.728H138.337ZM137.337 17H153.657V15H137.337V17ZM152.657 16V64H154.657V16H152.657ZM153.657 63H139.065V65H153.657V63ZM140.063 63.9469L139.583 54.9229L137.586 55.0291L138.066 64.0531L140.063 63.9469ZM137.674 54.5635C136.208 57.8013 134.188 60.1606 131.635 61.7043L132.67 63.4157C135.621 61.6314 137.89 58.9347 139.496 55.3885L137.674 54.5635ZM131.65 61.6955C129.082 63.1887 125.936 63.96 122.169 63.96V65.96C126.21 65.96 129.72 65.1313 132.655 63.4245L131.65 61.6955ZM163.942 64H162.942V65H163.942V64ZM163.942 16V15H162.942V16H163.942ZM178.534 16L179.533 15.9485L179.484 15H178.534V16ZM179.014 25.312L178.016 25.3635L179.925 25.7245L179.014 25.312ZM185.446 17.632L184.923 16.7796L184.914 16.7851L185.446 17.632ZM204.454 17.44L203.934 18.2938V18.2938L204.454 17.44ZM210.31 24.544L209.384 24.9219L210.232 26.998L211.21 24.9803L210.31 24.544ZM214.246 19.264L213.6 18.5006L213.593 18.5069L213.586 18.5133L214.246 19.264ZM219.91 16.096L220.226 17.0447L219.91 16.096ZM234.886 16.96L234.421 17.8449L234.43 17.8498L234.439 17.8544L234.886 16.96ZM240.646 22.624L239.77 23.1059L239.777 23.1191L239.785 23.132L240.646 22.624ZM242.854 64V65H243.854V64H242.854ZM226.534 64H225.534V65H226.534V64ZM224.71 29.344L223.984 30.0317L223.994 30.0415L224.003 30.0511L224.71 29.344ZM215.59 28.768L216.105 29.6256L216.117 29.6183L215.59 28.768ZM212.614 32.32L211.699 31.9173L212.614 32.32ZM211.558 64V65H212.558V64H211.558ZM195.238 64H194.238V65H195.238V64ZM193.414 29.344L194.121 28.6369L193.414 29.344ZM184.486 28.672L183.99 27.8038L183.981 27.809L183.972 27.8145L184.486 28.672ZM181.414 32.32L182.316 32.7527L182.319 32.7459L182.322 32.7391L181.414 32.32ZM180.262 64V65H181.262V64H180.262ZM164.942 64V16H162.942V64H164.942ZM163.942 17H178.534V15H163.942V17ZM177.536 16.0515L178.016 25.3635L180.013 25.2605L179.533 15.9485L177.536 16.0515ZM179.925 25.7245C181.392 22.4846 183.416 20.0878 185.978 18.4789L184.914 16.7851C181.973 18.6322 179.708 21.3554 178.103 24.8995L179.925 25.7245ZM185.969 18.4843C188.612 16.8628 191.659 16.04 195.142 16.04V14.04C191.329 14.04 187.913 14.9452 184.923 16.7797L185.969 18.4843ZM195.142 16.04C198.574 16.04 201.491 16.8043 203.934 18.2938L204.975 16.5862C202.17 14.8756 198.879 14.04 195.142 14.04V16.04ZM203.934 18.2938C206.356 19.7711 208.176 21.9625 209.384 24.9219L211.236 24.1661C209.884 20.8535 207.8 18.3089 204.975 16.5862L203.934 18.2938ZM211.21 24.9803C212.182 22.9758 213.416 21.3263 214.907 20.0147L213.586 18.5133C211.876 20.0177 210.487 21.8882 209.41 24.1077L211.21 24.9803ZM214.892 20.0274C216.457 18.7033 218.233 17.7093 220.226 17.0447L219.594 15.1473C217.364 15.8907 215.364 17.0087 213.6 18.5006L214.892 20.0274ZM220.226 17.0447C222.236 16.3749 224.305 16.04 226.438 16.04V14.04C224.091 14.04 221.809 14.4091 219.594 15.1473L220.226 17.0447ZM226.438 16.04C229.503 16.04 232.154 16.652 234.421 17.8449L235.352 16.0751C232.754 14.7079 229.774 14.04 226.438 14.04V16.04ZM234.439 17.8544C236.676 18.9728 238.452 20.7098 239.77 23.1059L241.522 22.1421C240.024 19.4182 237.961 17.3792 235.333 16.0656L234.439 17.8544ZM239.785 23.132C241.143 25.4342 241.854 28.3818 241.854 32.032H243.854C243.854 28.1302 243.094 24.8058 241.508 22.116L239.785 23.132ZM241.854 32.032V64H243.854V32.032H241.854ZM242.854 63H226.534V65H242.854V63ZM227.534 64V35.776H225.534V64H227.534ZM227.534 35.776C227.534 32.6299 226.923 30.1423 225.417 28.6369L224.003 30.0511C224.93 30.9777 225.534 32.7781 225.534 35.776H227.534ZM225.436 28.6563C224.061 27.2043 222.21 26.52 220.006 26.52V28.52C221.771 28.52 223.056 29.0517 223.984 30.0317L225.436 28.6563ZM220.006 26.52C218.223 26.52 216.568 26.9866 215.064 27.9177L216.117 29.6183C217.3 28.8854 218.59 28.52 220.006 28.52V26.52ZM215.076 27.9105C213.589 28.8023 212.472 30.1612 211.699 31.9173L213.53 32.7227C214.165 31.2788 215.031 30.2697 216.105 29.6255L215.076 27.9105ZM211.699 31.9173C210.922 33.6836 210.558 35.848 210.558 38.368H212.558C212.558 36.024 212.899 34.1564 213.53 32.7227L211.699 31.9173ZM210.558 38.368V64H212.558V38.368H210.558ZM211.558 63H195.238V65H211.558V63ZM196.238 64V35.776H194.238V64H196.238ZM196.238 35.776C196.238 32.6299 195.627 30.1423 194.121 28.6369L192.707 30.0511C193.634 30.9777 194.238 32.7781 194.238 35.776H196.238ZM194.121 28.6369C192.695 27.2107 190.862 26.52 188.71 26.52V28.52C190.399 28.52 191.701 29.0453 192.707 30.0511L194.121 28.6369ZM188.71 26.52C187.055 26.52 185.477 26.954 183.99 27.8038L184.982 29.5402C186.183 28.854 187.421 28.52 188.71 28.52V26.52ZM183.972 27.8145C182.484 28.7073 181.339 30.0965 180.506 31.9009L182.322 32.7391C183.025 31.2155 183.929 30.1727 185.001 29.5295L183.972 27.8145ZM180.513 31.8873C179.656 33.6712 179.262 35.948 179.262 38.656H181.262C181.262 36.116 181.636 34.1688 182.316 32.7527L180.513 31.8873ZM179.262 38.656V64H181.262V38.656H179.262ZM180.262 63H163.942V65H180.262V63ZM259.597 62.656L259.233 63.5875L259.242 63.5909L259.251 63.5941L259.597 62.656ZM249.421 55.84L248.66 55.1919L248.088 55.8632L248.683 56.5143L249.421 55.84ZM257.101 46.816L257.889 46.2004L257.134 45.2341L256.34 46.1679L257.101 46.816ZM263.437 52L262.964 52.8812L262.977 52.888L262.99 52.8944L263.437 52ZM277.261 53.152L277.672 54.0639L277.261 53.152ZM278.221 48.352L277.552 49.0953L277.574 49.1147L277.597 49.1329L278.221 48.352ZM274.381 46.912L274.185 47.8926L274.381 46.912ZM267.661 45.568L267.463 46.5482L267.465 46.5486L267.661 45.568ZM254.797 40.192L254.099 40.9082L254.109 40.9173L254.118 40.9261L254.797 40.192ZM253.453 23.2L254.282 23.7599L254.289 23.7496L253.453 23.2ZM260.845 17.344L261.25 18.2585L261.257 18.2553L261.264 18.252L260.845 17.344ZM295.309 23.296L296.06 23.9568L296.618 23.3231L296.087 22.6668L295.309 23.296ZM287.533 32.128L286.752 32.7527L287.497 33.6829L288.284 32.7888L287.533 32.128ZM281.581 27.616L281.173 28.5288L281.581 27.616ZM270.349 26.464L270.592 27.4341L270.612 27.4292L270.631 27.4234L270.349 26.464ZM268.045 27.616L268.752 28.3231L268.045 27.616ZM268.429 31.744L267.789 32.5122L267.823 32.5408L267.86 32.5662L268.429 31.744ZM272.941 33.28L272.74 34.2595L272.747 34.261L272.941 33.28ZM281.677 35.008L281.483 35.989L281.491 35.9905L281.498 35.9919L281.677 35.008ZM293.101 56.896L292.269 56.3413L293.101 56.896ZM285.613 62.848L286.003 63.769L286.01 63.7658L286.018 63.7625L285.613 62.848ZM273.037 63.96C268.346 63.96 263.984 63.2097 259.944 61.7179L259.251 63.5941C263.531 65.1743 268.129 65.96 273.037 65.96V63.96ZM259.961 61.7245C255.993 60.1746 252.734 57.9851 250.16 55.1657L248.683 56.5143C251.485 59.5829 255.009 61.9374 259.233 63.5875L259.961 61.7245ZM250.183 56.4881L257.863 47.4641L256.34 46.1679L248.66 55.1919L250.183 56.4881ZM256.313 47.4316C258.01 49.6039 260.236 51.417 262.964 52.8812L263.91 51.1188C261.391 49.767 259.392 48.1241 257.889 46.2004L256.313 47.4316ZM262.99 52.8944C265.829 54.3137 268.96 55.016 272.365 55.016V53.016C269.243 53.016 266.422 52.3743 263.884 51.1056L262.99 52.8944ZM272.365 55.016C274.436 55.016 276.221 54.7168 277.672 54.0639L276.851 52.2401C275.742 52.7392 274.262 53.016 272.365 53.016V55.016ZM277.672 54.0639C278.429 53.7229 279.068 53.2556 279.515 52.6292C279.969 51.994 280.181 51.2576 280.181 50.464H278.181C278.181 50.8864 278.074 51.206 277.888 51.4668C277.695 51.7364 277.373 52.0051 276.851 52.2401L277.672 54.0639ZM280.181 50.464C280.181 49.2966 279.747 48.2922 278.846 47.5711L277.597 49.1329C277.975 49.4358 278.181 49.8394 278.181 50.464H280.181ZM278.89 47.6087C278.439 47.2025 277.829 46.8848 277.132 46.6237C276.426 46.3586 275.57 46.1299 274.577 45.9314L274.185 47.8926C275.113 48.0781 275.857 48.2814 276.43 48.4963C277.014 48.7152 277.364 48.9255 277.552 49.0953L278.89 47.6087ZM274.577 45.9314L267.857 44.5874L267.465 46.5486L274.185 47.8926L274.577 45.9314ZM267.859 44.5878C261.904 43.3841 257.834 41.6388 255.476 39.4579L254.118 40.9261C256.88 43.4812 261.386 45.3199 267.463 46.5482L267.859 44.5878ZM255.495 39.4758C253.216 37.2555 252.053 34.3579 252.053 30.688H250.053C250.053 34.8261 251.386 38.2645 254.099 40.9082L255.495 39.4758ZM252.053 30.688C252.053 28.2814 252.783 25.9779 254.282 23.7599L252.625 22.6401C250.923 25.1581 250.053 27.8466 250.053 30.688H252.053ZM254.289 23.7496C255.759 21.514 258.054 19.6722 261.25 18.2585L260.441 16.4295C256.981 17.9598 254.347 20.022 252.618 22.6504L254.289 23.7496ZM261.264 18.252C264.418 16.7963 268.518 16.04 273.613 16.04V14.04C268.34 14.04 263.928 14.8197 260.426 16.436L261.264 18.252ZM273.613 16.04C278.382 16.04 282.546 16.7304 286.123 18.087L286.832 16.217C282.984 14.7576 278.572 14.04 273.613 14.04V16.04ZM286.123 18.087C289.694 19.4417 292.483 21.394 294.532 23.9252L296.087 22.6668C293.784 19.822 290.684 17.6783 286.832 16.217L286.123 18.087ZM294.559 22.6352L286.783 31.4672L288.284 32.7888L296.06 23.9568L294.559 22.6352ZM288.314 31.5033C286.671 29.4488 284.555 27.8506 281.99 26.7032L281.173 28.5288C283.472 29.5574 285.324 30.9672 286.752 32.7527L288.314 31.5033ZM281.99 26.7032C279.442 25.5632 276.871 24.984 274.285 24.984V26.984C276.564 26.984 278.857 27.4927 281.173 28.5288L281.99 26.7032ZM274.285 24.984C272.685 24.984 271.273 25.1501 270.067 25.5046L270.631 27.4234C271.602 27.1379 272.813 26.984 274.285 26.984V24.984ZM270.107 25.4939C268.982 25.7749 268.024 26.223 267.338 26.9089L268.752 28.3231C269.09 27.985 269.668 27.6651 270.592 27.4341L270.107 25.4939ZM267.338 26.9089C266.626 27.6207 266.277 28.5206 266.277 29.536H268.277C268.277 29.0154 268.44 28.6353 268.752 28.3231L267.338 26.9089ZM266.277 29.536C266.277 30.725 266.844 31.7245 267.789 32.5122L269.069 30.9758C268.479 30.4835 268.277 30.011 268.277 29.536H266.277ZM267.86 32.5662C268.872 33.2668 270.552 33.8091 272.74 34.2595L273.143 32.3005C270.978 31.8549 269.651 31.3732 268.998 30.9218L267.86 32.5662ZM272.747 34.261L281.483 35.989L281.871 34.027L273.135 32.299L272.747 34.261ZM281.498 35.9919C286.324 36.8693 289.63 38.4404 291.597 40.5806L293.07 39.2274C290.684 36.6316 286.886 34.9387 281.856 34.0241L281.498 35.9919ZM291.597 40.5806C293.597 42.7571 294.597 45.361 294.597 48.448H296.597C296.597 44.879 295.422 41.7869 293.07 39.2274L291.597 40.5806ZM294.597 48.448C294.597 51.396 293.819 54.0173 292.269 56.3413L293.933 57.4507C295.712 54.7827 296.597 51.772 296.597 48.448H294.597ZM292.269 56.3413C290.731 58.6484 288.4 60.5219 285.209 61.9335L286.018 63.7625C289.482 62.2301 292.143 60.1356 293.933 57.4507L292.269 56.3413ZM285.224 61.927C282.058 63.2665 278.009 63.96 273.037 63.96V65.96C278.177 65.96 282.513 65.2455 286.003 63.769L285.224 61.927Z" fill="url(#paint0_linear_241_480)"/>
<defs>
<linearGradient id="paint0_linear_241_480" x1="-7" y1="31" x2="299" y2="31" gradientUnits="userSpaceOnUse">
<stop stop-color="#E8B41C"/>
<stop offset="0.0001" stop-color="#E8B41C" stop-opacity="0"/>
<stop offset="1" stop-color="#E84E1C"/>
</linearGradient>
</defs>
</svg>
