<svg width="265" height="71" viewBox="0 0 265 71" fill="none" xmlns="http://www.w3.org/2000/svg">
<path opacity="0.8" d="M73.352 6.64H74.352V5.64H73.352V6.64ZM73.352 70V71H74.352V70H73.352ZM58.76 70H57.76V71H58.76V70ZM58.76 40.912L57.7603 40.8874L57.76 40.8997V40.912H58.76ZM59.24 21.424L60.2397 21.4486L60.2649 20.424H59.24V21.424ZM59.048 21.424V20.424H58.3195L58.0962 21.1174L59.048 21.424ZM43.4 70V71H44.1285L44.3518 70.3066L43.4 70ZM30.056 70L29.1042 70.3066L29.3275 71H30.056V70ZM14.408 21.424L15.3598 21.1174L15.1365 20.424H14.408V21.424ZM14.216 21.424V20.424H13.1911L13.2163 21.4486L14.216 21.424ZM14.696 40.912H15.696V40.8997L15.6957 40.8874L14.696 40.912ZM14.696 70V71H15.696V70H14.696ZM0.00800037 70H-0.992V71H0.00800037V70ZM0.00800037 6.64V5.64H-0.992V6.64H0.00800037ZM23.528 6.64L24.4833 6.34431L24.2653 5.64H23.528V6.64ZM33.512 38.896L34.4788 38.6405L34.4735 38.6203L34.4673 38.6003L33.512 38.896ZM37.064 52.336L36.0972 52.5915L36.294 53.336H37.064V52.336ZM37.256 52.336V53.336H38.0193L38.2206 52.5997L37.256 52.336ZM40.904 38.992L39.9477 38.6997L39.9433 38.7139L39.9394 38.7283L40.904 38.992ZM50.792 6.64V5.64H50.052L49.8357 6.34771L50.792 6.64ZM72.352 6.64V70H74.352V6.64H72.352ZM73.352 69H58.76V71H73.352V69ZM59.76 70V40.912H57.76V70H59.76ZM59.7597 40.9366L60.2397 21.4486L58.2403 21.3994L57.7603 40.8874L59.7597 40.9366ZM59.24 20.424H59.048V22.424H59.24V20.424ZM58.0962 21.1174L42.4482 69.6934L44.3518 70.3066L59.9998 21.7306L58.0962 21.1174ZM43.4 69H30.056V71H43.4V69ZM31.0078 69.6934L15.3598 21.1174L13.4562 21.7306L29.1042 70.3066L31.0078 69.6934ZM14.408 20.424H14.216V22.424H14.408V20.424ZM13.2163 21.4486L13.6963 40.9366L15.6957 40.8874L15.2157 21.3994L13.2163 21.4486ZM13.696 40.912V70H15.696V40.912H13.696ZM14.696 69H0.00800037V71H14.696V69ZM1.008 70V6.64H-0.992V70H1.008ZM0.00800037 7.64H23.528V5.64H0.00800037V7.64ZM22.5727 6.93568L32.5567 39.1917L34.4673 38.6003L24.4833 6.34431L22.5727 6.93568ZM32.5452 39.1515L36.0972 52.5915L38.0308 52.0805L34.4788 38.6405L32.5452 39.1515ZM37.064 53.336H37.256V51.336H37.064V53.336ZM38.2206 52.5997L41.8686 39.2557L39.9394 38.7283L36.2914 52.0723L38.2206 52.5997ZM41.8603 39.2843L51.7483 6.93229L49.8357 6.34771L39.9477 38.6997L41.8603 39.2843ZM50.792 7.64H73.352V5.64H50.792V7.64ZM92.0938 69.328L91.6657 70.2317L91.6798 70.2384L91.6942 70.2447L92.0938 69.328ZM86.3337 63.856L87.2047 63.3647L86.3337 63.856ZM84.2217 22V21H83.2217V22H84.2217ZM100.542 22H101.542V21H100.542V22ZM102.366 56.656L103.073 55.9489L102.366 56.656ZM110.814 57.904L111.165 58.8403L111.19 58.8309L111.215 58.8202L110.814 57.904ZM113.502 55.984L114.237 56.6623L114.249 56.6488L114.261 56.6348L113.502 55.984ZM115.23 52.624L114.277 52.3208L114.272 52.335L114.268 52.3493L115.23 52.624ZM115.902 22V21H114.902V22H115.902ZM132.222 22H133.222V21H132.222V22ZM132.222 70V71H133.222V70H132.222ZM117.63 70L116.631 70.0531L116.682 71H117.63V70ZM117.15 60.976L118.148 60.9229L116.239 60.5635L117.15 60.976ZM110.718 68.56L111.22 69.4245L111.228 69.4202L111.235 69.4157L110.718 68.56ZM100.734 69.96C97.5804 69.96 94.8408 69.4346 92.4933 68.4113L91.6942 70.2447C94.3387 71.3974 97.3591 71.96 100.734 71.96V69.96ZM92.5218 68.4243C90.2889 67.3666 88.5182 65.6931 87.2047 63.3647L85.4628 64.3473C86.9653 67.0109 89.0346 68.9854 91.6657 70.2317L92.5218 68.4243ZM87.2047 63.3647C85.9088 61.0674 85.2217 57.9902 85.2217 54.064H83.2217C83.2217 58.2018 83.9427 61.6526 85.4628 64.3473L87.2047 63.3647ZM85.2217 54.064V22H83.2217V54.064H85.2217ZM84.2217 23H100.542V21H84.2217V23ZM99.5417 22V50.224H101.542V22H99.5417ZM99.5417 50.224C99.5417 53.3701 100.153 55.8577 101.659 57.3631L103.073 55.9489C102.146 55.0223 101.542 53.2219 101.542 50.224H99.5417ZM101.659 57.3631C103.114 58.8185 105.128 59.48 107.55 59.48V57.48C105.491 57.48 104.049 56.9255 103.073 55.9489L101.659 57.3631ZM107.55 59.48C108.815 59.48 110.023 59.2686 111.165 58.8403L110.463 56.9677C109.557 57.3074 108.588 57.48 107.55 57.48V59.48ZM111.215 58.8202C112.367 58.316 113.376 57.5944 114.237 56.6623L112.767 55.3057C112.091 56.0376 111.309 56.596 110.413 56.9878L111.215 58.8202ZM114.261 56.6348C115.138 55.6111 115.775 54.3559 116.191 52.8987L114.268 52.3493C113.917 53.5801 113.401 54.5648 112.742 55.3332L114.261 56.6348ZM116.183 52.9272C116.669 51.3998 116.902 49.6618 116.902 47.728H114.902C114.902 49.5062 114.687 51.0322 114.277 52.3208L116.183 52.9272ZM116.902 47.728V22H114.902V47.728H116.902ZM115.902 23H132.222V21H115.902V23ZM131.222 22V70H133.222V22H131.222ZM132.222 69H117.63V71H132.222V69ZM118.628 69.9469L118.148 60.9229L116.151 61.0291L116.631 70.0531L118.628 69.9469ZM116.239 60.5635C114.773 63.8013 112.753 66.1606 110.2 67.7043L111.235 69.4157C114.186 67.6314 116.455 64.9347 118.061 61.3885L116.239 60.5635ZM110.215 67.6955C107.647 69.1887 104.501 69.96 100.734 69.96V71.96C104.775 71.96 108.285 71.1313 111.22 69.4245L110.215 67.6955ZM149.227 68.656L148.863 69.5875L148.872 69.5909L148.881 69.5941L149.227 68.656ZM139.051 61.84L138.29 61.1919L137.718 61.8632L138.313 62.5143L139.051 61.84ZM146.731 52.816L147.519 52.2004L146.764 51.2341L145.97 52.1679L146.731 52.816ZM153.067 58L152.594 58.8812L152.607 58.888L152.62 58.8944L153.067 58ZM166.891 59.152L167.302 60.0639H167.302L166.891 59.152ZM167.851 54.352L167.182 55.0953L167.204 55.1147L167.227 55.1329L167.851 54.352ZM164.011 52.912L163.815 53.8926L164.011 52.912ZM157.291 51.568L157.093 52.5482L157.095 52.5486L157.291 51.568ZM144.427 46.192L143.729 46.9082L143.739 46.9173L143.748 46.9261L144.427 46.192ZM143.083 29.2L143.912 29.7599L143.919 29.7496L143.083 29.2ZM150.475 23.344L150.88 24.2585L150.887 24.2553L150.894 24.252L150.475 23.344ZM184.939 29.296L185.69 29.9568L186.248 29.3231L185.716 28.6668L184.939 29.296ZM177.163 38.128L176.382 38.7527L177.127 39.6829L177.914 38.7888L177.163 38.128ZM171.211 33.616L170.803 34.5288L171.211 33.616ZM159.979 32.464L160.222 33.4341L160.242 33.4292L160.261 33.4234L159.979 32.464ZM157.675 33.616L158.382 34.3231L157.675 33.616ZM158.059 37.744L157.419 38.5122L157.453 38.5408L157.49 38.5662L158.059 37.744ZM162.571 39.28L162.37 40.2595L162.377 40.261L162.571 39.28ZM171.307 41.008L171.113 41.989L171.121 41.9905L171.128 41.9919L171.307 41.008ZM182.731 62.896L181.899 62.3413L182.731 62.896ZM175.243 68.848L175.633 69.769L175.64 69.7658L175.648 69.7625L175.243 68.848ZM162.667 69.96C157.976 69.96 153.614 69.2097 149.574 67.7179L148.881 69.5941C153.161 71.1743 157.759 71.96 162.667 71.96V69.96ZM149.591 67.7245C145.623 66.1746 142.364 63.9851 139.79 61.1657L138.313 62.5143C141.115 65.5829 144.639 67.9374 148.863 69.5875L149.591 67.7245ZM139.813 62.4881L147.493 53.4641L145.97 52.1679L138.29 61.1919L139.813 62.4881ZM145.943 53.4316C147.64 55.6039 149.866 57.417 152.594 58.8812L153.54 57.1188C151.021 55.767 149.022 54.1241 147.519 52.2004L145.943 53.4316ZM152.62 58.8944C155.459 60.3137 158.59 61.016 161.995 61.016V59.016C158.873 59.016 156.052 58.3743 153.514 57.1056L152.62 58.8944ZM161.995 61.016C164.066 61.016 165.851 60.7168 167.302 60.0639L166.481 58.2401C165.372 58.7392 163.892 59.016 161.995 59.016V61.016ZM167.302 60.0639C168.059 59.7229 168.698 59.2556 169.145 58.6292C169.599 57.994 169.811 57.2576 169.811 56.464H167.811C167.811 56.8864 167.704 57.206 167.518 57.4668C167.325 57.7364 167.003 58.0051 166.481 58.2401L167.302 60.0639ZM169.811 56.464C169.811 55.2966 169.377 54.2922 168.476 53.5711L167.227 55.1329C167.605 55.4358 167.811 55.8394 167.811 56.464H169.811ZM168.52 53.6087C168.069 53.2025 167.459 52.8848 166.762 52.6237C166.056 52.3586 165.2 52.1299 164.207 51.9314L163.815 53.8926C164.743 54.0781 165.487 54.2814 166.06 54.4963C166.644 54.7152 166.994 54.9255 167.182 55.0953L168.52 53.6087ZM164.207 51.9314L157.487 50.5874L157.095 52.5486L163.815 53.8926L164.207 51.9314ZM157.489 50.5878C151.534 49.3841 147.464 47.6388 145.106 45.4579L143.748 46.9261C146.51 49.4812 151.016 51.3199 157.093 52.5482L157.489 50.5878ZM145.125 45.4758C142.846 43.2555 141.683 40.3579 141.683 36.688H139.683C139.683 40.8261 141.016 44.2645 143.729 46.9082L145.125 45.4758ZM141.683 36.688C141.683 34.2814 142.413 31.9779 143.912 29.7599L142.255 28.6401C140.553 31.1581 139.683 33.8466 139.683 36.688H141.683ZM143.919 29.7496C145.389 27.514 147.684 25.6722 150.88 24.2585L150.071 22.4295C146.611 23.9598 143.977 26.022 142.248 28.6504L143.919 29.7496ZM150.894 24.252C154.048 22.7963 158.148 22.04 163.243 22.04V20.04C157.97 20.04 153.558 20.8197 150.056 22.436L150.894 24.252ZM163.243 22.04C168.012 22.04 172.176 22.7304 175.753 24.087L176.462 22.217C172.614 20.7576 168.202 20.04 163.243 20.04V22.04ZM175.753 24.087C179.324 25.4417 182.113 27.394 184.162 29.9252L185.716 28.6668C183.414 25.822 180.314 23.6783 176.462 22.217L175.753 24.087ZM184.189 28.6352L176.413 37.4672L177.914 38.7888L185.69 29.9568L184.189 28.6352ZM177.944 37.5033C176.3 35.4488 174.185 33.8506 171.62 32.7032L170.803 34.5288C173.102 35.5574 174.954 36.9672 176.382 38.7527L177.944 37.5033ZM171.62 32.7032C169.072 31.5632 166.501 30.984 163.915 30.984V32.984C166.194 32.984 168.487 33.4927 170.803 34.5288L171.62 32.7032ZM163.915 30.984C162.315 30.984 160.903 31.1501 159.697 31.5046L160.261 33.4234C161.232 33.1379 162.443 32.984 163.915 32.984V30.984ZM159.737 31.4939C158.612 31.7749 157.654 32.223 156.968 32.9089L158.382 34.3231C158.72 33.985 159.298 33.6651 160.222 33.4341L159.737 31.4939ZM156.968 32.9089C156.256 33.6207 155.907 34.5206 155.907 35.536H157.907C157.907 35.0154 158.07 34.6353 158.382 34.3231L156.968 32.9089ZM155.907 35.536C155.907 36.725 156.474 37.7245 157.419 38.5122L158.699 36.9758C158.109 36.4835 157.907 36.011 157.907 35.536H155.907ZM157.49 38.5662C158.502 39.2668 160.182 39.8091 162.37 40.2595L162.773 38.3005C160.608 37.8549 159.281 37.3732 158.628 36.9218L157.49 38.5662ZM162.377 40.261L171.113 41.989L171.501 40.027L162.765 38.299L162.377 40.261ZM171.128 41.9919C175.954 42.8693 179.26 44.4404 181.227 46.5806L182.7 45.2274C180.314 42.6316 176.516 40.9387 171.486 40.0241L171.128 41.9919ZM181.227 46.5806C183.227 48.7571 184.227 51.361 184.227 54.448H186.227C186.227 50.879 185.052 47.7869 182.7 45.2274L181.227 46.5806ZM184.227 54.448C184.227 57.396 183.449 60.0173 181.899 62.3413L183.563 63.4507C185.342 60.7827 186.227 57.772 186.227 54.448H184.227ZM181.899 62.3413C180.361 64.6484 178.03 66.5219 174.839 67.9335L175.648 69.7625C179.112 68.2301 181.773 66.1356 183.563 63.4507L181.899 62.3413ZM174.854 67.927C171.688 69.2665 167.639 69.96 162.667 69.96V71.96C167.807 71.96 172.143 71.2455 175.633 69.769L174.854 67.927ZM193.119 14.608L192.463 15.3626L192.48 15.3777L192.498 15.392L193.119 14.608ZM193.119 2.704L193.756 3.47497L193.759 3.47222L193.119 2.704ZM207.615 2.704L206.975 3.47222L206.984 3.48025L206.994 3.48804L207.615 2.704ZM207.615 14.608L208.235 15.392L208.245 15.3843L208.255 15.3762L207.615 14.608ZM208.575 22H209.575V21H208.575V22ZM208.575 70V71H209.575V70H208.575ZM192.255 70H191.255V71H192.255V70ZM192.255 22V21H191.255V22H192.255ZM200.415 15.432C197.169 15.432 195.012 14.8316 193.739 13.824L192.498 15.392C194.297 16.8164 197.004 17.432 200.415 17.432V15.432ZM193.775 13.8534C192.595 12.8273 191.911 11.1688 191.911 8.65599H189.911C189.911 11.5192 190.699 13.8287 192.463 15.3626L193.775 13.8534ZM191.911 8.65599C191.911 6.06595 192.601 4.42854 193.756 3.47496L192.482 1.93303C190.692 3.41146 189.911 5.74204 189.911 8.65599H191.911ZM193.759 3.47222C195.029 2.41346 197.177 1.784 200.415 1.784V-0.216002C196.996 -0.216002 194.28 0.43454 192.479 1.93578L193.759 3.47222ZM200.415 1.784C203.582 1.784 205.701 2.41122 206.975 3.47222L208.255 1.93578C206.456 0.436779 203.775 -0.216002 200.415 -0.216002V1.784ZM206.994 3.48804C208.204 4.44603 208.919 6.07927 208.919 8.65599H210.919C210.919 5.72873 210.097 3.39396 208.235 1.91995L206.994 3.48804ZM208.919 8.65599C208.919 11.1557 208.211 12.8097 206.975 13.8398L208.255 15.3762C210.091 13.8463 210.919 11.5323 210.919 8.65599H208.919ZM206.994 13.824C205.719 14.8337 203.591 15.432 200.415 15.432V17.432C203.767 17.432 206.439 16.8143 208.235 15.392L206.994 13.824ZM207.575 22V70H209.575V22H207.575ZM208.575 69H192.255V71H208.575V69ZM193.255 70V22H191.255V70H193.255ZM192.255 23H208.575V21H192.255V23ZM253.6 23.152L253.198 24.0673L253.208 24.0721L253.22 24.0767L253.6 23.152ZM261.184 28.624L260.395 29.2379L260.404 29.2501L260.414 29.262L261.184 28.624ZM264.64 35.92L264.955 36.8693L265.771 36.599L265.626 35.7517L264.64 35.92ZM249.568 40.912L248.581 41.0727L248.77 42.2299L249.883 41.8613L249.568 40.912ZM247.072 34.768L246.298 35.4012L246.314 35.4205L246.331 35.4389L247.072 34.768ZM236.8 34.096L237.355 34.9281L237.364 34.9222L236.8 34.096ZM233.728 38.512L234.671 38.8464L234.674 38.8371L233.728 38.512ZM233.824 53.872L232.892 54.233L232.896 54.2434L233.824 53.872ZM237.088 58.096L236.551 58.9397L236.565 58.9485L236.58 58.9569L237.088 58.096ZM246.016 58.48L246.507 59.3516L246.515 59.3468L246.523 59.3419L246.016 58.48ZM248.704 55.792L249.558 56.3135V56.3134L248.704 55.792ZM250.048 51.568L250.353 50.6156L249.194 50.2445L249.055 51.4534L250.048 51.568ZM264.736 56.272L265.724 56.4291L265.859 55.5814L265.041 55.3196L264.736 56.272ZM261.088 63.856L260.34 63.193L260.338 63.1944L261.088 63.856ZM253.408 69.04L253.037 68.1115L253.408 69.04ZM228.448 68.08L227.995 68.9716L228.007 68.9773L228.448 68.08ZM219.424 59.536L218.551 60.0242L218.555 60.0305L219.424 59.536ZM219.424 32.56L220.293 33.0545L220.297 33.0482L219.424 32.56ZM228.256 24.016L228.71 24.9074L228.715 24.9044L228.256 24.016ZM241.504 22.04C246.28 22.04 250.164 22.7325 253.198 24.0673L254.003 22.2367C250.637 20.7555 246.456 20.04 241.504 20.04V22.04ZM253.22 24.0767C256.356 25.3683 258.73 27.0974 260.395 29.2379L261.974 28.0101C260.054 25.5426 257.372 23.6237 253.981 22.2273L253.22 24.0767ZM260.414 29.262C262.169 31.3799 263.239 33.6528 263.655 36.0883L265.626 35.7517C265.146 32.9391 263.911 30.3481 261.954 27.986L260.414 29.262ZM264.326 34.9707L249.254 39.9627L249.883 41.8613L264.955 36.8693L264.326 34.9707ZM250.555 40.7513C250.092 37.904 249.211 35.6416 247.814 34.0971L246.331 35.4389C247.365 36.5824 248.149 38.416 248.581 41.0727L250.555 40.7513ZM247.846 34.1348C246.461 32.4415 244.448 31.656 241.984 31.656V33.656C244 33.656 245.38 34.2785 246.298 35.4012L247.846 34.1348ZM241.984 31.656C239.777 31.656 237.842 32.1754 236.237 33.2698L237.364 34.9222C238.574 34.0966 240.096 33.656 241.984 33.656V31.656ZM236.246 33.264C234.666 34.3171 233.534 36.0018 232.783 38.1869L234.674 38.8371C235.331 36.9262 236.247 35.6669 237.355 34.928L236.246 33.264ZM232.786 38.1776C232.03 40.3079 231.672 42.9923 231.672 46.192H233.672C233.672 43.1196 234.019 40.6841 234.671 38.8464L232.786 38.1776ZM231.672 46.192C231.672 49.3983 232.063 52.0929 232.892 54.233L234.757 53.511C234.049 51.6831 233.672 49.2577 233.672 46.192H231.672ZM232.896 54.2434C233.723 56.3108 234.928 57.9067 236.551 58.9397L237.625 57.2523C236.432 56.4933 235.462 55.2732 234.753 53.5006L232.896 54.2434ZM236.58 58.9569C238.167 59.8947 240.013 60.344 242.08 60.344V58.344C240.308 58.344 238.826 57.9613 237.597 57.2351L236.58 58.9569ZM242.08 60.344C243.792 60.344 245.288 60.0368 246.507 59.3516L245.526 57.6084C244.696 58.0752 243.568 58.344 242.08 58.344V60.344ZM246.523 59.3419C247.763 58.6128 248.774 57.5956 249.558 56.3135L247.851 55.2705C247.227 56.2924 246.446 57.0671 245.509 57.6181L246.523 59.3419ZM249.558 56.3134C250.353 55.0115 250.837 53.457 251.042 51.6826L249.055 51.4534C248.876 53.007 248.463 54.2685 247.851 55.2706L249.558 56.3134ZM249.743 52.5204L264.431 57.2243L265.041 55.3196L250.353 50.6156L249.743 52.5204ZM263.749 56.1149C263.332 58.7334 262.204 61.088 260.34 63.193L261.837 64.519C263.94 62.144 265.244 59.4426 265.724 56.4291L263.749 56.1149ZM260.338 63.1944C258.54 65.233 256.119 66.8788 253.037 68.1115L253.78 69.9685C257.098 68.6412 259.797 66.831 261.838 64.5176L260.338 63.1944ZM253.037 68.1115C249.98 69.3343 246.367 69.96 242.176 69.96V71.96C246.561 71.96 250.437 71.3057 253.78 69.9685L253.037 68.1115ZM242.176 69.96C237.05 69.96 232.631 69.0226 228.89 67.1826L228.007 68.9773C232.074 70.9774 236.806 71.96 242.176 71.96V69.96ZM228.901 67.1885C225.167 65.2908 222.306 62.5787 220.293 59.0415L218.555 60.0305C220.767 63.9173 223.921 66.9012 227.995 68.9715L228.901 67.1885ZM220.297 59.0478C218.285 55.4497 217.256 51.1133 217.256 46H215.256C215.256 51.3827 216.34 56.0703 218.551 60.0242L220.297 59.0478ZM217.256 46C217.256 40.886 218.285 36.5849 220.293 33.0545L218.555 32.0655C216.34 35.9591 215.256 40.618 215.256 46H217.256ZM220.297 33.0482C222.314 29.4412 225.114 26.7355 228.71 24.9074L227.803 23.1246C223.846 25.1365 220.758 28.1267 218.551 32.0718L220.297 33.0482ZM228.715 24.9044C232.393 23.0043 236.647 22.04 241.504 22.04V20.04C236.377 20.04 231.8 21.0596 227.797 23.1276L228.715 24.9044Z" fill="url(#paint0_linear_241_479)"/>
<defs>
<linearGradient id="paint0_linear_241_479" x1="-7" y1="37" x2="268" y2="37" gradientUnits="userSpaceOnUse">
<stop stop-color="#E8B41C"/>
<stop offset="0.0001" stop-color="#E8B41C" stop-opacity="0"/>
<stop offset="1" stop-color="#003F7D"/>
</linearGradient>
</defs>
</svg>
