<svg width="415" height="70" viewBox="0 0 415 70" fill="none" xmlns="http://www.w3.org/2000/svg">
<path opacity="0.5" d="M42.344 8.136L41.929 9.04582H41.929L42.344 8.136ZM50.696 15.336L49.8432 15.8582V15.8582L50.696 15.336ZM50.696 38.184L49.8432 37.6618L50.696 38.184ZM42.344 45.384L41.929 44.4742L42.344 45.384ZM16.52 47.88V46.88H15.52V47.88H16.52ZM16.52 69V70H17.52V69H16.52ZM0.00800037 69H-0.992V70H0.00800037V69ZM0.00800037 5.64V4.64H-0.992V5.64H0.00800037ZM34.28 33.384L34.9117 34.1592L34.9147 34.1567L34.28 33.384ZM34.28 20.232L33.6315 20.9932L33.6466 21.0061L33.6622 21.0183L34.28 20.232ZM16.52 18.024V17.024H15.52V18.024H16.52ZM16.52 35.496H15.52V36.496H16.52V35.496ZM29.096 6.64C34.1771 6.64 38.4435 7.45595 41.929 9.04582L42.759 7.22618C38.9485 5.48804 34.3829 4.64 29.096 4.64V6.64ZM41.929 9.04582C45.4128 10.6349 48.0366 12.9075 49.8432 15.8582L51.5489 14.8138C49.5154 11.4925 46.5712 8.96507 42.759 7.22618L41.929 9.04582ZM49.8432 15.8582C51.6479 18.8058 52.576 22.424 52.576 26.76H54.576C54.576 22.136 53.5841 18.1382 51.5489 14.8138L49.8432 15.8582ZM52.576 26.76C52.576 31.096 51.6479 34.7142 49.8432 37.6618L51.5489 38.7062C53.5841 35.3818 54.576 31.384 54.576 26.76H52.576ZM49.8432 37.6618C48.0366 40.6125 45.4128 42.8851 41.929 44.4742L42.759 46.2938C46.5712 44.5549 49.5154 42.0275 51.5489 38.7062L49.8432 37.6618ZM41.929 44.4742C38.4435 46.064 34.1771 46.88 29.096 46.88V48.88C34.3829 48.88 38.9485 48.032 42.759 46.2938L41.929 44.4742ZM29.096 46.88H16.52V48.88H29.096V46.88ZM15.52 47.88V69H17.52V47.88H15.52ZM16.52 68H0.00800037V70H16.52V68ZM1.008 69V5.64H-0.992V69H1.008ZM0.00800037 6.64H29.096V4.64H0.00800037V6.64ZM26.504 36.496C30.0701 36.496 32.9303 35.7737 34.9117 34.1592L33.6483 32.6088C32.1737 33.8103 29.8499 34.496 26.504 34.496V36.496ZM34.9147 34.1567C36.9981 32.4454 37.968 29.9157 37.968 26.76H35.968C35.968 29.4923 35.1459 31.3786 33.6453 32.6113L34.9147 34.1567ZM37.968 26.76C37.968 23.6065 36.9985 21.0962 34.8978 19.4457L33.6622 21.0183C35.1455 22.1838 35.968 24.0255 35.968 26.76H37.968ZM34.9285 19.4708C32.9458 17.7818 30.0784 17.024 26.504 17.024V19.024C29.8416 19.024 32.1582 19.7382 33.6315 20.9932L34.9285 19.4708ZM26.504 17.024H16.52V19.024H26.504V17.024ZM15.52 18.024V35.496H17.52V18.024H15.52ZM16.52 36.496H26.504V34.496H16.52V36.496ZM96.137 23.016L95.6719 23.9012L95.6808 23.9059L95.6898 23.9104L96.137 23.016ZM105.065 31.56L104.192 32.0482L104.197 32.057L104.202 32.0657L105.065 31.56ZM105.065 58.536L104.199 58.0367L104.196 58.0415L105.065 58.536ZM96.137 67.08L96.5903 67.9714L96.596 67.9684L96.137 67.08ZM69.737 67.08L69.2779 67.9685L69.2898 67.9744L69.737 67.08ZM60.713 58.536L59.8402 59.0242L59.8452 59.033L59.8503 59.0417L60.713 58.536ZM60.713 31.56L59.8466 31.0607L59.8438 31.0655L60.713 31.56ZM69.737 23.016L70.1843 23.9105L70.196 23.9044L69.737 23.016ZM75.017 37.32L74.0746 36.9856L75.017 37.32ZM75.017 52.68L74.0745 53.0144L74.0781 53.0243L75.017 52.68ZM78.089 57L77.5078 57.8137L77.5209 57.8231L77.5343 57.8321L78.089 57ZM87.785 57L88.3397 57.8321L88.3531 57.8231L88.3662 57.8137L87.785 57ZM90.857 52.68L91.7959 53.0243L91.7994 53.0144L90.857 52.68ZM90.857 37.32L91.7994 36.9856L90.857 37.32ZM82.889 21.04C87.8129 21.04 92.0637 22.0054 95.6719 23.9012L96.6021 22.1308C92.6583 20.0586 88.0771 19.04 82.889 19.04V21.04ZM95.6898 23.9104C99.3489 25.74 102.177 28.4457 104.192 32.0482L105.938 31.0718C103.729 27.1223 100.605 24.132 96.5842 22.1216L95.6898 23.9104ZM104.202 32.0657C106.271 35.5939 107.329 39.8908 107.329 45H109.329C109.329 39.6132 108.211 34.9501 105.928 31.0543L104.202 32.0657ZM107.329 45C107.329 50.1085 106.271 54.4408 104.199 58.0367L105.931 59.0353C108.211 55.0792 109.329 50.3875 109.329 45H107.329ZM104.196 58.0415C102.181 61.5831 99.3482 64.2953 95.678 66.1916L96.596 67.9684C100.606 65.8967 103.725 62.9129 105.934 59.0305L104.196 58.0415ZM95.6838 66.1886C92.0729 68.0247 87.8177 68.96 82.889 68.96V70.96C88.0723 70.96 92.6491 69.9753 96.5902 67.9714L95.6838 66.1886ZM82.889 68.96C78.0932 68.96 73.8661 68.0265 70.1842 66.1856L69.2898 67.9744C73.2879 69.9735 77.8288 70.96 82.889 70.96V68.96ZM70.196 66.1916C66.5233 64.294 63.6556 61.5783 61.5757 58.0303L59.8503 59.0417C62.1224 62.9177 65.2707 65.898 69.278 67.9684L70.196 66.1916ZM61.5858 58.0478C59.5732 54.4497 58.545 50.1133 58.545 45H56.545C56.545 50.3827 57.6288 55.0703 59.8402 59.0242L61.5858 58.0478ZM58.545 45C58.545 39.886 59.5735 35.5849 61.5822 32.0545L59.8438 31.0655C57.6285 34.9591 56.545 39.618 56.545 45H58.545ZM61.5794 32.0593C63.659 28.4505 66.5225 25.7413 70.1842 23.9104L69.2898 22.1216C65.2715 24.1307 62.1189 27.1175 59.8466 31.0607L61.5794 32.0593ZM70.196 23.9044C73.8754 22.0034 78.0982 21.04 82.889 21.04V19.04C77.8238 19.04 73.2786 20.0606 69.278 22.1276L70.196 23.9044ZM82.889 30.656C80.8658 30.656 79.0661 31.1468 77.5343 32.1679L78.6437 33.832C79.7999 33.0612 81.2002 32.656 82.889 32.656V30.656ZM77.5343 32.1679C75.963 33.2155 74.8288 34.8599 74.0746 36.9856L75.9594 37.6544C76.6132 35.8121 77.527 34.5765 78.6437 33.832L77.5343 32.1679ZM74.0746 36.9856C73.3187 39.1159 72.961 41.8003 72.961 45H74.961C74.961 41.9277 75.3073 39.4921 75.9594 37.6544L74.0746 36.9856ZM72.961 45C72.961 48.1997 73.3187 50.8841 74.0746 53.0144L75.9594 52.3456C75.3073 50.5079 74.961 48.0723 74.961 45H72.961ZM74.0781 53.0243C74.8348 55.0878 75.9647 56.7116 77.5078 57.8137L78.6702 56.1863C77.5253 55.3684 76.6072 54.1122 75.9559 52.3357L74.0781 53.0243ZM77.5343 57.8321C79.0661 58.8532 80.8658 59.344 82.889 59.344V57.344C81.2002 57.344 79.7999 56.9388 78.6437 56.1679L77.5343 57.8321ZM82.889 59.344C84.9685 59.344 86.8025 58.8568 88.3397 57.8321L87.2303 56.1679C86.0795 56.9352 84.6495 57.344 82.889 57.344V59.344ZM88.3662 57.8137C89.9093 56.7116 91.0392 55.0878 91.7959 53.0243L89.9181 52.3357C89.2668 54.1122 88.3487 55.3684 87.2038 56.1863L88.3662 57.8137ZM91.7994 53.0144C92.5553 50.8841 92.913 48.1997 92.913 45H90.913C90.913 48.0723 90.5667 50.5079 89.9146 52.3456L91.7994 53.0144ZM92.913 45C92.913 41.8003 92.5553 39.1159 91.7994 36.9856L89.9146 37.6544C90.5667 39.4921 90.913 41.9277 90.913 45H92.913ZM91.7994 36.9856C91.0452 34.8599 89.911 33.2155 88.3397 32.1679L87.2303 33.832C88.347 34.5765 89.2608 35.8121 89.9146 37.6544L91.7994 36.9856ZM88.3397 32.1679C86.8025 31.1431 84.9685 30.656 82.889 30.656V32.656C84.6495 32.656 86.0795 33.0648 87.2303 33.832L88.3397 32.1679ZM123.27 67.08L122.711 67.9093L122.721 67.9162L122.732 67.9229L123.27 67.08ZM116.358 58.536L115.439 58.9318L115.442 58.9385L115.445 58.9451L116.358 58.536ZM116.454 31.56L115.547 31.138L115.544 31.1444L115.541 31.1509L116.454 31.56ZM123.558 23.016L123.015 22.1759L123.007 22.1812L123.558 23.016ZM144.582 24.072L143.866 24.7705L143.875 24.7792L143.883 24.7876L144.582 24.072ZM149.766 34.152L150.561 34.758L150.831 34.4045L150.749 33.9677L149.766 34.152ZM148.23 36.168H147.23V39.1305L149.025 36.774L148.23 36.168ZM148.23 0.647999V-0.352001H147.23V0.647999H148.23ZM164.55 0.647999H165.55V-0.352001H164.55V0.647999ZM164.55 69V70H165.55V69H164.55ZM149.958 69L148.96 69.0646L149.02 70H149.958V69ZM148.902 52.68L149.502 51.88L147.764 50.5763L147.904 52.7446L148.902 52.68ZM150.822 54.12L151.815 54.2391L151.883 53.6662L151.422 53.32L150.822 54.12ZM147.846 62.472L147.017 61.9121L147.012 61.9199L147.007 61.9278L147.846 62.472ZM141.894 68.04L142.369 68.9197L142.377 68.9152L141.894 68.04ZM144.102 56.52L144.702 57.32L144.708 57.3154L144.102 56.52ZM147.174 52.008L148.116 52.3424L147.174 52.008ZM147.174 37.896L146.225 38.2122L146.232 38.2316L146.239 38.2507L147.174 37.896ZM144.198 33.576L143.573 34.3569L143.594 34.3739L143.617 34.3897L144.198 33.576ZM132.774 35.208L131.988 34.5891L131.986 34.5924L132.774 35.208ZM132.774 54.888L131.977 55.4919L131.981 55.4978L131.986 55.5036L132.774 54.888ZM133.734 68.96C129.934 68.96 126.637 68.0432 123.808 66.2371L122.732 67.9229C125.918 69.9568 129.597 70.96 133.734 70.96V68.96ZM123.829 66.2507C121.061 64.3856 118.869 61.694 117.27 58.1269L115.445 58.9451C117.174 62.802 119.591 65.8064 122.711 67.9093L123.829 66.2507ZM117.276 58.1402C115.743 54.5831 114.958 50.2768 114.958 45.192H112.958C112.958 50.4752 113.773 55.0649 115.439 58.9318L117.276 58.1402ZM114.958 45.192C114.958 39.9138 115.775 35.5181 117.366 31.9691L115.541 31.1509C113.804 35.0259 112.958 39.7182 112.958 45.192H114.958ZM117.36 31.982C119.021 28.4145 121.275 25.7195 124.108 23.8508L123.007 22.1812C119.824 24.2805 117.342 27.2815 115.547 31.138L117.36 31.982ZM124.1 23.856C126.997 21.9853 130.325 21.04 134.118 21.04V19.04C129.974 19.04 126.263 20.0787 123.015 22.176L124.1 23.856ZM134.118 21.04C138.247 21.04 141.46 22.3061 143.866 24.7705L145.297 23.3735C142.455 20.4618 138.693 19.04 134.118 19.04V21.04ZM143.883 24.7876C146.408 27.2523 148.048 30.4193 148.783 34.3363L150.749 33.9677C149.947 29.6927 148.131 26.1397 145.28 23.3564L143.883 24.7876ZM148.97 33.546L147.434 35.562L149.025 36.774L150.561 34.758L148.97 33.546ZM149.23 36.168V0.647999H147.23V36.168H149.23ZM148.23 1.648H164.55V-0.352001H148.23V1.648ZM163.55 0.647999V69H165.55V0.647999H163.55ZM164.55 68H149.958V70H164.55V68ZM150.956 68.9354L149.9 52.6154L147.904 52.7446L148.96 69.0646L150.956 68.9354ZM148.302 53.48L150.222 54.92L151.422 53.32L149.502 51.88L148.302 53.48ZM149.829 54.0009C149.461 57.0634 148.517 59.6919 147.017 61.9121L148.674 63.0319C150.374 60.5161 151.414 57.5766 151.815 54.2391L149.829 54.0009ZM147.007 61.9278C145.559 64.1602 143.696 65.9015 141.41 67.1648L142.377 68.9152C144.956 67.4905 147.061 65.5198 148.685 63.0162L147.007 61.9278ZM141.418 67.1603C139.216 68.3508 136.663 68.96 133.734 68.96V70.96C136.948 70.96 139.836 70.2892 142.369 68.9197L141.418 67.1603ZM139.398 58.96C141.434 58.96 143.222 58.4299 144.702 57.32L143.502 55.72C142.422 56.5301 141.073 56.96 139.398 56.96V58.96ZM144.708 57.3154C146.24 56.1477 147.363 54.4644 148.116 52.3424L146.231 51.6736C145.576 53.5196 144.651 54.8443 143.496 55.7246L144.708 57.3154ZM148.116 52.3424C148.869 50.2196 149.23 47.6669 149.23 44.712H147.23C147.23 47.5171 146.886 49.8284 146.231 51.6736L148.116 52.3424ZM149.23 44.712C149.23 41.943 148.868 39.543 148.109 37.5413L146.239 38.2507C146.888 39.961 147.23 42.105 147.23 44.712H149.23ZM148.122 37.5798C147.431 35.5053 146.331 33.8706 144.779 32.7623L143.617 34.3897C144.753 35.2014 145.637 36.4467 146.225 38.2122L148.122 37.5798ZM144.822 32.7951C143.342 31.6107 141.545 31.04 139.494 31.04V33.04C141.154 33.04 142.494 33.4933 143.573 34.3569L144.822 32.7951ZM139.494 31.04C136.388 31.04 133.852 32.2236 131.988 34.5891L133.559 35.8269C135.023 33.9684 136.967 33.04 139.494 33.04V31.04ZM131.986 34.5924C130.18 36.904 129.374 40.4424 129.374 45H131.374C131.374 40.5976 132.168 37.608 133.562 35.8236L131.986 34.5924ZM129.374 45C129.374 49.5616 130.181 53.1221 131.977 55.4919L133.571 54.2841C132.166 52.4299 131.374 49.3984 131.374 45H129.374ZM131.986 55.5036C133.793 57.8166 136.304 58.96 139.398 58.96V56.96C136.86 56.96 134.955 56.0554 133.562 54.2724L131.986 55.5036ZM209.665 22.152L209.263 23.0673L209.273 23.0721L209.285 23.0767L209.665 22.152ZM217.249 27.624L216.46 28.2379L216.469 28.2501L216.479 28.262L217.249 27.624ZM220.705 34.92L221.02 35.8693L221.836 35.599L221.691 34.7517L220.705 34.92ZM205.633 39.912L204.646 40.0727L204.835 41.2299L205.948 40.8613L205.633 39.912ZM203.137 33.768L202.363 34.4012L202.379 34.4205L202.396 34.4389L203.137 33.768ZM192.865 33.096L193.42 33.9281L193.429 33.9222L192.865 33.096ZM189.793 37.512L190.736 37.8464L190.739 37.8371L189.793 37.512ZM189.889 52.872L188.957 53.233L188.961 53.2434L189.889 52.872ZM193.153 57.096L192.616 57.9397L192.63 57.9485L192.645 57.9569L193.153 57.096ZM202.081 57.48L202.572 58.3516L202.58 58.3468L202.588 58.3419L202.081 57.48ZM204.769 54.792L205.623 55.3135V55.3134L204.769 54.792ZM206.113 50.568L206.418 49.6156L205.259 49.2445L205.12 50.4534L206.113 50.568ZM220.801 55.272L221.789 55.4291L221.924 54.5814L221.106 54.3196L220.801 55.272ZM217.153 62.856L216.405 62.193L216.403 62.1944L217.153 62.856ZM209.473 68.04L209.102 67.1115L209.473 68.04ZM184.513 67.08L184.06 67.9716L184.072 67.9773L184.513 67.08ZM175.489 58.536L174.616 59.0242L174.62 59.0305L175.489 58.536ZM175.489 31.56L176.358 32.0545L176.362 32.0482L175.489 31.56ZM184.321 23.016L184.775 23.9074L184.78 23.9044L184.321 23.016ZM197.569 21.04C202.345 21.04 206.229 21.7325 209.263 23.0673L210.068 21.2367C206.702 19.7555 202.521 19.04 197.569 19.04V21.04ZM209.285 23.0767C212.421 24.3683 214.795 26.0974 216.46 28.2379L218.039 27.0101C216.119 24.5426 213.437 22.6237 210.046 21.2273L209.285 23.0767ZM216.479 28.262C218.234 30.3799 219.304 32.6528 219.72 35.0883L221.691 34.7517C221.211 31.9391 219.976 29.3481 218.019 26.986L216.479 28.262ZM220.391 33.9707L205.319 38.9627L205.948 40.8613L221.02 35.8693L220.391 33.9707ZM206.62 39.7513C206.157 36.904 205.276 34.6416 203.879 33.0971L202.396 34.4389C203.43 35.5824 204.214 37.416 204.646 40.0727L206.62 39.7513ZM203.911 33.1348C202.526 31.4415 200.513 30.656 198.049 30.656V32.656C200.065 32.656 201.445 33.2785 202.363 34.4012L203.911 33.1348ZM198.049 30.656C195.842 30.656 193.907 31.1754 192.302 32.2698L193.429 33.9222C194.639 33.0966 196.161 32.656 198.049 32.656V30.656ZM192.311 32.264C190.731 33.3171 189.599 35.0018 188.848 37.1869L190.739 37.8371C191.396 35.9262 192.312 34.6669 193.42 33.928L192.311 32.264ZM188.851 37.1776C188.095 39.3079 187.737 41.9923 187.737 45.192H189.737C189.737 42.1196 190.084 39.6841 190.736 37.8464L188.851 37.1776ZM187.737 45.192C187.737 48.3983 188.128 51.0929 188.957 53.233L190.822 52.511C190.114 50.6831 189.737 48.2577 189.737 45.192H187.737ZM188.961 53.2434C189.788 55.3108 190.993 56.9067 192.616 57.9397L193.69 56.2523C192.497 55.4933 191.527 54.2732 190.818 52.5006L188.961 53.2434ZM192.645 57.9569C194.232 58.8947 196.078 59.344 198.145 59.344V57.344C196.373 57.344 194.891 56.9613 193.662 56.2351L192.645 57.9569ZM198.145 59.344C199.857 59.344 201.353 59.0368 202.572 58.3516L201.591 56.6084C200.761 57.0752 199.633 57.344 198.145 57.344V59.344ZM202.588 58.3419C203.828 57.6128 204.839 56.5956 205.623 55.3135L203.916 54.2705C203.292 55.2924 202.511 56.0671 201.574 56.6181L202.588 58.3419ZM205.623 55.3134C206.418 54.0115 206.902 52.457 207.107 50.6826L205.12 50.4534C204.941 52.007 204.528 53.2685 203.916 54.2706L205.623 55.3134ZM205.808 51.5204L220.496 56.2243L221.106 54.3196L206.418 49.6156L205.808 51.5204ZM219.814 55.1149C219.397 57.7334 218.269 60.088 216.405 62.193L217.902 63.519C220.005 61.144 221.309 58.4426 221.789 55.4291L219.814 55.1149ZM216.403 62.1944C214.605 64.233 212.184 65.8788 209.102 67.1115L209.845 68.9685C213.163 67.6412 215.862 65.831 217.903 63.5176L216.403 62.1944ZM209.102 67.1115C206.045 68.3343 202.432 68.96 198.241 68.96V70.96C202.626 70.96 206.502 70.3057 209.845 68.9685L209.102 67.1115ZM198.241 68.96C193.115 68.96 188.696 68.0226 184.955 66.1826L184.072 67.9773C188.139 69.9774 192.871 70.96 198.241 70.96V68.96ZM184.966 66.1885C181.232 64.2908 178.371 61.5787 176.358 58.0415L174.62 59.0305C176.831 62.9173 179.986 65.9012 184.06 67.9715L184.966 66.1885ZM176.362 58.0478C174.349 54.4497 173.321 50.1133 173.321 45H171.321C171.321 50.3827 172.405 55.0703 174.616 59.0242L176.362 58.0478ZM173.321 45C173.321 39.886 174.35 35.5849 176.358 32.0545L174.62 31.0655C172.405 34.9591 171.321 39.618 171.321 45H173.321ZM176.362 32.0482C178.379 28.4412 181.179 25.7355 184.774 23.9074L183.868 22.1246C179.911 24.1365 176.823 27.1267 174.616 31.0718L176.362 32.0482ZM184.78 23.9044C188.458 22.0043 192.712 21.04 197.569 21.04V19.04C192.442 19.04 187.865 20.0596 183.862 22.1276L184.78 23.9044ZM252.71 33.288L251.968 33.9589L251.985 33.9774L252.003 33.9951L252.71 33.288ZM242.246 32.904L242.817 33.7249L242.824 33.72L242.246 32.904ZM239.174 38.472L238.944 39.4452L239.938 39.6799L240.152 38.6815L239.174 38.472ZM225.35 35.208L224.368 35.0171L224.185 35.9604L225.12 36.1812L225.35 35.208ZM232.454 24.168L233.037 24.9808L232.454 24.168ZM260.582 22.152L260.186 23.0702L260.197 23.0748L260.208 23.0792L260.582 22.152ZM268.166 28.296L267.319 28.8278L267.326 28.8393L267.334 28.8507L268.166 28.296ZM276.998 59.208L277.993 59.3105L278.156 57.7227L276.656 58.2682L276.998 59.208ZM276.038 68.52L276.461 69.4262L276.975 69.1865L277.033 68.6226L276.038 68.52ZM262.406 68.712L262.008 69.6296L262.021 69.6352L262.035 69.6405L262.406 68.712ZM257.894 65.064L257.057 65.6113L257.062 65.6188L257.067 65.6263L257.894 65.064ZM256.262 58.248L255.916 57.3097L255.262 57.5507V58.248H256.262ZM258.086 57.576H259.086V56.1419L257.74 56.6377L258.086 57.576ZM255.59 64.488L254.845 63.8205L254.839 63.8277L254.833 63.8351L255.59 64.488ZM249.254 68.616L248.931 67.6696L248.924 67.6721L249.254 68.616ZM232.646 68.424L233.034 67.5024L232.646 68.424ZM226.982 64.008L226.142 64.5501L226.152 64.566L226.163 64.5815L226.982 64.008ZM228.134 48.168L227.397 47.4923L227.396 47.4932L228.134 48.168ZM238.022 43.368L238.218 44.3486L238.224 44.3474L238.022 43.368ZM256.166 39.624L257.166 39.6351L257.18 38.3937L255.964 38.6446L256.166 39.624ZM256.07 48.264L256.274 49.243L257.061 49.079L257.07 48.2751L256.07 48.264ZM246.854 50.184L247.05 51.1646L247.058 51.163L246.854 50.184ZM242.534 51.912L243.152 52.6983L243.159 52.6929L242.534 51.912ZM242.726 58.344L243.293 57.52L242.726 58.344ZM249.446 58.92L249.148 57.9655L249.139 57.9683L249.13 57.9713L249.446 58.92ZM252.134 57.48L252.774 58.2482L252.792 58.2331L252.81 58.2172L252.134 57.48ZM253.958 54.888L254.874 55.2888L253.958 54.888ZM255.63 38.568C255.63 36.1295 254.927 34.0909 253.417 32.5809L252.003 33.9951C253.053 35.0451 253.63 36.5265 253.63 38.568H255.63ZM253.452 32.6171C252.014 31.0283 250.061 30.272 247.718 30.272V32.272C249.599 32.272 250.974 32.8597 251.968 33.9589L253.452 32.6171ZM247.718 30.272C245.425 30.272 243.393 30.8659 241.668 32.088L242.824 33.72C244.171 32.7661 245.787 32.272 247.718 32.272V30.272ZM241.675 32.0831C239.908 33.3126 238.798 35.4547 238.196 38.2625L240.152 38.6815C240.702 36.1133 241.64 34.5434 242.817 33.7249L241.675 32.0831ZM239.404 37.4988L225.58 34.2348L225.12 36.1812L238.944 39.4452L239.404 37.4988ZM226.332 35.3989C227.179 31.0433 229.403 27.5851 233.037 24.9808L231.871 23.3552C227.825 26.2549 225.313 30.1567 224.368 35.0171L226.332 35.3989ZM233.037 24.9808C236.643 22.396 241.816 21.04 248.678 21.04V19.04C241.588 19.04 235.945 20.4359 231.871 23.3552L233.037 24.9808ZM248.678 21.04C253.255 21.04 257.08 21.7303 260.186 23.0702L260.978 21.2338C257.556 19.7577 253.445 19.04 248.678 19.04V21.04ZM260.208 23.0792C263.362 24.3531 265.715 26.2726 267.319 28.8278L269.013 27.7642C267.161 24.8154 264.458 22.6389 260.956 21.2248L260.208 23.0792ZM267.334 28.8507C268.994 31.3403 269.854 34.464 269.854 38.28H271.854C271.854 34.16 270.922 30.6277 268.998 27.7413L267.334 28.8507ZM269.854 38.28V55.848H271.854V38.28H269.854ZM269.854 55.848C269.854 57.225 270.161 58.4446 270.95 59.3239C271.757 60.2238 272.91 60.592 274.214 60.592V58.592C273.278 58.592 272.751 58.3362 272.438 57.9881C272.107 57.6194 271.854 56.9669 271.854 55.848H269.854ZM274.214 60.592C275.427 60.592 276.484 60.4591 277.34 60.1478L276.656 58.2682C276.104 58.4689 275.305 58.592 274.214 58.592V60.592ZM276.003 59.1055L275.043 68.4174L277.033 68.6226L277.993 59.3105L276.003 59.1055ZM275.615 67.6138C273.861 68.4325 271.678 68.864 269.03 68.864V70.864C271.886 70.864 274.375 70.3995 276.461 69.4262L275.615 67.6138ZM269.03 68.864C266.636 68.864 264.558 68.4956 262.777 67.7835L262.035 69.6405C264.094 70.4644 266.432 70.864 269.03 70.864V68.864ZM262.804 67.7944C261.043 67.0314 259.694 65.9322 258.721 64.5017L257.067 65.6263C258.27 67.3958 259.929 68.7286 262.008 69.6296L262.804 67.7944ZM258.731 64.5168C257.774 63.0525 257.262 61.1752 257.262 58.824H255.262C255.262 61.4648 255.838 63.7475 257.057 65.6113L258.731 64.5168ZM257.262 58.824V58.248H255.262V58.824H257.262ZM256.608 59.1863L258.432 58.5143L257.74 56.6377L255.916 57.3097L256.608 59.1863ZM257.086 57.576C257.086 60.1093 256.327 62.1675 254.845 63.8205L256.335 65.1555C258.181 63.0965 259.086 60.5467 259.086 57.576H257.086ZM254.833 63.8351C253.363 65.5394 251.409 66.8234 248.931 67.6696L249.577 69.5623C252.347 68.6166 254.617 67.1486 256.347 65.1409L254.833 63.8351ZM248.924 67.6721C246.474 68.5296 243.898 68.96 241.19 68.96V70.96C244.114 70.96 246.914 70.4944 249.584 69.5599L248.924 67.6721ZM241.19 68.96C238.029 68.96 235.318 68.464 233.034 67.5024L232.258 69.3456C234.838 70.432 237.823 70.96 241.19 70.96V68.96ZM233.034 67.5024C230.753 66.542 229.024 65.1813 227.801 63.4345L226.163 64.5815C227.628 66.6747 229.675 68.258 232.258 69.3456L233.034 67.5024ZM227.822 63.4659C226.667 61.6758 226.062 59.4422 226.062 56.712H224.062C224.062 59.7418 224.737 62.3722 226.142 64.5501L227.822 63.4659ZM226.062 56.712C226.062 53.4686 227.016 50.8727 228.872 48.8428L227.396 47.4932C225.156 49.9433 224.062 53.0434 224.062 56.712H226.062ZM228.871 48.8437C230.787 46.7535 233.854 45.2214 238.218 44.3486L237.826 42.3874C233.23 43.3066 229.705 44.9745 227.397 47.4923L228.871 48.8437ZM238.224 44.3474L256.368 40.6034L255.964 38.6446L237.82 42.3886L238.224 44.3474ZM255.166 39.6129L255.07 48.2529L257.07 48.2751L257.166 39.6351L255.166 39.6129ZM255.866 47.285L246.65 49.205L247.058 51.163L256.274 49.243L255.866 47.285ZM246.658 49.2034C244.664 49.6021 243.047 50.2211 241.909 51.1311L243.159 52.6929C243.941 52.0669 245.204 51.5339 247.05 51.1646L246.658 49.2034ZM241.916 51.1257C240.711 52.0722 240.19 53.4945 240.19 55.176H242.19C242.19 53.9135 242.565 53.1598 243.152 52.6983L241.916 51.1257ZM240.19 55.176C240.19 56.8624 240.825 58.2504 242.159 59.168L243.293 57.52C242.579 57.0296 242.19 56.3056 242.19 55.176H240.19ZM242.159 59.168C243.372 60.0015 244.792 60.4 246.374 60.4V58.4C245.14 58.4 244.128 58.0945 243.293 57.52L242.159 59.168ZM246.374 60.4C247.561 60.4 248.693 60.2251 249.762 59.8687L249.13 57.9713C248.279 58.2549 247.363 58.4 246.374 58.4V60.4ZM249.744 59.8745C250.884 59.5183 251.898 58.9781 252.774 58.2482L251.494 56.7118C250.834 57.2619 250.056 57.6817 249.148 57.9655L249.744 59.8745ZM252.81 58.2172C253.688 57.4123 254.374 56.431 254.874 55.2888L253.042 54.4872C252.646 55.393 252.116 56.1397 251.458 56.7428L252.81 58.2172ZM254.874 55.2888C255.39 54.1102 255.63 52.7513 255.63 51.24H253.63C253.63 52.5447 253.422 53.6178 253.042 54.4872L254.874 55.2888ZM255.63 51.24V38.568H253.63V51.24H255.63ZM288.72 67.656L288.356 68.5875L288.365 68.5909L288.373 68.5941L288.72 67.656ZM278.544 60.84L277.782 60.1919L277.211 60.8632L277.805 61.5143L278.544 60.84ZM286.224 51.816L287.012 51.2004L286.257 50.2341L285.462 51.1679L286.224 51.816ZM292.56 57L292.087 57.8812L292.1 57.888L292.113 57.8944L292.56 57ZM306.384 58.152L306.794 59.0639L306.384 58.152ZM307.344 53.352L306.675 54.0953L306.696 54.1147L306.719 54.1329L307.344 53.352ZM303.504 51.912L303.308 52.8926L303.504 51.912ZM296.784 50.568L296.586 51.5482L296.588 51.5486L296.784 50.568ZM283.92 45.192L283.222 45.9082L283.231 45.9173L283.241 45.9261L283.92 45.192ZM282.576 28.2L283.404 28.7599L283.411 28.7496L282.576 28.2ZM289.968 22.344L290.372 23.2585L290.38 23.2553L290.387 23.252L289.968 22.344ZM324.432 28.296L325.182 28.9568L325.74 28.3231L325.209 27.6668L324.432 28.296ZM316.656 37.128L315.875 37.7527L316.619 38.6829L317.406 37.7888L316.656 37.128ZM310.704 32.616L310.295 33.5288L310.704 32.616ZM299.472 31.464L299.714 32.4341L299.734 32.4292L299.754 32.4234L299.472 31.464ZM297.168 32.616L297.875 33.3231L297.168 32.616ZM297.552 36.744L296.912 37.5122L296.946 37.5408L296.983 37.5662L297.552 36.744ZM302.064 38.28L301.862 39.2595L301.87 39.261L302.064 38.28ZM310.8 40.008L310.606 40.989L310.613 40.9905L310.621 40.9919L310.8 40.008ZM322.224 61.896L321.392 61.3413L322.224 61.896ZM314.736 67.848L315.125 68.769L315.133 68.7658L315.14 68.7625L314.736 67.848ZM302.16 68.96C297.468 68.96 293.106 68.2097 289.066 66.7179L288.373 68.5941C292.653 70.1743 297.251 70.96 302.16 70.96V68.96ZM289.084 66.7245C285.116 65.1746 281.856 62.9851 279.282 60.1657L277.805 61.5143C280.607 64.5829 284.132 66.9374 288.356 68.5875L289.084 66.7245ZM279.305 61.4881L286.985 52.4641L285.462 51.1679L277.782 60.1919L279.305 61.4881ZM285.436 52.4316C287.133 54.6039 289.358 56.417 292.087 57.8812L293.033 56.1188C290.513 54.767 288.515 53.1241 287.012 51.2004L285.436 52.4316ZM292.113 57.8944C294.951 59.3137 298.082 60.016 301.488 60.016V58.016C298.365 58.016 295.544 57.3743 293.007 56.1056L292.113 57.8944ZM301.488 60.016C303.559 60.016 305.343 59.7168 306.794 59.0639L305.973 57.2401C304.864 57.7392 303.385 58.016 301.488 58.016V60.016ZM306.794 59.0639C307.552 58.7229 308.19 58.2556 308.637 57.6292C309.091 56.994 309.304 56.2576 309.304 55.464H307.304C307.304 55.8864 307.196 56.206 307.01 56.4668C306.817 56.7364 306.496 57.0051 305.973 57.2401L306.794 59.0639ZM309.304 55.464C309.304 54.2966 308.87 53.2922 307.968 52.5711L306.719 54.1329C307.098 54.4358 307.304 54.8394 307.304 55.464H309.304ZM308.013 52.6087C307.561 52.2025 306.951 51.8848 306.255 51.6237C305.548 51.3586 304.692 51.1299 303.7 50.9314L303.308 52.8926C304.235 53.0781 304.979 53.2814 305.553 53.4963C306.136 53.7152 306.486 53.9255 306.675 54.0953L308.013 52.6087ZM303.7 50.9314L296.98 49.5874L296.588 51.5486L303.308 52.8926L303.7 50.9314ZM296.982 49.5878C291.027 48.3841 286.957 46.6388 284.599 44.4579L283.241 45.9261C286.003 48.4812 290.509 50.3199 296.586 51.5482L296.982 49.5878ZM284.618 44.4758C282.339 42.2555 281.176 39.3579 281.176 35.688H279.176C279.176 39.8261 280.509 43.2645 283.222 45.9082L284.618 44.4758ZM281.176 35.688C281.176 33.2814 281.906 30.9779 283.404 28.7599L281.747 27.6401C280.046 30.1581 279.176 32.8466 279.176 35.688H281.176ZM283.411 28.7496C284.882 26.514 287.176 24.6722 290.372 23.2585L289.563 21.4295C286.103 22.9598 283.47 25.022 281.74 27.6504L283.411 28.7496ZM290.387 23.252C293.541 21.7963 297.641 21.04 302.736 21.04V19.04C297.463 19.04 293.051 19.8197 289.549 21.436L290.387 23.252ZM302.736 21.04C307.505 21.04 311.669 21.7304 315.245 23.087L315.954 21.217C312.107 19.7576 307.695 19.04 302.736 19.04V21.04ZM315.245 23.087C318.816 24.4417 321.605 26.394 323.654 28.9252L325.209 27.6668C322.906 24.822 319.807 22.6783 315.954 21.217L315.245 23.087ZM323.681 27.6352L315.905 36.4672L317.406 37.7888L325.182 28.9568L323.681 27.6352ZM317.437 36.5033C315.793 34.4488 313.677 32.8506 311.112 31.7032L310.295 33.5288C312.594 34.5574 314.447 35.9672 315.875 37.7527L317.437 36.5033ZM311.112 31.7032C308.564 30.5632 305.993 29.984 303.408 29.984V31.984C305.686 31.984 307.979 32.4927 310.295 33.5288L311.112 31.7032ZM303.408 29.984C301.808 29.984 300.395 30.1501 299.19 30.5046L299.754 32.4234C300.724 32.1379 301.936 31.984 303.408 31.984V29.984ZM299.229 30.4939C298.105 30.7749 297.147 31.223 296.461 31.9089L297.875 33.3231C298.213 32.985 298.791 32.6651 299.714 32.4341L299.229 30.4939ZM296.461 31.9089C295.749 32.6207 295.4 33.5206 295.4 34.536H297.4C297.4 34.0154 297.563 33.6353 297.875 33.3231L296.461 31.9089ZM295.4 34.536C295.4 35.725 295.966 36.7245 296.912 37.5122L298.192 35.9758C297.601 35.4835 297.4 35.011 297.4 34.536H295.4ZM296.983 37.5662C297.994 38.2668 299.675 38.8091 301.862 39.2595L302.265 37.3005C300.101 36.8549 298.773 36.3732 298.121 35.9218L296.983 37.5662ZM301.87 39.261L310.606 40.989L310.994 39.027L302.258 37.299L301.87 39.261ZM310.621 40.9919C315.447 41.8693 318.753 43.4404 320.719 45.5806L322.192 44.2274C319.807 41.6316 316.009 39.9387 310.979 39.0241L310.621 40.9919ZM320.719 45.5806C322.719 47.7571 323.72 50.361 323.72 53.448H325.72C325.72 49.879 324.544 46.7869 322.192 44.2274L320.719 45.5806ZM323.72 53.448C323.72 56.396 322.941 59.0173 321.392 61.3413L323.056 62.4507C324.834 59.7827 325.72 56.772 325.72 53.448H323.72ZM321.392 61.3413C319.854 63.6484 317.523 65.5219 314.331 66.9335L315.14 68.7625C318.605 67.2301 321.266 65.1356 323.056 62.4507L321.392 61.3413ZM314.346 66.927C311.18 68.2665 307.132 68.96 302.16 68.96V70.96C307.3 70.96 311.635 70.2455 315.125 68.769L314.346 66.927ZM351.811 5.736H352.811V4.42201L351.545 4.77215L351.811 5.736ZM353.443 56.904L352.758 57.6322L352.78 57.6529L352.803 57.6722L353.443 56.904ZM362.083 57.864L362.365 58.8234L362.383 58.8183L362.399 58.8127L362.083 57.864ZM365.155 56.232L366.141 56.063L365.857 54.4087L364.537 55.4457L365.155 56.232ZM366.883 66.312L367.468 67.1235L367.974 66.7586L367.869 66.143L366.883 66.312ZM360.835 69L361.09 69.9671L360.835 69ZM343.843 68.424L343.48 69.3556L343.487 69.3585L343.843 68.424ZM337.699 63.528L336.853 64.0602L336.858 64.0687L336.864 64.0772L337.699 63.528ZM335.491 54.6H334.491V54.6086L334.491 54.6172L335.491 54.6ZM335.491 10.248L335.225 9.28415L334.491 9.48695V10.248H335.491ZM366.115 21H367.115V20H366.115V21ZM366.115 32.616V33.616H367.115V32.616H366.115ZM327.235 32.616H326.235V33.616H327.235V32.616ZM327.235 21V20H326.235V21H327.235ZM350.811 5.736V51.912H352.811V5.736H350.811ZM350.811 51.912C350.811 54.3443 351.382 56.3376 352.758 57.6322L354.129 56.1758C353.328 55.4224 352.811 54.0877 352.811 51.912H350.811ZM352.803 57.6722C354.186 58.8245 356.006 59.344 358.147 59.344V57.344C356.321 57.344 355.005 56.9035 354.083 56.1358L352.803 57.6722ZM358.147 59.344C359.747 59.344 361.16 59.1779 362.365 58.8234L361.801 56.9046C360.831 57.1901 359.619 57.344 358.147 57.344V59.344ZM362.399 58.8127C363.653 58.3947 364.781 57.7979 365.773 57.0183L364.537 55.4457C363.738 56.0741 362.817 56.5653 361.767 56.9153L362.399 58.8127ZM364.17 56.401L365.898 66.481L367.869 66.143L366.141 56.063L364.17 56.401ZM366.299 65.5005C364.822 66.5641 362.925 67.4159 360.581 68.0329L361.09 69.9671C363.609 69.3041 365.745 68.3639 367.468 67.1235L366.299 65.5005ZM360.581 68.0329C358.233 68.6507 355.823 68.96 353.347 68.96V70.96C355.992 70.96 358.573 70.6293 361.09 69.9671L360.581 68.0329ZM353.347 68.96C349.79 68.96 346.748 68.4603 344.199 67.4895L343.487 69.3585C346.315 70.4357 349.609 70.96 353.347 70.96V68.96ZM344.207 67.4924C341.766 66.5398 339.887 65.0363 338.535 62.9788L336.864 64.0772C338.455 66.4997 340.673 68.2602 343.48 69.3556L344.207 67.4924ZM338.546 62.9958C337.267 60.9605 336.553 58.1825 336.491 54.5828L334.491 54.6172C334.557 58.4415 335.316 61.6155 336.853 64.0602L338.546 62.9958ZM336.491 54.6V10.248H334.491V54.6H336.491ZM335.758 11.2118L352.078 6.69984L351.545 4.77215L335.225 9.28415L335.758 11.2118ZM365.115 21V32.616H367.115V21H365.115ZM366.115 31.616H327.235V33.616H366.115V31.616ZM328.235 32.616V21H326.235V32.616H328.235ZM327.235 22H366.115V20H327.235V22ZM378.934 67.656L378.57 68.5875L378.578 68.5909L378.587 68.5941L378.934 67.656ZM368.758 60.84L367.996 60.1919L367.425 60.8632L368.019 61.5143L368.758 60.84ZM376.438 51.816L377.226 51.2004L376.471 50.2341L375.676 51.1679L376.438 51.816ZM382.773 57L382.301 57.8812L382.313 57.888L382.326 57.8944L382.773 57ZM396.598 58.152L397.008 59.0639L396.598 58.152ZM397.558 53.352L396.889 54.0953L396.91 54.1147L396.933 54.1329L397.558 53.352ZM393.718 51.912L393.521 52.8926L393.718 51.912ZM386.998 50.568L386.799 51.5482L386.801 51.5486L386.998 50.568ZM374.134 45.192L373.436 45.9082L373.445 45.9173L373.454 45.9261L374.134 45.192ZM372.79 28.2L373.618 28.7599L373.625 28.7496L372.79 28.2ZM380.182 22.344L380.586 23.2585L380.593 23.2553L380.601 23.252L380.182 22.344ZM414.646 28.296L415.396 28.9568L415.954 28.3231L415.423 27.6668L414.646 28.296ZM406.87 37.128L406.089 37.7527L406.833 38.6829L407.62 37.7888L406.87 37.128ZM400.918 32.616L400.509 33.5288L400.918 32.616ZM389.686 31.464L389.928 32.4341L389.948 32.4292L389.968 32.4234L389.686 31.464ZM387.382 32.616L388.089 33.3231L387.382 32.616ZM387.766 36.744L387.125 37.5122L387.16 37.5408L387.196 37.5662L387.766 36.744ZM392.278 38.28L392.076 39.2595L392.083 39.261L392.278 38.28ZM401.014 40.008L400.819 40.989L400.827 40.9905L400.835 40.9919L401.014 40.008ZM412.438 61.896L411.605 61.3413L412.438 61.896ZM404.95 67.848L405.339 68.769L405.347 68.7658L405.354 68.7625L404.95 67.848ZM392.374 68.96C387.682 68.96 383.32 68.2097 379.28 66.7179L378.587 68.5941C382.867 70.1743 387.465 70.96 392.374 70.96V68.96ZM379.297 66.7245C375.329 65.1746 372.07 62.9851 369.496 60.1657L368.019 61.5143C370.821 64.5829 374.346 66.9374 378.57 68.5875L379.297 66.7245ZM369.519 61.4881L377.199 52.4641L375.676 51.1679L367.996 60.1919L369.519 61.4881ZM375.649 52.4316C377.347 54.6039 379.572 56.417 382.301 57.8812L383.246 56.1188C380.727 54.767 378.728 53.1241 377.226 51.2004L375.649 52.4316ZM382.326 57.8944C385.165 59.3137 388.296 60.016 391.702 60.016V58.016C388.579 58.016 385.758 57.3743 383.221 56.1056L382.326 57.8944ZM391.702 60.016C393.773 60.016 395.557 59.7168 397.008 59.0639L396.187 57.2401C395.078 57.7392 393.598 58.016 391.702 58.016V60.016ZM397.008 59.0639C397.766 58.7229 398.404 58.2556 398.851 57.6292C399.305 56.994 399.518 56.2576 399.518 55.464H397.518C397.518 55.8864 397.41 56.206 397.224 56.4668C397.031 56.7364 396.709 57.0051 396.187 57.2401L397.008 59.0639ZM399.518 55.464C399.518 54.2966 399.084 53.2922 398.182 52.5711L396.933 54.1329C397.311 54.4358 397.518 54.8394 397.518 55.464H399.518ZM398.226 52.6087C397.775 52.2025 397.165 51.8848 396.469 51.6237C395.762 51.3586 394.906 51.1299 393.914 50.9314L393.521 52.8926C394.449 53.0781 395.193 53.2814 395.766 53.4963C396.35 53.7152 396.7 53.9255 396.889 54.0953L398.226 52.6087ZM393.914 50.9314L387.194 49.5874L386.801 51.5486L393.521 52.8926L393.914 50.9314ZM387.196 49.5878C381.241 48.3841 377.17 46.6388 374.813 44.4579L373.454 45.9261C376.217 48.4812 380.722 50.3199 386.799 51.5482L387.196 49.5878ZM374.831 44.4758C372.553 42.2555 371.39 39.3579 371.39 35.688H369.39C369.39 39.8261 370.722 43.2645 373.436 45.9082L374.831 44.4758ZM371.39 35.688C371.39 33.2814 372.119 30.9779 373.618 28.7599L371.961 27.6401C370.26 30.1581 369.39 32.8466 369.39 35.688H371.39ZM373.625 28.7496C375.096 26.514 377.39 24.6722 380.586 23.2585L379.777 21.4295C376.317 22.9598 373.683 25.022 371.954 27.6504L373.625 28.7496ZM380.601 23.252C383.755 21.7963 387.854 21.04 392.95 21.04V19.04C387.677 19.04 383.265 19.8197 379.762 21.436L380.601 23.252ZM392.95 21.04C397.719 21.04 401.882 21.7304 405.459 23.087L406.168 21.217C402.321 19.7576 397.908 19.04 392.95 19.04V21.04ZM405.459 23.087C409.03 24.4417 411.819 26.394 413.868 28.9252L415.423 27.6668C413.12 24.822 410.021 22.6783 406.168 21.217L405.459 23.087ZM413.895 27.6352L406.119 36.4672L407.62 37.7888L415.396 28.9568L413.895 27.6352ZM407.65 36.5033C406.007 34.4488 403.891 32.8506 401.326 31.7032L400.509 33.5288C402.808 34.5574 404.66 35.9672 406.089 37.7527L407.65 36.5033ZM401.326 31.7032C398.778 30.5632 396.207 29.984 393.622 29.984V31.984C395.9 31.984 398.193 32.4927 400.509 33.5288L401.326 31.7032ZM393.622 29.984C392.021 29.984 390.609 30.1501 389.403 30.5046L389.968 32.4234C390.938 32.1379 392.15 31.984 393.622 31.984V29.984ZM389.443 30.4939C388.319 30.7749 387.36 31.223 386.674 31.9089L388.089 33.3231C388.427 32.985 389.004 32.6651 389.928 32.4341L389.443 30.4939ZM386.674 31.9089C385.963 32.6207 385.614 33.5206 385.614 34.536H387.614C387.614 34.0154 387.776 33.6353 388.089 33.3231L386.674 31.9089ZM385.614 34.536C385.614 35.725 386.18 36.7245 387.125 37.5122L388.406 35.9758C387.815 35.4835 387.614 35.011 387.614 34.536H385.614ZM387.196 37.5662C388.208 38.2668 389.888 38.8091 392.076 39.2595L392.479 37.3005C390.315 36.8549 388.987 36.3732 388.335 35.9218L387.196 37.5662ZM392.083 39.261L400.819 40.989L401.208 39.027L392.472 37.299L392.083 39.261ZM400.835 40.9919C405.66 41.8693 408.966 43.4404 410.933 45.5806L412.406 44.2274C410.021 41.6316 406.223 39.9387 401.192 39.0241L400.835 40.9919ZM410.933 45.5806C412.933 47.7571 413.934 50.361 413.934 53.448H415.934C415.934 49.879 414.758 46.7869 412.406 44.2274L410.933 45.5806ZM413.934 53.448C413.934 56.396 413.155 59.0173 411.605 61.3413L413.27 62.4507C415.048 59.7827 415.934 56.772 415.934 53.448H413.934ZM411.605 61.3413C410.067 63.6484 407.736 65.5219 404.545 66.9335L405.354 68.7625C408.819 67.2301 411.48 65.1356 413.27 62.4507L411.605 61.3413ZM404.56 66.927C401.394 68.2665 397.345 68.96 392.374 68.96V70.96C397.514 70.96 401.849 70.2455 405.339 68.769L404.56 66.927Z" fill="url(#paint0_linear_241_567)"/>
<defs>
<linearGradient id="paint0_linear_241_567" x1="-7" y1="36" x2="418" y2="36" gradientUnits="userSpaceOnUse">
<stop stop-color="#E8B41C"/>
<stop offset="1" stop-color="#E84E1C"/>
</linearGradient>
</defs>
</svg>
