<svg width="878" height="70" viewBox="0 0 878 70" fill="none" xmlns="http://www.w3.org/2000/svg">
<path opacity="0.5" d="M18.9612 69L18.0003 69.2766L18.2085 70H18.9612V69ZM0.721231 5.64V4.64H-0.607261L-0.239742 5.91664L0.721231 5.64ZM18.2892 5.64L19.2669 5.42983L19.0971 4.64H18.2892V5.64ZM29.0412 55.656L28.0636 55.8662L30.0165 55.8769L29.0412 55.656ZM40.3692 5.64V4.64H39.5704L39.3939 5.41911L40.3692 5.64ZM55.3452 5.64L56.3192 5.41336L56.1393 4.64H55.3452V5.64ZM66.9612 55.56L65.9873 55.7866L67.9396 55.767L66.9612 55.56ZM77.5212 5.64V4.64H76.7106L76.5429 5.43304L77.5212 5.64ZM94.5132 5.64L95.4738 5.91798L95.8437 4.64H94.5132V5.64ZM76.1772 69V70H76.9289L77.1378 69.278L76.1772 69ZM58.2252 69L57.2537 69.2368L57.4397 70H58.2252V69ZM50.7372 38.28L49.7542 38.4632L49.7592 38.4902L49.7657 38.5168L50.7372 38.28ZM47.8572 22.824L48.8403 22.6408L48.6881 21.824H47.8572V22.824ZM47.6652 22.824V21.824H46.8293L46.6811 22.6467L47.6652 22.824ZM44.8812 38.28L45.8535 38.5139L45.8603 38.4858L45.8654 38.4573L44.8812 38.28ZM37.4892 69V70H38.2771L38.4615 69.2339L37.4892 69ZM19.9222 68.7234L1.6822 5.36335L-0.239742 5.91664L18.0003 69.2766L19.9222 68.7234ZM0.721231 6.64H18.2892V4.64H0.721231V6.64ZM17.3116 5.85017L28.0636 55.8662L30.0189 55.4458L19.2669 5.42983L17.3116 5.85017ZM30.0165 55.8769L41.3445 5.86089L39.3939 5.41911L28.0659 55.4351L30.0165 55.8769ZM40.3692 6.64H55.3452V4.64H40.3692V6.64ZM54.3713 5.86663L65.9873 55.7866L67.9352 55.3334L56.3192 5.41336L54.3713 5.86663ZM67.9396 55.767L78.4996 5.84696L76.5429 5.43304L65.9829 55.353L67.9396 55.767ZM77.5212 6.64H94.5132V4.64H77.5212V6.64ZM93.5527 5.36201L75.2167 68.722L77.1378 69.278L95.4738 5.91798L93.5527 5.36201ZM76.1772 68H58.2252V70H76.1772V68ZM59.1968 68.7632L51.7088 38.0432L49.7657 38.5168L57.2537 69.2368L59.1968 68.7632ZM51.7203 38.0968L48.8403 22.6408L46.8742 23.0072L49.7542 38.4632L51.7203 38.0968ZM47.8572 21.824H47.6652V23.824H47.8572V21.824ZM46.6811 22.6467L43.8971 38.1027L45.8654 38.4573L48.6494 23.0013L46.6811 22.6467ZM43.909 38.0461L36.517 68.7661L38.4615 69.2339L45.8535 38.5139L43.909 38.0461ZM37.4892 68H18.9612V70H37.4892V68ZM130.836 23.016L130.371 23.9012L130.38 23.9059L130.389 23.9104L130.836 23.016ZM139.764 31.56L138.891 32.0482L138.896 32.057L138.901 32.0657L139.764 31.56ZM139.764 58.536L138.897 58.0367L138.895 58.0415L139.764 58.536ZM130.836 67.08L131.289 67.9714L131.295 67.9684L130.836 67.08ZM104.436 67.08L103.977 67.9685L103.989 67.9744L104.436 67.08ZM95.4117 58.536L94.539 59.0242L94.5439 59.033L94.549 59.0417L95.4117 58.536ZM95.4117 31.56L94.5453 31.0607L94.5426 31.0655L95.4117 31.56ZM104.436 23.016L104.883 23.9105L104.895 23.9044L104.436 23.016ZM109.716 37.32L108.773 36.9856L109.716 37.32ZM109.716 52.68L108.773 53.0144L108.777 53.0243L109.716 52.68ZM112.788 57L112.206 57.8137L112.22 57.8231L112.233 57.8321L112.788 57ZM122.484 57L123.038 57.8321L123.052 57.8231L123.065 57.8137L122.484 57ZM125.556 52.68L126.495 53.0243L126.498 53.0144L125.556 52.68ZM125.556 37.32L126.498 36.9856L125.556 37.32ZM117.588 21.04C122.512 21.04 126.762 22.0054 130.371 23.9012L131.301 22.1308C127.357 20.0586 122.776 19.04 117.588 19.04V21.04ZM130.389 23.9104C134.048 25.74 136.876 28.4457 138.891 32.0482L140.636 31.0718C138.427 27.1223 135.304 24.132 131.283 22.1216L130.389 23.9104ZM138.901 32.0657C140.969 35.5939 142.028 39.8908 142.028 45H144.028C144.028 39.6132 142.91 34.9501 140.626 31.0543L138.901 32.0657ZM142.028 45C142.028 50.1085 140.97 54.4408 138.897 58.0367L140.63 59.0353C142.91 55.0792 144.028 50.3875 144.028 45H142.028ZM138.895 58.0415C136.88 61.5831 134.047 64.2953 130.377 66.1916L131.295 67.9684C135.305 65.8967 138.424 62.9129 140.633 59.0305L138.895 58.0415ZM130.382 66.1886C126.772 68.0247 122.516 68.96 117.588 68.96V70.96C122.771 70.96 127.348 69.9753 131.289 67.9714L130.382 66.1886ZM117.588 68.96C112.792 68.96 108.565 68.0265 104.883 66.1856L103.989 67.9744C107.987 69.9735 112.528 70.96 117.588 70.96V68.96ZM104.895 66.1916C101.222 64.294 98.3543 61.5783 96.2744 58.0303L94.549 59.0417C96.8211 62.9177 99.9695 65.898 103.977 67.9684L104.895 66.1916ZM96.2845 58.0478C94.272 54.4497 93.2437 50.1133 93.2437 45H91.2437C91.2437 50.3827 92.3275 55.0703 94.539 59.0242L96.2845 58.0478ZM93.2437 45C93.2437 39.886 94.2722 35.5849 96.2809 32.0545L94.5426 31.0655C92.3272 34.9591 91.2437 39.618 91.2437 45H93.2437ZM96.2782 32.0593C98.3578 28.4505 101.221 25.7413 104.883 23.9104L103.989 22.1216C99.9702 24.1307 96.8177 27.1175 94.5453 31.0607L96.2782 32.0593ZM104.895 23.9044C108.574 22.0034 112.797 21.04 117.588 21.04V19.04C112.523 19.04 107.977 20.0606 103.977 22.1276L104.895 23.9044ZM117.588 30.656C115.565 30.656 113.765 31.1468 112.233 32.1679L113.342 33.832C114.499 33.0612 115.899 32.656 117.588 32.656V30.656ZM112.233 32.1679C110.662 33.2155 109.528 34.8599 108.773 36.9856L110.658 37.6544C111.312 35.8121 112.226 34.5765 113.342 33.832L112.233 32.1679ZM108.773 36.9856C108.017 39.1159 107.66 41.8003 107.66 45H109.66C109.66 41.9277 110.006 39.4921 110.658 37.6544L108.773 36.9856ZM107.66 45C107.66 48.1997 108.017 50.8841 108.773 53.0144L110.658 52.3456C110.006 50.5079 109.66 48.0723 109.66 45H107.66ZM108.777 53.0243C109.534 55.0878 110.663 56.7116 112.206 57.8137L113.369 56.1863C112.224 55.3684 111.306 54.1122 110.655 52.3357L108.777 53.0243ZM112.233 57.8321C113.765 58.8532 115.565 59.344 117.588 59.344V57.344C115.899 57.344 114.499 56.9388 113.342 56.1679L112.233 57.8321ZM117.588 59.344C119.667 59.344 121.501 58.8568 123.038 57.8321L121.929 56.1679C120.778 56.9352 119.348 57.344 117.588 57.344V59.344ZM123.065 57.8137C124.608 56.7116 125.738 55.0878 126.495 53.0243L124.617 52.3357C123.965 54.1122 123.047 55.3684 121.902 56.1863L123.065 57.8137ZM126.498 53.0144C127.254 50.8841 127.612 48.1997 127.612 45H125.612C125.612 48.0723 125.265 50.5079 124.613 52.3456L126.498 53.0144ZM127.612 45C127.612 41.8003 127.254 39.1159 126.498 36.9856L124.613 37.6544C125.265 39.4921 125.612 41.9277 125.612 45H127.612ZM126.498 36.9856C125.744 34.8599 124.61 33.2155 123.038 32.1679L121.929 33.832C123.046 34.5765 123.96 35.8121 124.613 37.6544L126.498 36.9856ZM123.038 32.1679C121.501 31.1431 119.667 30.656 117.588 30.656V32.656C119.348 32.656 120.778 33.0648 121.929 33.832L123.038 32.1679ZM150.768 69H149.768V70H150.768V69ZM150.768 21V20H149.768V21H150.768ZM165.168 21L166.166 20.9353L166.106 20H165.168V21ZM165.84 31.368L164.843 31.4327L166.787 31.6893L165.84 31.368ZM171.216 23.016L170.584 22.2411L170.574 22.2495L171.216 23.016ZM183.504 20.328L183.28 21.3024L183.287 21.3042L183.295 21.3058L183.504 20.328ZM185.616 21.096L186.609 21.2165L186.686 20.5851L186.146 20.248L185.616 21.096ZM183.984 34.536L183.613 35.4645L184.82 35.9474L184.977 34.6565L183.984 34.536ZM181.488 33.96L181.292 34.9406L181.328 34.9477L181.364 34.9523L181.488 33.96ZM168.528 38.664L167.677 38.1399L167.671 38.1495L168.528 38.664ZM167.088 69V70H168.088V69H167.088ZM151.768 69V21H149.768V69H151.768ZM150.768 22H165.168V20H150.768V22ZM164.171 21.0647L164.843 31.4327L166.838 31.3033L166.166 20.9353L164.171 21.0647ZM166.787 31.6893C167.958 28.2398 169.66 25.6249 171.859 23.7825L170.574 22.2495C168.037 24.3751 166.155 27.3282 164.893 31.0467L166.787 31.6893ZM171.849 23.7909C174.071 21.978 176.907 21.04 180.432 21.04V19.04C176.534 19.04 173.226 20.086 170.584 22.2411L171.849 23.7909ZM180.432 21.04C181.602 21.04 182.545 21.1329 183.28 21.3024L183.729 19.3536C182.8 19.1391 181.695 19.04 180.432 19.04V21.04ZM183.295 21.3058C184.13 21.4847 184.71 21.7088 185.086 21.944L186.146 20.248C185.499 19.8432 184.671 19.5552 183.714 19.3502L183.295 21.3058ZM184.624 20.9755L182.992 34.4155L184.977 34.6565L186.609 21.2165L184.624 20.9755ZM184.356 33.6075C183.608 33.3082 182.684 33.1016 181.613 32.9677L181.364 34.9523C182.341 35.0744 183.081 35.2518 183.613 35.4645L184.356 33.6075ZM181.685 32.9794C180.639 32.7702 179.384 32.672 177.936 32.672V34.672C179.305 34.672 180.418 34.7657 181.292 34.9406L181.685 32.9794ZM177.936 32.672C175.866 32.672 173.921 33.1219 172.113 34.0256L173.008 35.8144C174.528 35.0541 176.167 34.672 177.936 34.672V32.672ZM172.113 34.0256C170.274 34.9452 168.793 36.3255 167.677 38.1399L169.38 39.1881C170.312 37.6745 171.519 36.5588 173.008 35.8144L172.113 34.0256ZM167.671 38.1495C166.591 39.9489 166.088 42.1901 166.088 44.808H168.088C168.088 42.4339 168.546 40.5791 169.386 39.1785L167.671 38.1495ZM166.088 44.808V69H168.088V44.808H166.088ZM167.088 68H150.768V70H167.088V68ZM197.216 67.08L196.657 67.9093L196.667 67.9162L196.678 67.9229L197.216 67.08ZM190.304 58.536L189.386 58.9318L189.389 58.9385L189.391 58.9451L190.304 58.536ZM190.4 31.56L189.493 31.138L189.49 31.1444L189.487 31.1509L190.4 31.56ZM197.504 23.016L196.961 22.1759L196.953 22.1812L197.504 23.016ZM218.528 24.072L217.812 24.7705L217.821 24.7792L217.829 24.7876L218.528 24.072ZM223.712 34.152L224.507 34.758L224.777 34.4045L224.695 33.9677L223.712 34.152ZM222.176 36.168H221.176V39.1305L222.971 36.774L222.176 36.168ZM222.176 0.647999V-0.352001H221.176V0.647999H222.176ZM238.496 0.647999H239.496V-0.352001H238.496V0.647999ZM238.496 69V70H239.496V69H238.496ZM223.904 69L222.906 69.0646L222.967 70H223.904V69ZM222.848 52.68L223.448 51.88L221.71 50.5763L221.85 52.7446L222.848 52.68ZM224.768 54.12L225.761 54.2391L225.83 53.6662L225.368 53.32L224.768 54.12ZM221.792 62.472L220.963 61.9121L220.958 61.9199L220.953 61.9278L221.792 62.472ZM215.84 68.04L216.316 68.9197L216.324 68.9152L215.84 68.04ZM218.048 56.52L218.648 57.32L218.654 57.3154L218.048 56.52ZM221.12 52.008L222.062 52.3424L221.12 52.008ZM221.12 37.896L220.171 38.2122L220.178 38.2316L220.185 38.2507L221.12 37.896ZM218.144 33.576L217.519 34.3569L217.541 34.3739L217.563 34.3897L218.144 33.576ZM206.72 35.208L205.934 34.5891L205.932 34.5924L206.72 35.208ZM206.72 54.888L205.923 55.4919L205.927 55.4978L205.932 55.5036L206.72 54.888ZM207.68 68.96C203.881 68.96 200.584 68.0432 197.754 66.2371L196.678 67.9229C199.864 69.9568 203.543 70.96 207.68 70.96V68.96ZM197.775 66.2507C195.007 64.3856 192.816 61.694 191.216 58.1269L189.391 58.9451C191.12 62.802 193.537 65.8064 196.657 67.9093L197.775 66.2507ZM191.222 58.1402C189.689 54.5831 188.904 50.2768 188.904 45.192H186.904C186.904 50.4752 187.719 55.0649 189.386 58.9318L191.222 58.1402ZM188.904 45.192C188.904 39.9138 189.722 35.5181 191.312 31.9691L189.487 31.1509C187.75 35.0259 186.904 39.7182 186.904 45.192H188.904ZM191.307 31.982C192.967 28.4145 195.221 25.7195 198.055 23.8508L196.953 22.1812C193.771 24.2805 191.289 27.2815 189.493 31.138L191.307 31.982ZM198.046 23.856C200.943 21.9853 204.271 21.04 208.064 21.04V19.04C203.921 19.04 200.209 20.0787 196.961 22.176L198.046 23.856ZM208.064 21.04C212.193 21.04 215.407 22.3061 217.812 24.7705L219.244 23.3735C216.401 20.4618 212.639 19.04 208.064 19.04V21.04ZM217.829 24.7876C220.354 27.2523 221.995 30.4193 222.729 34.3363L224.695 33.9677C223.893 29.6927 222.078 26.1397 219.227 23.3564L217.829 24.7876ZM222.917 33.546L221.381 35.562L222.971 36.774L224.507 34.758L222.917 33.546ZM223.176 36.168V0.647999H221.176V36.168H223.176ZM222.176 1.648H238.496V-0.352001H222.176V1.648ZM237.496 0.647999V69H239.496V0.647999H237.496ZM238.496 68H223.904V70H238.496V68ZM224.902 68.9354L223.846 52.6154L221.85 52.7446L222.906 69.0646L224.902 68.9354ZM222.248 53.48L224.168 54.92L225.368 53.32L223.448 51.88L222.248 53.48ZM223.775 54.0009C223.408 57.0634 222.464 59.6919 220.963 61.9121L222.621 63.0319C224.32 60.5161 225.36 57.5766 225.761 54.2391L223.775 54.0009ZM220.953 61.9278C219.505 64.1602 217.642 65.9015 215.356 67.1648L216.324 68.9152C218.902 67.4905 221.007 65.5198 222.631 63.0162L220.953 61.9278ZM215.364 67.1603C213.162 68.3508 210.61 68.96 207.68 68.96V70.96C210.894 70.96 213.782 70.2892 216.315 68.9197L215.364 67.1603ZM213.344 58.96C215.38 58.96 217.168 58.4299 218.648 57.32L217.448 55.72C216.368 56.5301 215.02 56.96 213.344 56.96V58.96ZM218.654 57.3154C220.187 56.1477 221.309 54.4644 222.062 52.3424L220.178 51.6736C219.523 53.5196 218.597 54.8443 217.442 55.7246L218.654 57.3154ZM222.062 52.3424C222.816 50.2196 223.176 47.6669 223.176 44.712H221.176C221.176 47.5171 220.832 49.8284 220.178 51.6736L222.062 52.3424ZM223.176 44.712C223.176 41.943 222.814 39.543 222.055 37.5413L220.185 38.2507C220.834 39.961 221.176 42.105 221.176 44.712H223.176ZM222.069 37.5798C221.377 35.5053 220.277 33.8706 218.725 32.7623L217.563 34.3897C218.699 35.2014 219.583 36.4467 220.171 38.2122L222.069 37.5798ZM218.769 32.7951C217.288 31.6107 215.491 31.04 213.44 31.04V33.04C215.101 33.04 216.44 33.4933 217.519 34.3569L218.769 32.7951ZM213.44 31.04C210.334 31.04 207.798 32.2236 205.934 34.5891L207.505 35.8269C208.97 33.9684 210.914 33.04 213.44 33.04V31.04ZM205.932 34.5924C204.126 36.904 203.32 40.4424 203.32 45H205.32C205.32 40.5976 206.114 37.608 207.508 35.8236L205.932 34.5924ZM203.32 45C203.32 49.5616 204.128 53.1221 205.923 55.4919L207.517 54.2841C206.112 52.4299 205.32 49.3984 205.32 45H203.32ZM205.932 55.5036C207.739 57.8166 210.25 58.96 213.344 58.96V56.96C210.806 56.96 208.901 56.0554 207.508 54.2724L205.932 55.5036ZM310.888 23.016L310.423 23.9012L310.432 23.9059L310.441 23.9104L310.888 23.016ZM319.816 31.56L318.943 32.0482L318.948 32.057L318.954 32.0657L319.816 31.56ZM319.816 58.536L318.95 58.0367L318.947 58.0415L319.816 58.536ZM310.888 67.08L311.341 67.9714L311.347 67.9684L310.888 67.08ZM284.488 67.08L284.029 67.9685L284.041 67.9744L284.488 67.08ZM275.464 58.536L274.591 59.0242L274.596 59.033L274.602 59.0417L275.464 58.536ZM275.464 31.56L274.598 31.0607L274.595 31.0655L275.464 31.56ZM284.488 23.016L284.935 23.9105L284.947 23.9044L284.488 23.016ZM289.768 37.32L288.826 36.9856L289.768 37.32ZM289.768 52.68L288.826 53.0144L288.829 53.0243L289.768 52.68ZM292.84 57L292.259 57.8137L292.272 57.8231L292.286 57.8321L292.84 57ZM302.536 57L303.091 57.8321L303.104 57.8231L303.117 57.8137L302.536 57ZM305.608 52.68L306.547 53.0243L306.551 53.0144L305.608 52.68ZM305.608 37.32L306.551 36.9856L305.608 37.32ZM297.64 21.04C302.564 21.04 306.815 22.0054 310.423 23.9012L311.353 22.1308C307.41 20.0586 302.828 19.04 297.64 19.04V21.04ZM310.441 23.9104C314.1 25.74 316.929 28.4457 318.943 32.0482L320.689 31.0718C318.48 27.1223 315.356 24.132 311.335 22.1216L310.441 23.9104ZM318.954 32.0657C321.022 35.5939 322.08 39.8908 322.08 45H324.08C324.08 39.6132 322.963 34.9501 320.679 31.0543L318.954 32.0657ZM322.08 45C322.08 50.1085 321.022 54.4408 318.95 58.0367L320.683 59.0353C322.962 55.0792 324.08 50.3875 324.08 45H322.08ZM318.947 58.0415C316.932 61.5831 314.099 64.2953 310.429 66.1916L311.347 67.9684C315.357 65.8967 318.476 62.9129 320.685 59.0305L318.947 58.0415ZM310.435 66.1886C306.824 68.0247 302.569 68.96 297.64 68.96V70.96C302.823 70.96 307.4 69.9753 311.341 67.9714L310.435 66.1886ZM297.64 68.96C292.844 68.96 288.617 68.0265 284.935 66.1856L284.041 67.9744C288.039 69.9735 292.58 70.96 297.64 70.96V68.96ZM284.947 66.1916C281.274 64.294 278.407 61.5783 276.327 58.0303L274.602 59.0417C276.874 62.9177 280.022 65.898 284.029 67.9684L284.947 66.1916ZM276.337 58.0478C274.324 54.4497 273.296 50.1133 273.296 45H271.296C271.296 50.3827 272.38 55.0703 274.591 59.0242L276.337 58.0478ZM273.296 45C273.296 39.886 274.325 35.5849 276.333 32.0545L274.595 31.0655C272.38 34.9591 271.296 39.618 271.296 45H273.296ZM276.331 32.0593C278.41 28.4505 281.274 25.7413 284.935 23.9104L284.041 22.1216C280.023 24.1307 276.87 27.1175 274.598 31.0607L276.331 32.0593ZM284.947 23.9044C288.627 22.0034 292.849 21.04 297.64 21.04V19.04C292.575 19.04 288.03 20.0606 284.029 22.1276L284.947 23.9044ZM297.64 30.656C295.617 30.656 293.817 31.1468 292.286 32.1679L293.395 33.832C294.551 33.0612 295.951 32.656 297.64 32.656V30.656ZM292.286 32.1679C290.714 33.2155 289.58 34.8599 288.826 36.9856L290.711 37.6544C291.364 35.8121 292.278 34.5765 293.395 33.832L292.286 32.1679ZM288.826 36.9856C288.07 39.1159 287.712 41.8003 287.712 45H289.712C289.712 41.9277 290.059 39.4921 290.711 37.6544L288.826 36.9856ZM287.712 45C287.712 48.1997 288.07 50.8841 288.826 53.0144L290.711 52.3456C290.059 50.5079 289.712 48.0723 289.712 45H287.712ZM288.829 53.0243C289.586 55.0878 290.716 56.7116 292.259 57.8137L293.421 56.1863C292.276 55.3684 291.358 54.1122 290.707 52.3357L288.829 53.0243ZM292.286 57.8321C293.817 58.8532 295.617 59.344 297.64 59.344V57.344C295.951 57.344 294.551 56.9388 293.395 56.1679L292.286 57.8321ZM297.64 59.344C299.72 59.344 301.554 58.8568 303.091 57.8321L301.982 56.1679C300.831 56.9352 299.401 57.344 297.64 57.344V59.344ZM303.117 57.8137C304.66 56.7116 305.79 55.0878 306.547 53.0243L304.669 52.3357C304.018 54.1122 303.1 55.3684 301.955 56.1863L303.117 57.8137ZM306.551 53.0144C307.307 50.8841 307.664 48.1997 307.664 45H305.664C305.664 48.0723 305.318 50.5079 304.666 52.3456L306.551 53.0144ZM307.664 45C307.664 41.8003 307.307 39.1159 306.551 36.9856L304.666 37.6544C305.318 39.4921 305.664 41.9277 305.664 45H307.664ZM306.551 36.9856C305.796 34.8599 304.662 33.2155 303.091 32.1679L301.982 33.832C303.098 34.5765 304.012 35.8121 304.666 37.6544L306.551 36.9856ZM303.091 32.1679C301.554 31.1431 299.72 30.656 297.64 30.656V32.656C299.401 32.656 300.831 33.0648 301.982 33.832L303.091 32.1679ZM330.821 69H329.821V70H330.821V69ZM330.821 21V20H329.821V21H330.821ZM345.413 21L346.412 20.9477L346.362 20H345.413V21ZM346.277 37.512L345.57 38.2191L347.412 40.061L347.276 37.4597L346.277 37.512ZM344.453 35.688L343.47 35.5059L343.374 36.0231L343.746 36.3951L344.453 35.688ZM347.813 27.048L347.002 26.4625L346.997 26.47L346.992 26.4776L347.813 27.048ZM353.957 21.864L354.385 22.7678L354.395 22.763L353.957 21.864ZM370.949 21.96L370.483 22.845L370.493 22.8498L370.949 21.96ZM378.917 69V70H379.917V69H378.917ZM362.597 69H361.597V70H362.597V69ZM360.677 34.44L359.97 35.1471L360.677 34.44ZM351.461 33.672L351.925 34.5578L351.941 34.5493L351.957 34.5402L351.461 33.672ZM347.141 69V70H348.141V69H347.141ZM331.821 69V21H329.821V69H331.821ZM330.821 22H345.413V20H330.821V22ZM344.414 21.0523L345.278 37.5643L347.276 37.4597L346.412 20.9477L344.414 21.0523ZM346.984 36.8049L345.16 34.9809L343.746 36.3951L345.57 38.2191L346.984 36.8049ZM345.436 35.8701C346.057 32.5193 347.133 29.7804 348.634 27.6184L346.992 26.4776C345.293 28.9236 344.129 31.9447 343.47 35.5059L345.436 35.8701ZM348.624 27.6335C350.195 25.4582 352.114 23.8435 354.385 22.7677L353.529 20.9603C350.936 22.1885 348.759 24.0298 347.002 26.4625L348.624 27.6335ZM354.395 22.763C356.741 21.6203 359.372 21.04 362.309 21.04V19.04C359.102 19.04 356.165 19.6757 353.519 20.965L354.395 22.763ZM362.309 21.04C365.509 21.04 368.222 21.6549 370.483 22.8449L371.415 21.0751C368.812 19.7051 365.765 19.04 362.309 19.04V21.04ZM370.493 22.8498C372.81 24.0384 374.62 25.786 375.934 28.1153L377.676 27.1327C376.174 24.47 374.079 22.4416 371.405 21.0702L370.493 22.8498ZM375.934 28.1153C377.235 30.4212 377.917 33.3752 377.917 37.032H379.917C379.917 33.1368 379.191 29.8188 377.676 27.1327L375.934 28.1153ZM377.917 37.032V69H379.917V37.032H377.917ZM378.917 68H362.597V70H378.917V68ZM363.597 69V41.352H361.597V69H363.597ZM363.597 41.352C363.597 37.9599 362.957 35.3061 361.384 33.7329L359.97 35.1471C360.957 36.1339 361.597 38.0881 361.597 41.352H363.597ZM361.384 33.7329C359.898 32.2464 358.002 31.52 355.781 31.52V33.52C357.528 33.52 358.896 34.0736 359.97 35.1471L361.384 33.7329ZM355.781 31.52C354.07 31.52 352.459 31.9501 350.965 32.8038L351.957 34.5402C353.151 33.8579 354.42 33.52 355.781 33.52V31.52ZM350.997 32.7862C349.431 33.6064 348.236 34.9352 347.391 36.6953L349.194 37.5607C349.886 36.1208 350.803 35.1456 351.925 34.5578L350.997 32.7862ZM347.391 36.6953C346.534 38.4818 346.141 40.7923 346.141 43.56H348.141C348.141 40.9517 348.516 38.9742 349.194 37.5607L347.391 36.6953ZM346.141 43.56V69H348.141V43.56H346.141ZM347.141 68H330.821V70H347.141V68ZM434.255 5.736H435.255V4.42201L433.989 4.77215L434.255 5.736ZM435.887 56.904L435.202 57.6322L435.224 57.6529L435.247 57.6722L435.887 56.904ZM444.527 57.864L444.809 58.8234L444.826 58.8183L444.843 58.8127L444.527 57.864ZM447.599 56.232L448.585 56.063L448.301 54.4087L446.981 55.4457L447.599 56.232ZM449.327 66.312L449.911 67.1235L450.418 66.7586L450.313 66.143L449.327 66.312ZM443.279 69L443.533 69.9671L443.279 69ZM426.287 68.424L425.923 69.3556L425.931 69.3585L426.287 68.424ZM420.143 63.528L419.296 64.0602L419.302 64.0687L419.307 64.0772L420.143 63.528ZM417.935 54.6H416.935V54.6086L416.935 54.6172L417.935 54.6ZM417.935 10.248L417.669 9.28415L416.935 9.48695V10.248H417.935ZM448.559 21H449.559V20H448.559V21ZM448.559 32.616V33.616H449.559V32.616H448.559ZM409.679 32.616H408.679V33.616H409.679V32.616ZM409.679 21V20H408.679V21H409.679ZM433.255 5.736V51.912H435.255V5.736H433.255ZM433.255 51.912C433.255 54.3443 433.826 56.3376 435.202 57.6322L436.572 56.1758C435.772 55.4224 435.255 54.0877 435.255 51.912H433.255ZM435.247 57.6722C436.629 58.8245 438.449 59.344 440.591 59.344V57.344C438.765 57.344 437.448 56.9035 436.527 56.1358L435.247 57.6722ZM440.591 59.344C442.191 59.344 443.604 59.1779 444.809 58.8234L444.245 56.9046C443.274 57.1901 442.063 57.344 440.591 57.344V59.344ZM444.843 58.8127C446.097 58.3947 447.225 57.7979 448.217 57.0183L446.981 55.4457C446.181 56.0741 445.261 56.5653 444.211 56.9153L444.843 58.8127ZM446.613 56.401L448.341 66.481L450.313 66.143L448.585 56.063L446.613 56.401ZM448.743 65.5005C447.265 66.5641 445.369 67.4159 443.025 68.0329L443.533 69.9671C446.053 69.3041 448.189 68.3639 449.911 67.1235L448.743 65.5005ZM443.025 68.0329C440.677 68.6507 438.267 68.96 435.791 68.96V70.96C438.435 70.96 441.017 70.6293 443.533 69.9671L443.025 68.0329ZM435.791 68.96C432.233 68.96 429.191 68.4603 426.643 67.4895L425.931 69.3585C428.759 70.4357 432.053 70.96 435.791 70.96V68.96ZM426.651 67.4924C424.209 66.5398 422.331 65.0363 420.979 62.9788L419.307 64.0772C420.899 66.4997 423.117 68.2602 425.923 69.3556L426.651 67.4924ZM420.99 62.9958C419.71 60.9605 418.997 58.1825 418.935 54.5828L416.935 54.6172C417.001 58.4415 417.76 61.6155 419.296 64.0602L420.99 62.9958ZM418.935 54.6V10.248H416.935V54.6H418.935ZM418.201 11.2118L434.521 6.69984L433.989 4.77215L417.669 9.28415L418.201 11.2118ZM447.559 21V32.616H449.559V21H447.559ZM448.559 31.616H409.679V33.616H448.559V31.616ZM410.679 32.616V21H408.679V32.616H410.679ZM409.679 22H448.559V20H409.679V22ZM455.782 69H454.782V70H455.782V69ZM455.782 0.647999V-0.352001H454.782V0.647999H455.782ZM472.102 0.647999H473.102V-0.352001H472.102V0.647999ZM472.102 29.736H471.102L473.018 30.1387L472.102 29.736ZM478.15 22.536L478.671 23.3898L478.678 23.3852L478.686 23.3805L478.15 22.536ZM495.91 21.96L495.444 22.845L495.454 22.8498L495.91 21.96ZM503.878 69V70H504.878V69H503.878ZM487.558 69H486.558V70H487.558V69ZM485.638 34.44L484.897 35.1109L484.913 35.1294L484.931 35.1471L485.638 34.44ZM473.254 37.224L472.346 36.8049L473.254 37.224ZM472.102 69V70H473.102V69H472.102ZM456.782 69V0.647999H454.782V69H456.782ZM455.782 1.648H472.102V-0.352001H455.782V1.648ZM471.102 0.647999V29.736H473.102V0.647999H471.102ZM473.018 30.1387C474.355 27.0992 476.245 24.8691 478.671 23.3898L477.63 21.6822C474.808 23.4029 472.666 25.9728 471.187 29.3333L473.018 30.1387ZM478.686 23.3805C481.132 21.8292 483.982 21.04 487.27 21.04V19.04C483.647 19.04 480.416 19.9148 477.615 21.6915L478.686 23.3805ZM487.27 21.04C490.47 21.04 493.183 21.6549 495.444 22.8449L496.376 21.0751C493.773 19.7051 490.727 19.04 487.27 19.04V21.04ZM495.454 22.8498C497.772 24.0384 499.581 25.786 500.895 28.1153L502.637 27.1327C501.135 24.47 499.041 22.4416 496.367 21.0702L495.454 22.8498ZM500.895 28.1153C502.196 30.4212 502.878 33.3752 502.878 37.032H504.878C504.878 33.1368 504.152 29.8188 502.637 27.1327L500.895 28.1153ZM502.878 37.032V69H504.878V37.032H502.878ZM503.878 68H487.558V70H503.878V68ZM488.558 69V41.544H486.558V69H488.558ZM488.558 41.544C488.558 38.0369 487.923 35.3111 486.345 33.7329L484.931 35.1471C485.913 36.1289 486.558 38.1391 486.558 41.544H488.558ZM486.38 33.7691C484.949 32.1872 483.032 31.424 480.742 31.424V33.424C482.548 33.424 483.896 34.0048 484.897 35.1109L486.38 33.7691ZM480.742 31.424C479.031 31.424 477.42 31.8541 475.926 32.7078L476.918 34.4442C478.113 33.7619 479.382 33.424 480.742 33.424V31.424ZM475.926 32.7078C474.37 33.5969 473.185 34.9877 472.346 36.8049L474.162 37.6431C474.859 36.1323 475.786 35.0911 476.918 34.4442L475.926 32.7078ZM472.346 36.8049C471.496 38.6469 471.102 40.9813 471.102 43.752H473.102C473.102 41.1467 473.476 39.1291 474.162 37.6431L472.346 36.8049ZM471.102 43.752V69H473.102V43.752H471.102ZM472.102 68H455.782V70H472.102V68ZM523.474 66.984L523.014 67.8724L523.02 67.8755L523.474 66.984ZM514.545 58.44L515.415 57.9455L514.545 58.44ZM514.545 31.56L515.415 32.0545L514.545 31.56ZM523.378 23.016L522.918 22.1275L522.912 22.1308L523.378 23.016ZM549.393 23.016L548.902 23.8871L548.912 23.8924L548.921 23.8975L549.393 23.016ZM557.553 31.08L556.672 31.5531L556.676 31.56L557.553 31.08ZM559.953 49.128V50.128H560.801L560.94 49.2924L559.953 49.128ZM521.938 49.128H520.938V50.128H521.938V49.128ZM521.938 40.392V39.392H520.938V40.392H521.938ZM552.753 40.392L553.111 41.3259L552.753 39.392V40.392ZM544.977 43.368H543.977V44.8214L545.335 44.3019L544.977 43.368ZM542.865 34.536L542.029 35.0847L542.035 35.0937L542.041 35.1025L542.865 34.536ZM531.25 32.904L530.703 32.0664L530.695 32.072L530.686 32.0778L531.25 32.904ZM527.985 37.416L527.049 37.0649L527.044 37.0778L527.04 37.0909L527.985 37.416ZM528.177 52.968L527.255 53.3548L527.26 53.3656L528.177 52.968ZM531.729 57.192L531.226 58.0558L531.239 58.0638L531.253 58.0713L531.729 57.192ZM543.057 57L542.511 56.1624L542.503 56.168L542.494 56.1738L543.057 57ZM546.321 52.968L546.636 52.0186L545.748 51.725L545.395 52.5907L546.321 52.968ZM559.378 57.288L560.328 57.5976L560.636 56.6513L559.692 56.3386L559.378 57.288ZM554.673 64.296L555.322 65.0568L555.324 65.0553L554.673 64.296ZM546.802 68.52L546.503 67.5655L546.497 67.5673L546.802 68.52ZM537.297 68.96C532.11 68.96 527.663 67.9916 523.927 66.0925L523.02 67.8755C527.092 69.9445 531.861 70.96 537.297 70.96V68.96ZM523.932 66.0956C520.262 64.1993 517.43 61.4871 515.415 57.9455L513.676 58.9345C515.885 62.8169 519.005 65.8007 523.014 67.8724L523.932 66.0956ZM515.415 57.9455C513.406 54.4151 512.378 50.114 512.378 45H510.377C510.377 50.382 511.461 55.0409 513.676 58.9345L515.415 57.9455ZM512.378 45C512.378 39.886 513.406 35.5849 515.415 32.0545L513.676 31.0655C511.461 34.9591 510.377 39.618 510.377 45H512.378ZM515.415 32.0545C517.432 28.5085 520.236 25.7962 523.843 23.9012L522.912 22.1308C518.967 24.2038 515.883 27.1875 513.676 31.0655L515.415 32.0545ZM523.836 23.9044C527.516 22.0034 531.739 21.04 536.529 21.04V19.04C531.464 19.04 526.919 20.0606 522.918 22.1276L523.836 23.9044ZM536.529 21.04C541.456 21.04 545.566 22.0063 548.902 23.8871L549.885 22.1448C546.181 20.0577 541.715 19.04 536.529 19.04V21.04ZM548.921 23.8975C552.339 25.7281 554.913 28.2771 556.672 31.5531L558.435 30.6069C556.482 26.9709 553.617 24.1439 549.866 22.1345L548.921 23.8975ZM556.676 31.56C558.441 34.785 559.337 38.5197 559.337 42.792H561.337C561.337 38.2323 560.378 34.159 558.431 30.6L556.676 31.56ZM559.337 42.792C559.337 43.9255 559.306 45.059 559.243 46.1925L561.24 46.3035C561.305 45.133 561.337 43.9625 561.337 42.792H559.337ZM559.243 46.1925C559.18 47.3236 559.087 48.2443 558.967 48.9636L560.94 49.2924C561.076 48.4757 561.175 47.4764 561.24 46.3035L559.243 46.1925ZM559.953 48.128H521.938V50.128H559.953V48.128ZM522.938 49.128V40.392H520.938V49.128H522.938ZM521.938 41.392H552.753V39.392H521.938V41.392ZM552.396 39.4581L544.62 42.4341L545.335 44.3019L553.111 41.3259L552.396 39.4581ZM545.977 43.368C545.977 39.4283 545.259 36.2524 543.69 33.9695L542.041 35.1025C543.288 36.9156 543.977 39.6277 543.977 43.368H545.977ZM543.702 33.9873C542.138 31.6047 539.678 30.464 536.529 30.464V32.464C539.141 32.464 540.905 33.3713 542.029 35.0847L543.702 33.9873ZM536.529 30.464C534.32 30.464 532.363 30.9838 530.703 32.0664L531.796 33.7416C533.08 32.9042 534.643 32.464 536.529 32.464V30.464ZM530.686 32.0778C529.065 33.1829 527.869 34.8785 527.049 37.0649L528.922 37.7671C529.638 35.8575 530.618 34.545 531.813 33.7302L530.686 32.0778ZM527.04 37.0909C526.287 39.2807 525.93 42.0251 525.93 45.288H527.93C527.93 42.1509 528.276 39.6473 528.931 37.7411L527.04 37.0909ZM525.93 45.288C525.93 48.5011 526.354 51.2057 527.255 53.3547L529.1 52.5813C528.337 50.7623 527.93 48.3469 527.93 45.288H525.93ZM527.26 53.3656C528.161 55.4454 529.475 57.0344 531.226 58.0558L532.233 56.3282C530.912 55.5576 529.858 54.3306 529.095 52.5704L527.26 53.3656ZM531.253 58.0713C532.967 58.9997 534.995 59.44 537.297 59.44V57.44C535.248 57.44 533.564 57.0483 532.206 56.3127L531.253 58.0713ZM537.297 59.44C539.848 59.44 541.99 58.9383 543.621 57.8262L542.494 56.1738C541.309 56.9817 539.611 57.44 537.297 57.44V59.44ZM543.604 57.8376C545.257 56.7594 546.472 55.2495 547.248 53.3453L545.395 52.5907C544.763 54.1425 543.802 55.3206 542.511 56.1624L543.604 57.8376ZM546.007 53.9174L559.063 58.2374L559.692 56.3386L546.636 52.0186L546.007 53.9174ZM558.427 56.9784C557.589 59.5523 556.126 61.7338 554.023 63.5367L555.324 65.0553C557.701 63.0182 559.374 60.5277 560.328 57.5976L558.427 56.9784ZM554.025 63.5352C551.963 65.2933 549.463 66.6407 546.503 67.5655L547.1 69.4745C550.284 68.4793 553.032 67.0107 555.322 65.0568L554.025 63.5352ZM546.497 67.5673C543.593 68.4943 540.528 68.96 537.297 68.96V70.96C540.723 70.96 543.994 70.4657 547.106 69.4727L546.497 67.5673ZM635.528 7.464L635.145 8.38785L635.153 8.39113L635.161 8.39427L635.528 7.464ZM647.336 15.432L648.137 16.0308L648.641 15.3567L648.063 14.745L647.336 15.432ZM639.368 26.088L638.645 26.7789L639.461 27.6331L640.169 26.6868L639.368 26.088ZM630.44 19.656L630.015 20.5612L630.026 20.5664L630.037 20.5713L630.44 19.656ZM613.928 18.216L613.599 17.2715L613.928 18.216ZM610.76 20.328L611.574 20.9092L610.76 20.328ZM611.624 26.856L611.004 27.6409L611.027 27.6587L611.05 27.6752L611.624 26.856ZM617.768 29.16L617.546 30.1351L617.548 30.1356L617.768 29.16ZM628.424 31.56L628.65 30.5859L628.644 30.5844L628.424 31.56ZM643.304 60.648L644.104 61.248L644.11 61.2401L643.304 60.648ZM633.8 67.656L634.156 68.5906L634.169 68.5855L633.8 67.656ZM607.88 68.616L607.637 69.5861L607.645 69.5881L607.653 69.5898L607.88 68.616ZM597.512 64.584L597.022 65.4556L597.512 64.584ZM589.736 58.632L588.925 58.0468L588.442 58.7168L589.008 59.318L589.736 58.632ZM597.704 47.592L598.461 46.9391L597.634 45.9797L596.893 47.0068L597.704 47.592ZM603.56 52.584L603.022 53.4267L603.035 53.4353L603.049 53.4435L603.56 52.584ZM611.24 55.944L610.951 56.9012L610.957 56.903L611.24 55.944ZM625.352 56.52L625.072 55.5599L625.061 55.5633L625.352 56.52ZM628.328 47.976L627.621 48.6831L627.633 48.6953L627.646 48.7071L628.328 47.976ZM622.856 45.576L623.088 44.6032L623.08 44.6013L623.072 44.5996L622.856 45.576ZM611.144 42.984L610.918 43.9581L610.928 43.9604L611.144 42.984ZM601.544 39.72L601.089 40.6102L601.101 40.6165L601.113 40.6225L601.544 39.72ZM595.016 34.152L594.187 34.7119L594.195 34.7224L595.016 34.152ZM595.88 14.76L596.696 15.338L596.702 15.3301L595.88 14.76ZM605.288 7.368L604.887 6.45184L605.288 7.368ZM619.976 5.68C625.76 5.68 630.81 6.59165 635.145 8.38785L635.911 6.54014C631.286 4.62434 625.968 3.68 619.976 3.68V5.68ZM635.161 8.39427C639.57 10.133 643.383 12.7064 646.609 16.119L648.063 14.745C644.633 11.1176 640.574 8.37901 635.895 6.53372L635.161 8.39427ZM646.535 14.8332L638.567 25.4892L640.169 26.6868L648.137 16.0308L646.535 14.8332ZM640.091 25.3971C637.261 22.4352 634.179 20.2086 630.843 18.7407L630.037 20.5713C633.101 21.9194 635.971 23.9808 638.645 26.7789L640.091 25.3971ZM630.865 18.7508C627.576 17.2069 623.843 16.448 619.688 16.448V18.448C623.597 18.448 627.032 19.1611 630.015 20.5612L630.865 18.7508ZM619.688 16.448C617.26 16.448 615.217 16.7089 613.599 17.2715L614.256 19.1605C615.583 18.6991 617.38 18.448 619.688 18.448V16.448ZM613.599 17.2715C612.01 17.8242 610.747 18.6256 609.946 19.7468L611.574 20.9092C612.053 20.2384 612.902 19.6318 614.256 19.1605L613.599 17.2715ZM609.946 19.7468C609.179 20.8205 608.8 22.0498 608.8 23.4H610.8C610.8 22.4462 611.061 21.6275 611.574 20.9092L609.946 19.7468ZM608.8 23.4C608.8 25.0992 609.589 26.5239 611.004 27.6409L612.244 26.0711C611.226 25.2681 610.8 24.3888 610.8 23.4H608.8ZM611.05 27.6752C612.492 28.6842 614.693 29.4866 617.546 30.1351L617.99 28.1849C615.211 27.5534 613.316 26.8198 612.197 26.0368L611.05 27.6752ZM617.548 30.1356L628.204 32.5356L628.644 30.5844L617.988 28.1844L617.548 30.1356ZM628.198 32.5341C634.453 33.9874 638.894 36.0758 641.653 38.7146L643.035 37.2694C639.906 34.2762 635.067 32.0766 628.65 30.5859L628.198 32.5341ZM641.653 38.7146C644.37 41.3137 645.76 44.7811 645.76 49.224H647.76C647.76 44.3229 646.206 40.3023 643.035 37.2694L641.653 38.7146ZM645.76 49.224C645.76 53.5245 644.657 57.1167 642.498 60.0559L644.11 61.2401C646.558 57.9073 647.76 53.8835 647.76 49.224H645.76ZM642.504 60.048C640.324 62.9541 637.315 65.1855 633.431 66.7265L634.169 68.5855C638.349 66.9265 641.676 64.4859 644.104 61.248L642.504 60.048ZM633.444 66.7215C629.546 68.2064 625.062 68.96 619.976 68.96V70.96C625.258 70.96 629.99 70.1776 634.156 68.5905L633.444 66.7215ZM619.976 68.96C615.823 68.96 611.868 68.5196 608.107 67.6422L607.653 69.5898C611.572 70.5044 615.681 70.96 619.976 70.96V68.96ZM608.122 67.6459C604.359 66.7049 600.988 65.3917 598.002 63.7124L597.022 65.4556C600.18 67.2323 603.721 68.6071 607.637 69.5861L608.122 67.6459ZM598.002 63.7124C595.006 62.0269 592.497 60.1027 590.464 57.946L589.008 59.318C591.199 61.6413 593.874 63.6851 597.022 65.4556L598.002 63.7124ZM590.547 59.2172L598.515 48.1772L596.893 47.0068L588.925 58.0468L590.547 59.2172ZM596.947 48.2449C598.617 50.1824 600.645 51.9084 603.022 53.4267L604.098 51.7413C601.867 50.3156 599.991 48.7136 598.461 46.9391L596.947 48.2449ZM603.049 53.4435C605.49 54.8947 608.124 56.0468 610.951 56.9012L611.529 54.9868C608.852 54.1772 606.366 53.0893 604.071 51.7245L603.049 53.4435ZM610.957 56.903C613.863 57.7617 616.806 58.192 619.784 58.192V56.192C617.002 56.192 614.249 55.7903 611.523 54.985L610.957 56.903ZM619.784 58.192C622.082 58.192 624.044 57.9632 625.643 57.4767L625.061 55.5633C623.715 55.9728 621.966 56.192 619.784 56.192V58.192ZM625.632 57.48C627.29 56.9965 628.623 56.2362 629.498 55.1218L627.926 53.8862C627.393 54.5638 626.486 55.1475 625.072 55.56L625.632 57.48ZM629.498 55.1218C630.35 54.0374 630.768 52.76 630.768 51.336H628.768C628.768 52.344 628.482 53.1786 627.926 53.8862L629.498 55.1218ZM630.768 51.336C630.768 49.7222 630.178 48.335 629.01 47.2449L627.646 48.7071C628.398 49.409 628.768 50.2618 628.768 51.336H630.768ZM629.035 47.2689C627.866 46.0999 625.804 45.25 623.088 44.6032L622.624 46.5488C625.284 47.182 626.87 47.9321 627.621 48.6831L629.035 47.2689ZM623.072 44.5996L611.36 42.0076L610.928 43.9604L622.64 46.5524L623.072 44.5996ZM611.37 42.0099C607.844 41.1915 604.715 40.1253 601.975 38.8175L601.113 40.6225C604.005 42.0027 607.275 43.1125 610.918 43.9581L611.37 42.0099ZM601.999 38.8298C599.379 37.4889 597.334 35.7371 595.837 33.5816L594.195 34.7224C595.898 37.1749 598.205 39.1351 601.089 40.6102L601.999 38.8298ZM595.845 33.5921C594.38 31.4243 593.616 28.6871 593.616 25.32H591.616C591.616 28.9929 592.452 32.1437 594.187 34.7119L595.845 33.5921ZM593.616 25.32C593.616 21.5472 594.646 18.2316 596.696 15.338L595.064 14.182C592.762 17.4324 591.616 21.1568 591.616 25.32H593.616ZM596.702 15.3301C598.755 12.3706 601.733 10.0149 605.689 8.28415L604.887 6.45184C600.651 8.30514 597.357 10.8774 595.058 14.1899L596.702 15.3301ZM605.689 8.28415C609.629 6.56038 614.382 5.68 619.976 5.68V3.68C614.178 3.68 609.139 4.59161 604.887 6.45184L605.689 8.28415ZM674.555 5.736H675.555V4.42201L674.289 4.77215L674.555 5.736ZM676.187 56.904L675.502 57.6322L675.524 57.6529L675.547 57.6722L676.187 56.904ZM684.827 57.864L685.109 58.8234L685.126 58.8183L685.143 58.8127L684.827 57.864ZM687.899 56.232L688.885 56.063L688.601 54.4087L687.281 55.4457L687.899 56.232ZM689.627 66.312L690.211 67.1235L690.718 66.7586L690.613 66.143L689.627 66.312ZM683.579 69L683.833 69.9671L683.579 69ZM666.587 68.424L666.223 69.3556L666.231 69.3585L666.587 68.424ZM660.443 63.528L659.596 64.0602L659.602 64.0687L659.607 64.0772L660.443 63.528ZM658.235 54.6H657.235V54.6086L657.235 54.6172L658.235 54.6ZM658.235 10.248L657.969 9.28415L657.235 9.48695V10.248H658.235ZM688.859 21H689.859V20H688.859V21ZM688.859 32.616V33.616H689.859V32.616H688.859ZM649.979 32.616H648.979V33.616H649.979V32.616ZM649.979 21V20H648.979V21H649.979ZM673.555 5.736V51.912H675.555V5.736H673.555ZM673.555 51.912C673.555 54.3443 674.126 56.3376 675.502 57.6322L676.872 56.1758C676.072 55.4224 675.555 54.0877 675.555 51.912H673.555ZM675.547 57.6722C676.93 58.8245 678.749 59.344 680.891 59.344V57.344C679.065 57.344 677.749 56.9035 676.827 56.1358L675.547 57.6722ZM680.891 59.344C682.491 59.344 683.904 59.1779 685.109 58.8234L684.545 56.9046C683.574 57.1901 682.363 57.344 680.891 57.344V59.344ZM685.143 58.8127C686.397 58.3947 687.525 57.7979 688.517 57.0183L687.281 55.4457C686.481 56.0741 685.561 56.5653 684.511 56.9153L685.143 58.8127ZM686.913 56.401L688.641 66.481L690.613 66.143L688.885 56.063L686.913 56.401ZM689.043 65.5005C687.565 66.5641 685.669 67.4159 683.325 68.0329L683.833 69.9671C686.353 69.3041 688.489 68.3639 690.211 67.1235L689.043 65.5005ZM683.325 68.0329C680.977 68.6507 678.567 68.96 676.091 68.96V70.96C678.735 70.96 681.317 70.6293 683.833 69.9671L683.325 68.0329ZM676.091 68.96C672.533 68.96 669.491 68.4603 666.943 67.4895L666.231 69.3585C669.059 70.4357 672.353 70.96 676.091 70.96V68.96ZM666.951 67.4924C664.509 66.5398 662.631 65.0363 661.279 62.9788L659.607 64.0772C661.199 66.4997 663.417 68.2602 666.223 69.3556L666.951 67.4924ZM661.29 62.9958C660.01 60.9605 659.297 58.1825 659.235 54.5828L657.235 54.6172C657.301 58.4415 658.06 61.6155 659.596 64.0602L661.29 62.9958ZM659.235 54.6V10.248H657.235V54.6H659.235ZM658.501 11.2118L674.821 6.69984L674.289 4.77215L657.969 9.28415L658.501 11.2118ZM687.859 21V32.616H689.859V21H687.859ZM688.859 31.616H649.979V33.616H688.859V31.616ZM650.979 32.616V21H648.979V32.616H650.979ZM649.979 22H688.859V20H649.979V22ZM694.957 69H693.957V70H694.957V69ZM694.957 21V20H693.957V21H694.957ZM709.357 21L710.355 20.9353L710.295 20H709.357V21ZM710.029 31.368L709.031 31.4327L710.976 31.6893L710.029 31.368ZM715.405 23.016L714.773 22.2411L714.763 22.2495L715.405 23.016ZM727.693 20.328L727.468 21.3024L727.476 21.3042L727.484 21.3058L727.693 20.328ZM729.805 21.096L730.798 21.2165L730.875 20.5851L730.335 20.248L729.805 21.096ZM728.173 34.536L727.802 35.4645L729.009 35.9474L729.166 34.6565L728.173 34.536ZM725.677 33.96L725.481 34.9406L725.517 34.9477L725.553 34.9523L725.677 33.96ZM712.717 38.664L711.866 38.1399L711.86 38.1495L712.717 38.664ZM711.277 69V70H712.277V69H711.277ZM695.957 69V21H693.957V69H695.957ZM694.957 22H709.357V20H694.957V22ZM708.359 21.0647L709.031 31.4327L711.027 31.3033L710.355 20.9353L708.359 21.0647ZM710.976 31.6893C712.147 28.2398 713.849 25.6249 716.047 23.7825L714.763 22.2495C712.226 24.3751 710.344 27.3282 709.082 31.0467L710.976 31.6893ZM716.037 23.7909C718.26 21.978 721.096 21.04 724.621 21.04V19.04C720.723 19.04 717.415 20.086 714.773 22.2411L716.037 23.7909ZM724.621 21.04C725.791 21.04 726.734 21.1329 727.468 21.3024L727.918 19.3536C726.989 19.1391 725.884 19.04 724.621 19.04V21.04ZM727.484 21.3058C728.319 21.4847 728.899 21.7088 729.275 21.944L730.335 20.248C729.688 19.8432 728.86 19.5552 727.903 19.3502L727.484 21.3058ZM728.813 20.9755L727.181 34.4155L729.166 34.6565L730.798 21.2165L728.813 20.9755ZM728.545 33.6075C727.796 33.3082 726.873 33.1016 725.801 32.9677L725.553 34.9523C726.53 35.0744 727.27 35.2518 727.802 35.4645L728.545 33.6075ZM725.873 32.9794C724.828 32.7702 723.573 32.672 722.125 32.672V34.672C723.493 34.672 724.607 34.7657 725.481 34.9406L725.873 32.9794ZM722.125 32.672C720.055 32.672 718.109 33.1219 716.302 34.0256L717.196 35.8144C718.717 35.0541 720.355 34.672 722.125 34.672V32.672ZM716.302 34.0256C714.463 34.9452 712.982 36.3255 711.866 38.1399L713.569 39.1881C714.5 37.6745 715.708 36.5588 717.196 35.8144L716.302 34.0256ZM711.86 38.1495C710.78 39.9489 710.277 42.1901 710.277 44.808H712.277C712.277 42.4339 712.734 40.5791 713.575 39.1785L711.86 38.1495ZM710.277 44.808V69H712.277V44.808H710.277ZM711.277 68H694.957V70H711.277V68ZM743.805 66.984L743.346 67.8724L743.352 67.8755L743.805 66.984ZM734.877 58.44L735.746 57.9455L734.877 58.44ZM734.877 31.56L735.746 32.0545L734.877 31.56ZM743.709 23.016L743.25 22.1275L743.244 22.1308L743.709 23.016ZM769.725 23.016L769.234 23.8871L769.243 23.8924L769.253 23.8975L769.725 23.016ZM777.885 31.08L777.004 31.5531L777.008 31.56L777.885 31.08ZM780.285 49.128V50.128H781.132L781.271 49.2924L780.285 49.128ZM742.269 49.128H741.269V50.128H742.269V49.128ZM742.269 40.392V39.392H741.269V40.392H742.269ZM773.085 40.392L773.442 41.3259L773.085 39.392V40.392ZM765.309 43.368H764.309V44.8214L765.666 44.3019L765.309 43.368ZM763.197 34.536L762.361 35.0847L762.367 35.0937L762.373 35.1025L763.197 34.536ZM751.581 32.904L751.034 32.0664L751.026 32.072L751.017 32.0778L751.581 32.904ZM748.317 37.416L747.38 37.0649L747.376 37.0778L747.371 37.0909L748.317 37.416ZM748.509 52.968L747.586 53.3548L747.591 53.3656L748.509 52.968ZM752.061 57.192L751.557 58.0558L751.571 58.0638L751.584 58.0713L752.061 57.192ZM763.389 57L762.842 56.1624L762.834 56.168L762.825 56.1738L763.389 57ZM766.653 52.968L766.967 52.0186L766.079 51.725L765.727 52.5907L766.653 52.968ZM779.709 57.288L780.66 57.5976L780.968 56.6513L780.023 56.3386L779.709 57.288ZM775.005 64.296L775.654 65.0568L775.656 65.0553L775.005 64.296ZM767.133 68.52L766.834 67.5655L766.829 67.5673L767.133 68.52ZM757.629 68.96C752.441 68.96 747.995 67.9916 744.258 66.0925L743.352 67.8755C747.423 69.9445 752.192 70.96 757.629 70.96V68.96ZM744.264 66.0956C740.594 64.1993 737.761 61.4871 735.746 57.9455L734.008 58.9345C736.217 62.8169 739.336 65.8007 743.346 67.8724L744.264 66.0956ZM735.746 57.9455C733.737 54.4151 732.709 50.114 732.709 45H730.709C730.709 50.382 731.792 55.0409 734.008 58.9345L735.746 57.9455ZM732.709 45C732.709 39.886 733.737 35.5849 735.746 32.0545L734.008 31.0655C731.792 34.9591 730.709 39.618 730.709 45H732.709ZM735.746 32.0545C737.763 28.5085 740.567 25.7962 744.174 23.9012L743.244 22.1308C739.298 24.2038 736.214 27.1875 734.008 31.0655L735.746 32.0545ZM744.168 23.9044C747.847 22.0034 752.07 21.04 756.861 21.04V19.04C751.796 19.04 747.25 20.0606 743.25 22.1276L744.168 23.9044ZM756.861 21.04C761.787 21.04 765.897 22.0063 769.234 23.8871L770.216 22.1448C766.513 20.0577 762.046 19.04 756.861 19.04V21.04ZM769.253 23.8975C772.67 25.7281 775.244 28.2771 777.004 31.5531L778.766 30.6069C776.813 26.9709 773.948 24.1439 770.197 22.1345L769.253 23.8975ZM777.008 31.56C778.772 34.785 779.669 38.5197 779.669 42.792H781.669C781.669 38.2323 780.709 34.159 778.762 30.6L777.008 31.56ZM779.669 42.792C779.669 43.9255 779.637 45.059 779.574 46.1925L781.571 46.3035C781.636 45.133 781.669 43.9625 781.669 42.792H779.669ZM779.574 46.1925C779.511 47.3236 779.418 48.2443 779.298 48.9636L781.271 49.2924C781.407 48.4757 781.506 47.4764 781.571 46.3035L779.574 46.1925ZM780.285 48.128H742.269V50.128H780.285V48.128ZM743.269 49.128V40.392H741.269V49.128H743.269ZM742.269 41.392H773.085V39.392H742.269V41.392ZM772.727 39.4581L764.951 42.4341L765.666 44.3019L773.442 41.3259L772.727 39.4581ZM766.309 43.368C766.309 39.4283 765.59 36.2524 764.021 33.9695L762.373 35.1025C763.619 36.9156 764.309 39.6277 764.309 43.368H766.309ZM764.033 33.9873C762.469 31.6047 760.009 30.464 756.861 30.464V32.464C759.472 32.464 761.236 33.3713 762.361 35.0847L764.033 33.9873ZM756.861 30.464C754.652 30.464 752.694 30.9838 751.034 32.0664L752.127 33.7416C753.411 32.9042 754.974 32.464 756.861 32.464V30.464ZM751.017 32.0778C749.396 33.1829 748.2 34.8785 747.38 37.0649L749.253 37.7671C749.969 35.8575 750.949 34.545 752.144 33.7302L751.017 32.0778ZM747.371 37.0909C746.618 39.2807 746.261 42.0251 746.261 45.288H748.261C748.261 42.1509 748.607 39.6473 749.262 37.7411L747.371 37.0909ZM746.261 45.288C746.261 48.5011 746.685 51.2057 747.587 53.3547L749.431 52.5813C748.668 50.7623 748.261 48.3469 748.261 45.288H746.261ZM747.591 53.3656C748.492 55.4454 749.806 57.0344 751.557 58.0558L752.565 56.3282C751.244 55.5576 750.189 54.3306 749.426 52.5704L747.591 53.3656ZM751.584 58.0713C753.298 58.9997 755.327 59.44 757.629 59.44V57.44C755.579 57.44 753.895 57.0483 752.537 56.3127L751.584 58.0713ZM757.629 59.44C760.179 59.44 762.321 58.9383 763.952 57.8262L762.825 56.1738C761.64 56.9817 759.942 57.44 757.629 57.44V59.44ZM763.935 57.8376C765.588 56.7594 766.803 55.2495 767.579 53.3453L765.727 52.5907C765.094 54.1425 764.133 55.3206 762.842 56.1624L763.935 57.8376ZM766.339 53.9174L779.395 58.2374L780.023 56.3386L766.967 52.0186L766.339 53.9174ZM778.758 56.9784C777.92 59.5523 776.457 61.7338 774.354 63.5367L775.656 65.0553C778.032 63.0182 779.706 60.5277 780.66 57.5976L778.758 56.9784ZM774.356 63.5352C772.295 65.2933 769.794 66.6407 766.834 67.5655L767.431 69.4745C770.616 68.4793 773.363 67.0107 775.654 65.0568L774.356 63.5352ZM766.829 67.5673C763.924 68.4943 760.859 68.96 757.629 68.96V70.96C761.054 70.96 764.325 70.4657 767.437 69.4727L766.829 67.5673ZM797.958 66.984L797.499 67.8724L797.505 67.8755L797.958 66.984ZM789.031 58.44L789.9 57.9455L789.031 58.44ZM789.031 31.56L789.9 32.0545L789.031 31.56ZM797.862 23.016L797.403 22.1275L797.397 22.1308L797.862 23.016ZM823.878 23.016L823.388 23.8871L823.397 23.8924L823.406 23.8975L823.878 23.016ZM832.039 31.08L831.157 31.5531L831.161 31.56L832.039 31.08ZM834.438 49.128V50.128H835.286L835.425 49.2924L834.438 49.128ZM796.422 49.128H795.422V50.128H796.422V49.128ZM796.422 40.392V39.392H795.422V40.392H796.422ZM827.239 40.392L827.596 41.3259L827.239 39.392V40.392ZM819.463 43.368H818.463V44.8214L819.82 44.3019L819.463 43.368ZM817.351 34.536L816.514 35.0847L816.52 35.0937L816.526 35.1025L817.351 34.536ZM805.734 32.904L805.188 32.0664L805.18 32.072L805.171 32.0778L805.734 32.904ZM802.471 37.416L801.534 37.0649L801.529 37.0778L801.525 37.0909L802.471 37.416ZM802.662 52.968L801.74 53.3548L801.745 53.3656L802.662 52.968ZM806.214 57.192L805.711 58.0558L805.724 58.0638L805.738 58.0713L806.214 57.192ZM817.542 57L816.996 56.1624L816.988 56.168L816.979 56.1738L817.542 57ZM820.807 52.968L821.121 52.0186L820.233 51.725L819.88 52.5907L820.807 52.968ZM833.862 57.288L834.813 57.5976L835.121 56.6513L834.177 56.3386L833.862 57.288ZM829.159 64.296L829.807 65.0568L829.809 65.0553L829.159 64.296ZM821.286 68.52L820.988 67.5655L820.982 67.5673L821.286 68.52ZM811.783 68.96C806.595 68.96 802.148 67.9916 798.412 66.0925L797.505 67.8755C801.577 69.9445 806.346 70.96 811.783 70.96V68.96ZM798.418 66.0956C794.747 64.1993 791.915 61.4871 789.9 57.9455L788.161 58.9345C790.37 62.8169 793.49 65.8007 797.5 67.8724L798.418 66.0956ZM789.9 57.9455C787.891 54.4151 786.862 50.114 786.862 45H784.862C784.862 50.382 785.946 55.0409 788.161 58.9345L789.9 57.9455ZM786.862 45C786.862 39.886 787.891 35.5849 789.9 32.0545L788.161 31.0655C785.946 34.9591 784.862 39.618 784.862 45H786.862ZM789.9 32.0545C791.917 28.5085 794.721 25.7962 798.328 23.9012L797.397 22.1308C793.452 24.2038 790.368 27.1875 788.161 31.0655L789.9 32.0545ZM798.322 23.9044C802.001 22.0034 806.224 21.04 811.015 21.04V19.04C805.949 19.04 801.404 20.0606 797.404 22.1276L798.322 23.9044ZM811.015 21.04C815.941 21.04 820.051 22.0063 823.388 23.8871L824.37 22.1448C820.666 20.0577 816.2 19.04 811.015 19.04V21.04ZM823.406 23.8975C826.823 25.7281 829.398 28.2771 831.158 31.5531L832.919 30.6069C830.967 26.9709 828.102 24.1439 824.351 22.1345L823.406 23.8975ZM831.161 31.56C832.926 34.785 833.823 38.5197 833.823 42.792H835.823C835.823 38.2323 834.863 34.159 832.916 30.6L831.161 31.56ZM833.823 42.792C833.823 43.9255 833.791 45.059 833.728 46.1925L835.725 46.3035C835.79 45.133 835.823 43.9625 835.823 42.792H833.823ZM833.728 46.1925C833.665 47.3236 833.572 48.2443 833.452 48.9636L835.425 49.2924C835.561 48.4757 835.66 47.4764 835.725 46.3035L833.728 46.1925ZM834.438 48.128H796.422V50.128H834.438V48.128ZM797.422 49.128V40.392H795.422V49.128H797.422ZM796.422 41.392H827.239V39.392H796.422V41.392ZM826.881 39.4581L819.105 42.4341L819.82 44.3019L827.596 41.3259L826.881 39.4581ZM820.463 43.368C820.463 39.4283 819.744 36.2524 818.175 33.9695L816.526 35.1025C817.773 36.9156 818.463 39.6277 818.463 43.368H820.463ZM818.187 33.9873C816.623 31.6047 814.163 30.464 811.015 30.464V32.464C813.626 32.464 815.39 33.3713 816.514 35.0847L818.187 33.9873ZM811.015 30.464C808.805 30.464 806.848 30.9838 805.188 32.0664L806.281 33.7416C807.565 32.9042 809.128 32.464 811.015 32.464V30.464ZM805.171 32.0778C803.55 33.1829 802.354 34.8785 801.534 37.0649L803.407 37.7671C804.123 35.8575 805.103 34.545 806.298 33.7302L805.171 32.0778ZM801.525 37.0909C800.772 39.2807 800.414 42.0251 800.414 45.288H802.414C802.414 42.1509 802.761 39.6473 803.416 37.7411L801.525 37.0909ZM800.414 45.288C800.414 48.5011 800.839 51.2057 801.74 53.3547L803.585 52.5813C802.822 50.7623 802.414 48.3469 802.414 45.288H800.414ZM801.745 53.3656C802.646 55.4454 803.96 57.0344 805.711 58.0558L806.718 56.3282C805.397 55.5576 804.343 54.3306 803.58 52.5704L801.745 53.3656ZM805.738 58.0713C807.452 58.9997 809.48 59.44 811.783 59.44V57.44C809.733 57.44 808.049 57.0483 806.691 56.3127L805.738 58.0713ZM811.783 59.44C814.333 59.44 816.475 58.9383 818.106 57.8262L816.979 56.1738C815.794 56.9817 814.096 57.44 811.783 57.44V59.44ZM818.089 57.8376C819.742 56.7594 820.957 55.2495 821.733 53.3453L819.88 52.5907C819.248 54.1425 818.287 55.3206 816.996 56.1624L818.089 57.8376ZM820.492 53.9174L833.548 58.2374L834.177 56.3386L821.121 52.0186L820.492 53.9174ZM832.912 56.9784C832.074 59.5523 830.611 61.7338 828.508 63.5367L829.809 65.0553C832.186 63.0182 833.859 60.5277 834.813 57.5976L832.912 56.9784ZM828.51 63.5352C826.448 65.2933 823.948 66.6407 820.988 67.5655L821.585 69.4745C824.769 68.4793 827.517 67.0107 829.807 65.0568L828.51 63.5352ZM820.982 67.5673C818.078 68.4943 815.013 68.96 811.783 68.96V70.96C815.208 70.96 818.479 70.4657 821.591 69.4727L820.982 67.5673ZM862.014 5.736H863.014V4.42201L861.747 4.77215L862.014 5.736ZM863.646 56.904L862.96 57.6322L862.982 57.6529L863.006 57.6722L863.646 56.904ZM872.286 57.864L872.568 58.8234L872.585 58.8183L872.602 58.8127L872.286 57.864ZM875.358 56.232L876.343 56.063L876.06 54.4087L874.74 55.4457L875.358 56.232ZM877.086 66.312L877.67 67.1235L878.177 66.7586L878.071 66.143L877.086 66.312ZM871.038 69L871.292 69.9671L871.038 69ZM854.046 68.424L853.682 69.3556L853.69 69.3585L854.046 68.424ZM847.902 63.528L847.055 64.0602L847.06 64.0687L847.066 64.0772L847.902 63.528ZM845.694 54.6H844.694V54.6086L844.694 54.6172L845.694 54.6ZM845.694 10.248L845.427 9.28415L844.694 9.48695V10.248H845.694ZM876.318 21H877.318V20H876.318V21ZM876.318 32.616V33.616H877.318V32.616H876.318ZM837.438 32.616H836.438V33.616H837.438V32.616ZM837.438 21V20H836.438V21H837.438ZM861.014 5.736V51.912H863.014V5.736H861.014ZM861.014 51.912C861.014 54.3443 861.585 56.3376 862.96 57.6322L864.331 56.1758C863.531 55.4224 863.014 54.0877 863.014 51.912H861.014ZM863.006 57.6722C864.388 58.8245 866.208 59.344 868.35 59.344V57.344C866.523 57.344 865.207 56.9035 864.286 56.1358L863.006 57.6722ZM868.35 59.344C869.95 59.344 871.362 59.1779 872.568 58.8234L872.004 56.9046C871.033 57.1901 869.822 57.344 868.35 57.344V59.344ZM872.602 58.8127C873.856 58.3947 874.983 57.7979 875.976 57.0183L874.74 55.4457C873.94 56.0741 873.02 56.5653 871.97 56.9153L872.602 58.8127ZM874.372 56.401L876.1 66.481L878.071 66.143L876.343 56.063L874.372 56.401ZM876.501 65.5005C875.024 66.5641 873.128 67.4159 870.783 68.0329L871.292 69.9671C873.812 69.3041 875.947 68.3639 877.67 67.1235L876.501 65.5005ZM870.783 68.0329C868.436 68.6507 866.025 68.96 863.55 68.96V70.96C866.194 70.96 868.776 70.6293 871.292 69.9671L870.783 68.0329ZM863.55 68.96C859.992 68.96 856.95 68.4603 854.402 67.4895L853.69 69.3585C856.517 70.4357 859.811 70.96 863.55 70.96V68.96ZM854.409 67.4924C851.968 66.5398 850.09 65.0363 848.737 62.9788L847.066 64.0772C848.658 66.4997 850.875 68.2602 853.682 69.3556L854.409 67.4924ZM848.748 62.9958C847.469 60.9605 846.756 58.1825 846.694 54.5828L844.694 54.6172C844.76 58.4415 845.518 61.6155 847.055 64.0602L848.748 62.9958ZM846.694 54.6V10.248H844.694V54.6H846.694ZM845.96 11.2118L862.28 6.69984L861.747 4.77215L845.427 9.28415L845.96 11.2118ZM875.318 21V32.616H877.318V21H875.318ZM876.318 31.616H837.438V33.616H876.318V31.616ZM838.438 32.616V21H836.438V32.616H838.438ZM837.438 22H876.318V20H837.438V22Z" fill="url(#paint0_linear_262_238)"/>
<defs>
<linearGradient id="paint0_linear_262_238" x1="-0.999996" y1="36" x2="878" y2="36" gradientUnits="userSpaceOnUse">
<stop stop-color="#4CA6FF"/>
<stop offset="1" stop-color="#F19679"/>
</linearGradient>
</defs>
</svg>
